<svg xmlns="http://www.w3.org/2000/svg" viewBox="0 0 134.75 448.49"><defs><style>.cls-1{fill:#0f2717;}.cls-2{fill:#f2ca15;}</style></defs><title>Asset 3</title><g id="Layer_2" data-name="Layer 2"><g id="Layer_3" data-name="Layer 3"><path class="cls-1" d="M29.17,448.49s-2.34-96.21,27.11-330.31H61.4S28.19,380.31,36.22,448.49Z"/><path class="cls-1" d="M69.26,137.37a14.65,14.65,0,0,0-.27-1.76c-.44-1.65-1.28-2.9-3.07-2.74l-.88.76-.26-.29.74-.86-2.15-1.89-.29,1.12-.24-.24c-.36.32-.88.57-1.05,1a1.53,1.53,0,0,0,.13,1.32,1.81,1.81,0,0,1,.32,2.24c-.28.57,0,1.43.11,2.17l0,0c-.15,0-.42,0-.44.1a31,31,0,0,1-1,3.87,5.82,5.82,0,0,0-.18,1.95,1.74,1.74,0,0,1-1.09,1.18c-1.53.34-2.49,1.56-3.81,2.18-.18.08-.39.22-.54.18a6.71,6.71,0,0,1-3.42-2.28h-1c.39-1,.44-2.16,1.93-2.23.32,0,.62-.53,1.11-1l-1.9-.31v-.21h1.62c.18-.69.36-1.37.53-2,.25-.24.5-.47.74-.72.51-.53.92-1.32,1.54-1.54.87-.32.76-.89.76-1.48,0-1.13,0-2.26-.08-3.38a5.73,5.73,0,0,0-.53-1.4c-.61.28-1.68.46-1.75.84a13.91,13.91,0,0,1-1.3,3.61.71.71,0,0,0,0,.57c.6,1,.26,1.61-.77,2-.19.07-.3.34-.58.66a8.07,8.07,0,0,1,1.15,0c.53,0,1,.18.87.92L53,141.09c-.46,0-1.31-.9-2.11.47-.53.92-1.84.56-2.52-.43-.43-.62-1.27-.77-2.71-.37l1.88,2.46L45.94,145c-1.7-.66-3.52-1.3-5.27-2.11-.54-.25-.86-1-1.23-1.4l1.2-3a15,15,0,0,1-2.39-1.39c-.61-.51-.9-.56-1.45,0a14.06,14.06,0,0,1-2.11,1.57l-.41-2.34L29.9,135l-.26-2.09c1.23.75,1.18.73,1.63-.27.14-.31.58-.49.84-.79a2.7,2.7,0,0,1-3.39-1.66,15,15,0,0,0-2.4-2.93l-.41.22.58,1.47c-1.17-.36-2.32-.63-2.84-2-.27-.7-1.46-1.1-.66-2.12a3.1,3.1,0,0,0,.81-.08c.67-.23,1.32-.5,2-.78l-1.15-1.76L24,123.78c-1.07-.21-1,.5-1,1.1L21.16,123,19,125.11l-.56-.84a7.35,7.35,0,0,1-1.93.5c-.41,0-1.47.21-1-1.1a2.87,2.87,0,0,0,.45.52,1.73,1.73,0,0,0,.52.14l.28-.32-1.88-2,.67-.18-1-3.19c.57-.45.63-1-.32-1.4-.21-.1-.34-.38-.49-.59A6.12,6.12,0,0,0,12.42,115a2.45,2.45,0,0,1-1.35-2.44c.08-.75-.1-1-.91-1.15a9.11,9.11,0,0,1-2.24-1c0-2.05,1.73-.51,2.28-1.37l.67,1,.59-4-.35-.14-.56.35L6.5,103.36l-3.18.26A8.12,8.12,0,0,0,4,100.86a9.2,9.2,0,0,0-1.4-2.73,3.75,3.75,0,0,1,1-.56,4.42,4.42,0,0,0,2.94-2.82A7,7,0,0,1,8.9,92c.35-.29.69-.6,1.23-1.08L6.31,89.54l-.16-.37.91-.45a19.35,19.35,0,0,0-2.16-2.5c-1-.79-.8-1.6-.46-2.53S5,82,5.36,81.12c-2.11-.1-2.49-1-1.87-3A5.44,5.44,0,0,0,3,75.42a13.92,13.92,0,0,0-1-2l1.42-.8-1.28-.49,1.29-.18-.82-1.25.72-1.48,2.82-1,.34,2c.73.74,1.7.38,2.73,0S11,69,12.16,69.56c.15.08.5-.06.66-.21.88-.81,2-.34,2.95-.47.2,0,.7.6.66.86-.17,1-.49,2-.7,2.86-.36-.87-1.1-.55-1.76-.21V74l-.21,0L13,71.66,12,73.58l-.83-.69.67,3,.33,0v-2l1,.57c-.14.53-.26,1-.34,1.38s-.12.93-.18,1.39c.92.49,1.79,1,2.77.15.8-.71,1.64-1.37,1.45-2.63h.93L17.92,76l.5-.29,1,2.36,1.3-3,.34.09-.54,2.21c1.55-1.55,2-.3,2.61.52l.24-.16c-.12-.46-.23-.91-.35-1.36l.06-.11c.68-1.41,2.15-1.51,3.38-2a2.33,2.33,0,0,0,.75-.69L26.58,72l1.83.32c-.05-.38,0-.78-.18-1s-.56-.27-.86-.4l.1-.3,1.23.14-.8-1.41-.61.73-1.1-1.44L25.41,70c-.49-1.67-1.71-1.47-2.89-1.5A14,14,0,0,1,20.29,68a5,5,0,0,0,.19.87c.53,1.14,0,2.25-1.23,2.21-.3,0-.73-.56-.85-.94s.12-1.38-.18-1.62-1.11-.07-1.75-.07c-.09-.27-.17-.53-.27-.78a2.41,2.41,0,0,0-3-1.58,4.39,4.39,0,0,1-1.49-.34l.38-1.43L9.65,64l0,.61,1.48-.07c-.26.5.61,1.84-1.12,1.33-.17,0-.56.64-1.12.88l.33-1.66L7.46,63.78c1.47-1.78,3.18-3.47,2.17-6A20.78,20.78,0,0,0,11,56a1.77,1.77,0,0,0,.12-1c-.06-.6-.19-1.2-.34-2.07l.82.64c-.88-1.37.17-2,.91-2.85a2.06,2.06,0,0,0,.6-1.13c0-2,1.72-2.7,2.8-3.89a.26.26,0,0,1,.22-.07c1.79.52,3.22-.79,4.9-1,1-.11,1.87-1,2.93-1.6.05,0,.48.34.8.25s.77-.67,1.35-.35c.05-.24.22-.54.13-.71-.79-1.51-.8-1.5-.57-2.87l1.37,2.48.34-.13.12-1.63,1.23.1V40c-.46-.26-.91-.53-1.38-.76-.83-.4-1.68-.76-2.49-1.18-.61-.33-1.16-.78-1.78-1.09s-.86-.77-.36-1.41c.23-.31.43-.64.63-.94a4.71,4.71,0,0,1,1.5,0,15.66,15.66,0,0,1,5.28,2.7,11.72,11.72,0,0,0,2.8,1.35c0-1.33-.47-1.85-1.59-1.85,2.56-.86,2-1.65,1.27-4.61l.3-.14.66,1.55,1-2.36c.56.58,1.08.64,1.41-.32l.73.59.16-.1c-.23-.42-.35-1-.7-1.22-1.13-.61-.71-1.86-1.25-2.69-.07-.1.31-.56.56-.76a2.6,2.6,0,0,1,.88-.39c1.38-.44,1.71-.24,2.33,1.26a3.28,3.28,0,0,0,.67,1,7.36,7.36,0,0,0,.86.66L37.56,32,39,31.68l.54,1.21.7-.64c.84.44,1.73.8,2.06,1.87.06.2.63.25,1.1.13l-.69-.79c.85-.26,1.1.14,1.42.71.18.31.79.38,1.09.51.76.92,1.56,1.78,2.22,2.73.38.55.47,1.28.81,1.85a13.51,13.51,0,0,0,1.29,1.6c-.11,0-.38.32-.62.3-1.54-.19-1.54-.21-1.61,1.37l-.59-.45c-.38.58-1.1,1.05-.23,1.88l.09-.7c.89.65.92.93.32,2.09l1.52.61-.58.59.79-.57-.22,1.44,1.49-.49,1.89,3.12.69-.55,1,2-.55,0L52.54,53,51,51.91a6.09,6.09,0,0,0-1-.56c-.62-.18-1.26-.29-1.89-.47-.34-.1-.87-.19-1-.41-.52-1.36-1.82-1.53-2.91-2-.58-.27-1.14-.58-1.74-.81-.8-.3-1.62-.53-2.43-.81a4.77,4.77,0,0,1-1.25-.64l-2.34-.31c.61,1,1,1.74,1.51,2.44s1,.68,1.24-.1c.67,1,1.42,2,2,3.11a2,2,0,0,1,0,1.43c-.06.18-.68.21-1,.26a6.46,6.46,0,0,1-.88,0c.2.3.38.62.61.9.07.09.28.08.16.05a12.44,12.44,0,0,0,0,1.95c.21,1.28.49,2.55-.25,3.77a.9.9,0,0,0-.06.34c0,.74-.06,1.47-.1,2.42a7.07,7.07,0,0,0,.8.92,11.82,11.82,0,0,0,1.7,1.28c1.79,1.07,3.72,2,4.53,4.12-1,.37-1,.37-2-1.6-1,.49-2.1,1-3.16,1.47-.26.11-.65.27-.83.16a5.77,5.77,0,0,0-5.36-.63v1.5l1.17-.78c-.3,1-.65,1.41-1.51,1.2l-2.11-.51c-.65,1.85-.6,1.66,1,2.13s3.4.32,4.83,1.63a2.48,2.48,0,0,0,2.66-.13c.87-.67,1.77-1.3,2.69-2l1,.8a13.67,13.67,0,0,1,1.3-1.63,1.34,1.34,0,0,1,1-.16,1.75,1.75,0,0,0,2-.79c1.93-2.44,1.33-5.17,1.43-7.83,0-.91-.14-1.83-.15-2.74,0-.25.29-.72.41-.71a3.38,3.38,0,0,1,1.61.42,7.8,7.8,0,0,1,1.48,1.7c.49.68.86,1.44,1.35,2.12s.94,1.09,1.49,1.73c-.28.61.31,1.71-.91,2.16-.12,0,0,.7,0,1.24a4.26,4.26,0,0,0-1.65.61,2.86,2.86,0,0,0-1,1.91,4.44,4.44,0,0,0,1.15,2.38c.51.54,2.61,0,3.32-.73l.93,1.48,1.13-1,1.15,2.73-.31.11-1.62-.78c.1.66.18,1.14.25,1.63l-1,.57.11.28,1.24.22.54,1.55c.48-1.41-.31-2-1-2.65l1.09.14,1.76,2.39-.28.28-.61-.18a4.63,4.63,0,0,0-.1.65A3.09,3.09,0,0,1,61,80.63l.81.73,1-2.52.72.32c-1.16,1.94-1.2,2.36-.39,3.66l-3.54-.59-.17.54a15.86,15.86,0,0,0,2.31.88c.43.1.94-.21,1.31.31,0,.06.39,0,.55-.12,1.55-1,1.55-1,2.69.23a4.37,4.37,0,0,1,4.47,1.14,20.69,20.69,0,0,1,1.57,2.44,1.27,1.27,0,0,1,0,.9c-.28.86-.06,1.29.89,1.15.09,1.24-.66,2.4,0,3.64.35.69.54,1,1.3.46a2.79,2.79,0,0,1,1.75-.48c.43.05,2,0,.78,1.27-.14.15.11.64.26,1.36l-1.53-1.11-.17.09c.13.27.27.55.39.83a12.74,12.74,0,0,0,.63,1.47,12.52,12.52,0,0,0,1.5,2.15c.79.84,1.72,1.55,2.57,2.34.32.29.6.64.92,1,1.57-.44,1.91-.29,2.74,1.26a23.54,23.54,0,0,0,1.43,2.67c.76,1.06.89,1,1.79-.13l-.78-.36.49-2.79.35,0c0,.24.08.48.07.41a8.19,8.19,0,0,1,1.16.71c.36.31.2,1.24,1.12.93a3.44,3.44,0,0,1,.31.59c.13.28.18.69.4.83a3.74,3.74,0,0,0,1.18.32,4.52,4.52,0,0,0-.14-1.12c-.47-1-1.06-2-1.51-3a4.07,4.07,0,0,1,0-1.4c-2.37,1.65-4.16.22-6.14-1.21v1.88l-.31,0A9.82,9.82,0,0,0,82,95l-.43.87-.14,0,.06-.8a5.84,5.84,0,0,1-1.77-.58c-.23-.17-.09-.83-.12-1.42-.87-.25-1-1-1-2a6.61,6.61,0,0,0-.82-2.16c-.07-.17-.33-.38-.29-.48.49-1.26-.47-2.13-.84-3.06.94-1.72,3.48-.06,4-2,1.46.8,2.89,1.62,4.36,2.36.18.09.59-.21.86-.38a1.56,1.56,0,0,0,.67-.73l1.39-2.14c-.87-1-1.84-2.12-3.75-2.21a3.72,3.72,0,0,1-3.28-1.91c-.1-.19.24-.61.43-1.06l.14-3.15,0,0c.31-.39,1.35-.13.92-1.32l2,.3c-.5-.53-.77-1.26-1.69-.92-.09,0-.34-.18-.38-.32s.14-.32.27-.39a11.2,11.2,0,0,1,1.1-.4l.77,1c.34-.65.66-1.53,1.44-.34l-.85.69L87,73.8l-.79.87-.47-.77-.46,1.58L84,74c-.14,1.08-1.72,1.56-.85,2.91l.92-1.7.35.18-.24,1.45.24.21a4.63,4.63,0,0,0,1-.86c.65-.92.89-1,1.85.1l-.24-1.46c.25.06.51,0,.59.15.26.37.49,1,1,.42.26-.33.15-1,0-1.54s-.44-.64-.67-1l0,0,.31.12,1.41-2v4.84a8.38,8.38,0,0,0,.74-1,8.62,8.62,0,0,0,.46-1.13l1.13,1,1.29-.54c0,1.23-.06,2.26,0,3.28a7.58,7.58,0,0,0,.59,1.71c.73-2,2.22-3,4.06-2.68l-1.43.42L96.9,80a6.2,6.2,0,0,0,.32-1.25,7,7,0,0,0-.27-1.3l1.61,1V76.22l.26,0c0,.46.05.92.11,1.38s.15.74.83.43c.46-.22,1.17.09,1.79.17-.55.5-1.19.84-1.31,1.31s.52.86.87,1.37c-.88,1.45,1.2,1,1.39,2-1.19.14-1.35,2.29-3.17,1.59l-.81,1.46,1,.67a3.89,3.89,0,0,1,1.1-.77c.34-.09.78.16,1.17.26l-.73.59-.69.56,2.2.51-.25-1.92,1,.52.93-1.16.5,5.33,1.63-1.52a2.5,2.5,0,0,1,3.82.32,6,6,0,0,0,3.6,2.6c1.52.28,3.22,1,4.83,0,.3-.18.87-.36,1-.22a1.45,1.45,0,0,1,.49,1.14,1.73,1.73,0,0,1-.85,1.06c-.56.3-.73.4-.73,1.11s0,1.16,0,1.63h-2.46l-.35,1.27c-1.64-.64-1.66-.64-2,.52a16.4,16.4,0,0,0-2.15,1.3c-1.27,1.09-1.24,1.13-3.09.58,1.34,1.51-.29,2.37-.56,3.51-.19.82-.72,1.5.17,2.28.31.26.26.94.35,1.43s.18,1.19.24,1.61c.35-.64.67-1.28,1.05-1.89s.79-.46,1.42-.28a4.34,4.34,0,0,0,2.42-.09c.42-.14.67-.9.9-1.42a8.68,8.68,0,0,0,.38-1.42c.2.08.33.1.33.13.11,1.16.57,1.55,1.83,1.28a4.89,4.89,0,0,1,2.6.44c.51.2.85.84,1.22,1.24l-.48,1.09h0c-.19,1.1,0,2.36-1.11,2.8a10.67,10.67,0,0,1,1.27,2.08c.23.71-1.19,2.83-2,3.3-.58-1.11-1.35-.72-2.14-.24l2.82,4.08a2.06,2.06,0,0,1-2.47.73c-.48-.09-1.18-.15-1.48.12s-.24,1-.07,1.41.67.49,1,.73,1,.52,1,.65c-.24,1,.91,2.27-.62,3-.38.17-.9.71-1,.62-.83-.6-1.57-1.33-2.35-2a5.06,5.06,0,0,0-.92-.61c-.24-.13-.61-.12-.74-.3-.71-.92-1.18-.49-1.6.25l-.93-.48-.12.17,1.41,1.09c-.1.12-.4.43-.36.47.36.45.48.94-.11,1.16-.3.11-.76-.21-1.22-.36l-.16.58-2.88-.84-3,4.8-.26-.51a10.73,10.73,0,0,1-1.51-.13c-.41-.09-.78-.39-1.19-.48a9.46,9.46,0,0,0-1.41-.1,4.44,4.44,0,0,0,.18,1.22c.5,1.16,1.26,1.93,2.68,1.39.1,0,.24,0,.35.06l.21.12-1.35,2.46-.86-1.8-.42-.33c-.26.43-.51.87-.79,1.3-1.08,1.68-1.61,1.7-2.8.08-.22.16-.56.27-.64.49-.74,1.79-2.5,1.86-4,2.49-1.23.54-1.23-.87-2.13-1a14.79,14.79,0,0,0,2.21-2.19,3.58,3.58,0,0,1,2-1.72c1.17-.37,1.35-1.28,1.18-2.37l.38,1,1.37-1.06c-.78-.3-1.34-.71-1.82-.64s-1.19.49-.57,1.29c0,.06-.06.3-.14.42a3,3,0,0,1-3.73.44c-.62-.5-2.83-.16-3.74.57-1.27,1-2.34.76-3-.75-.3-.7-.5-1.44-.73-2.11l-.72.15v.6l-.17,0-.34-.86-.52.95-.18-.07c.06-.33.13-.66.2-1a2.74,2.74,0,0,0-2.77,0c-.09,1-.1,1.7-.22,2.37s-.19,1.28.88.78l.23,1.57,1.37-.72c.65,1.14,1.43,2.13.56,3.53h.36l.45-.63,2.47,3.55-.2.1,2.36,1.24-.22.43-.87-.47a6.34,6.34,0,0,1-.7,1,1.48,1.48,0,0,1-.82.44,6.78,6.78,0,0,0-3,.85c-.7.39-1.89-.1-2.86-.23-.21,0-.43-.31-.6-.27-1.38.28-1.5-.58-1.56-1.59a15.05,15.05,0,0,0-.34-1.88c-.36.93-.65,1.58-1.61,1.13-.15-.07-.54.36-1.1.76l-2.37-3.65ZM97.21,86.45l.68-1.28c-.52.3-.73.44-1,.56-.62.32-1.25,1.12-1.83-.1,0-.11-.72.08-1.1.13,1.86,1.32,1.86,1.32,3.24.66.82.57.63,1-.1,1.29.27,1.28,1.1,1.39,2.18,1.18l-1.21-2.52ZM92.88,97.86l-1.46,1.7a16.08,16.08,0,0,0,2.3.16,1.12,1.12,0,0,0,.75-.63,1,1,0,0,0-.28-.85c-.23-.18-.63-.13-1-.21a1.53,1.53,0,0,1-.37-.17,3,3,0,0,0-4.43-1.18L89.73,99l1.72-.42v-1ZM100.65,116c-.25.66-.49,1.31-.75,2a2.93,2.93,0,0,1-2.59,1.6,1.12,1.12,0,0,0,.59.6c.26.11.67,0,.8.19.66.81,1.2,1.72,1.89,2.5.3.34.9.73,1.26.65s1-.73,1-1.09a20.35,20.35,0,0,0-.71-3.12c0-.05-.12-.07-.21-.12l-.25.49a8.05,8.05,0,0,1-.23-1.39c-.21-.78-.54-1.53-.83-2.3a9.63,9.63,0,0,0,1-.52s0-.46-.11-.49a1.45,1.45,0,0,0-.75,0A5.68,5.68,0,0,0,100.65,116ZM54.88,104.64c.17-.19.47-.38.49-.59.08-.73,0-1.48.11-2.19,0-.25.6-.68.74-.61,1.38.64,1.52-.3,1.73-1.25a9.52,9.52,0,0,1,.5-1.31,1.17,1.17,0,0,0,1.71-1.13c-1.84,0-3.29-2-3.4-3.5a1.76,1.76,0,0,1,1.34-2l2.27-.7a2.81,2.81,0,0,0-2.73-1.15c-1,0-2.09-.85-3,.34l-.17-.43,2.36-1.21c-1.18-.8-2.11-1.33-3.38-.83a20.75,20.75,0,0,1-2.4.44,2.33,2.33,0,0,0-1.27.67c-.61.85-1.07.58-1.56,0-.35-.45-.66-.93-.89-1.26l-2.1.84L45.59,90l-.73.18v2L46,93.1c-.74-1.52,1.49-.75,1.28-1.76l.33.07-.29,1.15L48,93c1.51,1,2.29.73,2.84-1,.35-1.11,1.37-1.44,2.33-1.82a1.24,1.24,0,0,1,.4,0l-1.13.79,1.83,1.75c-1.5.73-.28,2.17-.61,3.42-.39,0-.73-.12-1.07-.14-1.29-.07-1.76.45-1.61,1.68.11.86.15,1.73.22,2.59,1.27-.29,1.4-.18,1.58,1.09.1.73.33,1.37,1.48.49l-.49,3c.92-.59.92-.59,1.18-.17l-1,1,1.25.7Zm-16-22.27a1.72,1.72,0,0,0-2.46,1c-.35.77-1.07,1.37-1.47,2.13s-.71,1-1.33.33a5.67,5.67,0,0,1-.52-.76l-.31.16c.23.5.44,1,.71,1.52.49.86.86,1.72.12,2.62-1.17,1.42-2.87,2-4.36,2.79a8.37,8.37,0,0,1-.8-2.61c0-.73.69-1.43,1.14-2.29H28.17l.8-1-.21-.21-1.31.77-3-1.68-.33.21,1.1,2.73L22.36,89.4a8.3,8.3,0,0,1-1.73-.53,2.71,2.71,0,0,0-2.46-.59c.23.33.35.69.59.8A5.42,5.42,0,0,1,22,92.79c.15.61.82,1.4-.19,2-.64.4-.22,1.77-1.45,1.75.17,1.33-.83.82-1.45,1s-1.53.22-1.59.76l2.24,3.28c-.29-.06-.56-.14-.83-.18s-.53,0-.89-.08l.16,1.22c2.71-.12,2.72-.13,2.51-1.71l.91-.44,1.43,1.12-2.23.57c1.78,1,1.76,1,2.23,2.76a16.21,16.21,0,0,0,.64,1.65,5.9,5.9,0,0,0-1.36.68,7,7,0,0,0-1.05,1.25,5.7,5.7,0,0,0,.36,1.08,6.59,6.59,0,0,0,1,1.58c.16.16.7-.07,1.07-.12s.82-.19.88-.08c.26.47.49.31.86.16,1.31-.55,2.64-1.06,4-1.58l.76,1.37.05-1h2.5l2.24,2.38c.81-.93,1.55-1.83,2.33-2.69,1-1.06,1.32-2.17.08-3.55l-1.44,3.39c-.75-.8-.75-.8.25-2.38-1,.07-1.74.18-2.49.16a36.53,36.53,0,0,1-3.92-.29,4.82,4.82,0,0,1-2.16-.76c-1.23-.93-2.3-2-3.46-3.06a1.34,1.34,0,0,1-.44-1.85.85.85,0,0,1,.26-.07c1.21.21,2.43.46,3.38-.65.59-.69,1.08-1.48,1.73-2.12a4.69,4.69,0,0,0,1.48-3.54c.24,0,.64.12.7,0,.52-.88,1.18-.6,1.89-.22-.14-1.13.7-1.15,1.37-1.36.52-.17,1-.38,1.7-.62l-1.37-1.11,2.41-2.29a4.42,4.42,0,0,0,3.63,2.18l-1.29-.81c.84-.81,0-1.16-.64-1.61l3.72-1.59-1.15-.81a18.89,18.89,0,0,1,2.45-.88c1.14-.26,1.35-.53.91-1.62a.85.85,0,0,1,0-.5c.19-.72,0-1.07-.8-1.19-.56-.09-1.42-.22-1.59-.58-.6-1.3-2.35-1-2.88-2.32a.71.71,0,0,0-.16,0c0,.56.06,1.48-.17,1.58C38.29,81.52,39,82,38.88,82.37Zm8,48.93L49,128.69l.16.13-.3,1.19.39.18.64-1.2.92,3.6-1.56-1.2c.45,2.05.43,3.75-.72,5.14,1.88,0,2.64-1.37,3.2-2.71.83-1.95,2.24-3.65,2.56-5.83a17.65,17.65,0,0,0,.54-2.14c0-.92-.39-1.85-.37-2.77a5.22,5.22,0,0,0-.83-3.16,6.38,6.38,0,0,1-.51-1.45l-.64-.15a2.15,2.15,0,0,1,.94-.4c.29-.11.75-.33.77-.53a30.21,30.21,0,0,0,.25-4.64,4.75,4.75,0,0,0-1-2.15c-.73-1.06-1.55-2-2.38-3a1,1,0,0,0-.81-.32,17.06,17.06,0,0,0-1.85,1l-.08,1.08,1-.2c-1.25,3.54-1.26,3.81-.17,5.1,1.14-.93,2.22-.57,3.19.58-.32,1.2-.75,2.64-1.08,4.09s-.57,2.9-.85,4.37c-1.06-.56-2.24.74-2.33,2.3l-1.93.56c-1.41-.7-.5-1.86-.5-2.54a6.4,6.4,0,0,0-1.18.79c-.3.28-.72.77-.64,1a29.74,29.74,0,0,0,1.16,3l.36-.17-.44-1,.16-.31a5.41,5.41,0,0,1,1.55.66c.5.43,0,.74-.33,1.1C45.73,129.29,46.06,130.57,46.91,131.3ZM93.7,101.54c1,2,3.27,3,4,5.21l-.62-.85a4,4,0,0,0,.15,2.19c.73,1.3,1.67,2.47,2.45,3.59l.25-.36,2.34,4.1,1.35-1.8-.36,1.85a13.65,13.65,0,0,1,2.81.28,7.05,7.05,0,0,1,1.93,1.3c1.3,1,2.56,2,3.88,3a11.08,11.08,0,0,0,1.45.75v.57c.22,0,.57.08.65,0a14.58,14.58,0,0,0,.93-1.56l-1,.3c0-1.5-.64-2.28-1.92-2.15l.79.61-.13.27c-.44-.16-1-.2-1.31-.51-1-1.1-1.85-2.29-2.81-3.49a4.26,4.26,0,0,1-.6.44,6.15,6.15,0,0,1-.74.23c.82-1,.81-1.12-.4-2.34v1.46c-.55-1.09-1.17-1.88-.73-3,.09-.23-.3-.79-.6-1s-1-.29-1.36-.62c-1.5-1.47-2.92-3-4.38-4.54-.49-.5-1.2-.86-1.51-1.44C97.12,102,95.9,101.27,93.7,101.54Zm-32.21,2.21c-.81,1.33,0,2.78,1.66,3.08l-.9.65c-.34,1.15,2.42.53,1.1,2.19l-1-.87c-.33,1.73-.65,3.21-.86,4.72,0,.17.49.42.89.73v-1.72l-.1.3c.56.4,1.37.69,1.63,1.23.67,1.45,1.74,3,.8,4.63s-.15,2.78,1,3.92a20.84,20.84,0,0,1,1.41-9.91,7.71,7.71,0,0,1,4.4,2.45c.6.66,1.32,1.21,2,1.81-.58-2.17-5.24-5.35-6.69-5-.52-.58-1-1.13-1.51-1.72a1.81,1.81,0,0,1-.35-.95c-.07-.94,0-1.89-.12-2.83a1.12,1.12,0,0,0-.43-.8,21.11,21.11,0,0,0-2-.91l1-.86-4-2.7-.76,1.49,1-.44.69,2.18Zm17.29,23.13c-.73-1.21-.84-2.49-2.17-2.94-.17-.06-.4-.42-.35-.54a2.85,2.85,0,0,0-.42-2.51c-.53-1.09-.9-2.26-1.29-3.29A9.92,9.92,0,0,1,72.49,119a1.65,1.65,0,0,0-1.2,2.35c.09.21.17.55.06.7-.46.64-.29.89.45,1a2,2,0,0,1,1.93,2.21c0,.43,0,.87,0,1.3a1,1,0,0,0,.3.69,2.38,2.38,0,0,0,2.54-.37ZM75.6,101.33c-.17.42-.28.56-.27.7,0,1.74-.48,3-2.5,3.24a1.11,1.11,0,0,0-.18.84c.37,1.07.93,2.07,1.23,3.15.25.92.88,1,1.54,1,1.16,0,2.35-.3,3.31.64a4.35,4.35,0,0,0,.42.33,2.09,2.09,0,0,0-.47-1.32c-.25-.3-.74-.42-1-.74a15.53,15.53,0,0,0-1.42-2.42c-.81-.83-.55-1.47.09-2.21l-.09.9a10.54,10.54,0,0,0,1.49.65,3.26,3.26,0,0,0,1.07-.06,3.43,3.43,0,0,0-.19-1.22,10.43,10.43,0,0,0-1.3-1.8C76.87,102.41,76.27,101.94,75.6,101.33Zm18.33,12.22-.74-2.15-1.55.72.34,1.39-.81.49c.33.1.65.13.66.21a6,6,0,0,0,2,3.42c1.92,1.54,1.89,1.5,3.77.06.65-.49.55-.84.12-1.35q-1.62-1.94-3.22-3.89l-.44.45ZM70.1,129.85l0-.31c2.12.21,1.23-1.79,2.08-2.69l.23,1h.16l.36-2.08L72,125c-.39.86-.57,1.88-1.17,2.39s-1.61.43-2.5.63l2.8,5.17a3.46,3.46,0,0,0,.54-.82,14.33,14.33,0,0,0,.3-1.69Zm-23-34a25.29,25.29,0,0,0-1.83-2.38c-.17-.19-.74,0-1.13,0,0,.33,0,.73.12,1,.62.89,1,1.73.11,2.65-1.15.09-2.33-.87-3.57.06L44,98.67c-.62-1.1.1-1.24.83-1.38A3,3,0,0,0,47.14,95.84ZM24.89,118.23l.39-.28c.65-.08,1.3-.12,1.93-.25a.69.69,0,0,0,.36-.57c-.53-1.83-.7-1.93-2.84-1.68ZM38.35,41.08l-1.73-2.4c-.69.38-1.67.66-1.34,1.83.1.34.62.57.94.85l.27-.23V39.4l1.07,2.11ZM22,116.46h1.39v-2.28h-.36L23,115c-1.32.19-1.76,1.26-1,2.82Zm24.57,18.46-.27-.25-2.26,2.53C45.5,137.34,46.28,136.49,46.61,134.92Zm2.16-60.31-.25,2.8.39,0L50,74.61ZM28.72,48.93l-.71-1c-.3.58-.54,1-.71,1.42a2.19,2.19,0,0,0-.06.73A3.74,3.74,0,0,0,28,49.7,8.92,8.92,0,0,0,28.72,48.93Zm43.76,85.38,0-.27-1.84-.37-.27,1.71ZM35.9,49.22h2L37,47.7ZM24.44,116.49c-.53.35-.87.56-1.18.81-.48.39-.24,1,.48,1.22Zm18-17.82.66,2C43.61,99.92,44.32,99.13,42.48,98.67Zm-12-48.92,1.25,1.34.55-1.53ZM65,98.6l.15.35c.35-.14.88-.18,1-.43a2.92,2.92,0,0,0,0-1.26L66,97.2Zm38-6.69-.81-.7c-1.07.73.13,1.23,0,1.84ZM33.36,59l-.21.12c.54.41,1.07.84,1.63,1.22,0,0,.31-.22.44-.37a.6.6,0,0,0-.24-.31C34.45,59.43,33.9,59.23,33.36,59ZM99.81,91.55l-.28.18a4.61,4.61,0,0,0,.7,1c.13.11.51-.07.78-.12a2.39,2.39,0,0,0-.4-.68A3.52,3.52,0,0,0,99.81,91.55Z"/><path class="cls-1" d="M118,45l.29-.6.3-.06a17.61,17.61,0,0,1,.84,3.1c.11,1.17-1.59,2-3.45,2.13a6,6,0,0,0-1.6,1.16A22.8,22.8,0,0,0,113,53.37a5.13,5.13,0,0,1-.56.76l-.25-.21a9.19,9.19,0,0,0,.68-1.22,9.34,9.34,0,0,0,.25-1.58c-.87,1-.87,1-1.63.29L114.17,50c-.2-1.08-1-1.31-1.82-1.42a3.71,3.71,0,0,1-3-1.85c1.67-.38,3.36-.73,5-1.16.26-.07.43-.53.65-.81Z"/><path class="cls-1" d="M117.06,98.78c.75-1.11,1.76-1.14,3.13.23l.12-1.12,1,.73-.59.38c.07.11.11.23.15.23a1.87,1.87,0,0,0,1.89-2,15.3,15.3,0,0,1-.17-1.66c0-.21.21-.42.41-.58a1.76,1.76,0,0,0,1.64,1.67c1.15.09,1.29,1,1.31,2l.48-.66.78.86c-.19.24-.55.51-.51.64.58,1.53-.92,2.26-1.34,3.62l-2.08-2.32-.92,2.17C121,101.16,118.11,101.34,117.06,98.78Z"/><path class="cls-1" d="M69.26,137.37l.42.31.42.93-1,.55c1.44,0,1.3,1.18,1.55,2,.08.23-.38.64-.64,1l.81.33-.14.33L69,142l-.38,1.47c-.78-1-1.51-1.85-2.2-2.76-1.28-1.69-1-3.28.79-4.48Z"/><path class="cls-1" d="M40.22,28.21,40.51,27l2.41-.61,1.57,1.43L44,29.28l.4.67a5.91,5.91,0,0,1-1.11,0,5.52,5.52,0,0,1-1.43-.39c-.22-.1-.52-.47-.48-.64C41.73,27.64,40.92,28.09,40.22,28.21Z"/><path class="cls-1" d="M78.52,70.73v2.41l-1.44-.94-2.74,2.68c-.62-1.77,1.13-4.15,3.34-4.82l.21,1.64Z"/><path class="cls-1" d="M127.76,87.45c-2.09-.39-4.23-.79-5.23-3.2l2.3,1,3.08-.71Z"/><path class="cls-1" d="M81.43,74.1c-.89,1.44-1.11,1.44-2.43,0,1.14-.8,1.17-1,.26-2.1a.64.64,0,0,1-.14-.52.59.59,0,0,1,.46-.26,4.87,4.87,0,0,1,1,.2l-.41-1.12,1.06-.6-.48,2.82.94.18-.31,1.49Z"/><path class="cls-1" d="M100,37.9c.56-1.18-.07-1.86-.83-2.59-.3-.29-.53-1.1-.35-1.36a2.19,2.19,0,0,1,1.47-.85c.33,0,1,.67,1,1-.14,1.31-.5,2.59-.77,3.88Z"/><path class="cls-1" d="M4.11,59.89l-1,.17.46,1.08-.17.28c-.27-.16-.65-.26-.79-.5-.34-.55-.9-1.45,0-1.7a22.84,22.84,0,0,1,4.16-.45l.2.56c-.73.44-1.45.91-2.2,1.29C4.72,60.66,4.39,60.2,4.11,59.89Z"/><path class="cls-1" d="M67.74,48.63,67,46.48h.14l-.35-3.19-.28,0c0,.1-.09.21-.14.3s-.16.2-.46.57l.21-2.77a2.58,2.58,0,0,1,1.52,2.92c-.09.54.32,1.19.14,1.91A10.43,10.43,0,0,0,67.74,48.63Z"/><path class="cls-1" d="M119.74,54c.63-1.35,1.69-.54,2.53-.61.23,0,.52.65.79,1l-.26.22-.76-.43-.63.67c-1.07-.79-3-.21-3.24-2.1C118.68,52.56,118.68,52.56,119.74,54Z"/><path class="cls-1" d="M59.91,66.18a8.6,8.6,0,0,0,.29.9c.29.63.46,1.43,1,1.82.81.64.3,1.38.38,2,0,.27-.59.62-.95,1l-1-5.69Z"/><path class="cls-1" d="M102.92,32.78l-.31-2.15,3.17.84-.69,1.46L103,31.52l.17,1.28Z"/><path class="cls-1" d="M105.72,53.31l-.38.45-.26-.88-.76.61-.21-1.85c1,.68,1.89,1.21,2.93.11l-.43,2.13Z"/><path class="cls-1" d="M7,63.77,6.29,66.9l-2-.73C6.1,66.07,5.19,63.76,7,63.77Z"/><path class="cls-1" d="M118.42,78.11l-.66,1.25-.39-2.52,2.29.26-.53,1.44Z"/><path class="cls-1" d="M64.29,24.12l.24-3c.32.55.64,1,.91,1.56C66.07,23.93,65.85,24.21,64.29,24.12Z"/><path class="cls-1" d="M61.26,31.78l-1.31,1-.83-1.57L58,31.37l-.16-1Z"/><path class="cls-1" d="M68,19.53l-.64.69L67.8,19c1.78.62,2.32,1.32,2.22,2.87l-1.08-.7.28-.1A2,2,0,0,0,69,20.4,8.47,8.47,0,0,0,68,19.53Z"/><path class="cls-1" d="M42.88,59.3,41,60.87l.63-3Z"/><path class="cls-1" d="M112.79,79.86c-.77-.43-1.2-1-.77-1.88.1-.23.38-.38.57-.57.13.24.36.48.36.73A14.67,14.67,0,0,1,112.79,79.86Z"/><path class="cls-1" d="M70.39,22.38l1.08.14-.24,2.38L70.8,25Z"/><path class="cls-1" d="M128.31,87.91l.13-2.9.62,0-.14,2.9Z"/><path class="cls-1" d="M99.83,72.81,99.66,75l-1.37-2Z"/><path class="cls-1" d="M107.44,53.65l.25-1.82,1.15.44c-.25.3-.92.19-.34,1S107.74,53.25,107.44,53.65Z"/><path class="cls-1" d="M120.38,108.19a8,8,0,0,1,.84-.59c.33-.18.88-.51,1-.4a4.86,4.86,0,0,1,.8,1.22l-2.67-.23Z"/><path class="cls-1" d="M49.6,143.59a2.1,2.1,0,0,1,.49-.37c.19-.08.51-.15.6-.06a.67.67,0,0,1,.1.63.65.65,0,0,1-.52.33c-.54-.06-1.08-.21-1.7-.34l.58-1Z"/><path class="cls-1" d="M88,72.91l-1,.2c-.12-.62-.22-1.12-.32-1.61.94-.16.94-.16,1.3,1.44Z"/><path class="cls-1" d="M64,80.33l-.16-1.82.44,0C64.22,79.09,65.52,79.55,64,80.33Z"/><path class="cls-1" d="M62.35,138.18c.54-.46,1.06-1,1.8-.13l-.48.61-1.29-.52Z"/><path class="cls-1" d="M55.46,99.81l.24.07v-4.8A1.39,1.39,0,0,0,54.92,97,22.07,22.07,0,0,1,55.46,99.81Z"/><path class="cls-1" d="M38.85,82.33l1.46.48V85.1l1.28.22-.31,1.27a3.06,3.06,0,0,1-1.17-.2c-.34-.21-.79-.75-.71-1A3.24,3.24,0,0,0,38.85,82.33Z"/><path class="cls-1" d="M29.28,107.6c-.7.47-1.18,1.41-2.2.67C28.1,108.84,27.78,105.84,29.28,107.6Z"/><path class="cls-1" d="M55.46,99.81A22.07,22.07,0,0,0,54.92,97a1.39,1.39,0,0,1,.78-1.88v4.8Z"/><path class="cls-2" d="M126,82.28a13.35,13.35,0,0,0-1.77-.21c-1.71,0-3.13.45-3.46,2.22l.49,1.06-.34.17-.63-1-2.39,1.57,1,.58-.29.16c.21.44.32,1,.66,1.28a1.55,1.55,0,0,0,1.31.23,1.8,1.8,0,0,1,2.24.29c.48.42,1.4.33,2.12.47l0,0c0,.15-.08.41,0,.44a30.37,30.37,0,0,1,3.46,2,6.16,6.16,0,0,0,1.83.69,1.74,1.74,0,0,1,.85,1.37c-.09,1.56.83,2.81,1.07,4.25,0,.19.11.43,0,.56a6.67,6.67,0,0,1-3.1,2.69l-.27.94c-.87-.64-2-1-1.64-2.45.07-.31-.34-.73-.64-1.34-.34.74-.58,1.24-.81,1.75l-.21-.06.44-1.57-1.83-1c-.16-.3-.32-.61-.49-.9-.38-.64-1-1.25-1.08-1.9-.07-.93-.65-1-1.22-1.13-1.08-.31-2.17-.62-3.27-.82a5.45,5.45,0,0,0-1.49.12c.1.67,0,1.75.33,1.92A13.92,13.92,0,0,1,120,96.86a.73.73,0,0,0,.55.18c1.14-.31,1.62.18,1.71,1.27,0,.2.24.39.48.74a8.43,8.43,0,0,1,.27-1.12c.19-.49.45-1,1.12-.59L125.22,99c-.12.45-1.23,1-.12,2.15.74.77.05,1.93-1.08,2.32-.72.25-1.09,1-1.09,2.51l2.88-1.14,1.25,2c-1.1,1.46-2.2,3-3.45,4.52-.38.45-1.16.57-1.68.81l-2.56-2a15.06,15.06,0,0,1-2,1.94c-.65.44-.78.71-.35,1.41a14.49,14.49,0,0,1,.95,2.44l-2.37-.22-2.46,3.85-2.09-.31c1.05-1,1-.94.18-1.63-.27-.23-.32-.7-.54-1a2.69,2.69,0,0,1-2.51,2.82,15.3,15.3,0,0,0-3.46,1.53l.1.46,1.57-.17c-.65,1-1.23,2.07-2.65,2.21-.74.07-1.44,1.11-2.22.07a3.87,3.87,0,0,0,.15-.8c0-.71-.14-1.41-.22-2.15l-2,.64,1.32,1.06c-.48,1,.22,1.06.8,1.23l-2.27,1.3,1.4,2.66-.95.31a7.31,7.31,0,0,1,0,2c-.11.39-.18,1.47-1.33.68a3,3,0,0,0,.62-.3,1.62,1.62,0,0,0,.28-.46l-.23-.35-2.4,1.28v-.69l-3.35.13c-.28-.67-.77-.87-1.43-.06-.15.17-.46.21-.7.3a6.19,6.19,0,0,0-2,.77,2.44,2.44,0,0,1-2.71.64c-.7-.27-1-.17-1.35.58a9.79,9.79,0,0,1-1.6,1.88c-2-.5,0-1.81-.71-2.57l1.1-.39-3.72-1.64-.22.3.19.63-3.78,3.16-.59,3.13a8.42,8.42,0,0,0-2.5-1.36,9.38,9.38,0,0,0-3,.62,3.85,3.85,0,0,1-.26-1.15,4.36,4.36,0,0,0-1.94-3.58,7.11,7.11,0,0,1-2-3c-.18-.41-.4-.82-.71-1.47l-2.35,3.31-.4.06-.19-1a18,18,0,0,0-3,1.41c-1,.74-1.75.34-2.56-.23l-2.23-1.58c-.66,2-1.61,2.14-3.35,1a5.35,5.35,0,0,0-2.77-.26,14.86,14.86,0,0,0-2.23.38L46,128.35l-.81,1.09.17-1.29-1.43.46-1.23-1.08-.18-3,2,.23c.91-.51.83-1.54.69-2.65s-.7-2,.17-3c.12-.12.08-.49,0-.68-.55-1.07.19-2,.33-3,0-.19.77-.51,1-.4,1,.44,1.83,1,2.57,1.44-.94.11-.82.92-.68,1.63l1.57.44,0,.22-2.5.06,1.56,1.55-.88.61,3,.15.05-.33-2-.55.81-.8c.48.27.85.5,1.24.69s.87.37,1.29.55c.73-.76,1.46-1.46.89-2.63-.47-1-.88-1.94-2.14-2.1l.25-.9,1.35.2-.14-.56,2.53-.31-2.57-2.07.18-.3,2,1.12c-1.08-1.92.25-2,1.2-2.38l-.09-.27-1.41,0a.3.3,0,0,0-.08-.08c-1.18-1-.88-2.48-1.06-3.81a2.3,2.3,0,0,0-.47-.91l-1.61.19.8-1.69c-.39,0-.76-.2-1-.09s-.41.47-.61.72l-.26-.17.46-1.15-1.58.39.55.78-1.69.68,1.11,1.11c-1.75,0-1.88,1.26-2.23,2.38a12.6,12.6,0,0,1-1,2,5.2,5.2,0,0,0,.89,0c1.25-.2,2.17.64,1.8,1.78-.09.29-.73.55-1.12.57-.55,0-1.31-.48-1.62-.26s-.36,1-.53,1.67l-.83,0a2.44,2.44,0,0,0-2.33,2.48c0,.46-.47.89-.72,1.34l-1.27-.75-1,2.27.58.2.34-1.45c.4.38,1.92-.1,1,1.44-.09.15.47.71.55,1.31l-1.51-.76-1.75,1.31c-1.32-1.9-2.48-4-5.19-3.7A20.17,20.17,0,0,0,32,116.64a1.64,1.64,0,0,0-.94-.39c-.6-.11-1.21-.14-2.09-.23l.84-.62c-1.56.48-1.92-.71-2.5-1.64a2.09,2.09,0,0,0-.94-.88c-1.91-.54-2.14-2.38-3-3.73a.29.29,0,0,1,0-.24c1-1.58.1-3.31.37-5,.17-1-.45-2.07-.75-3.25,0,0,.45-.37.45-.7s-.43-.92,0-1.4c-.22-.11-.46-.36-.65-.32-1.67.36-1.66.38-2.92-.21l2.76-.65,0-.37-1.53-.55.42-1.16-.26-.07c-.37.37-.75.73-1.1,1.13-.61.68-1.18,1.4-1.81,2.07-.47.51-1.05.91-1.52,1.42s-1,.63-1.46,0c-.23-.31-.5-.59-.74-.86a4.79,4.79,0,0,1,.43-1.44,15.59,15.59,0,0,1,4-4.37,11.38,11.38,0,0,0,2.06-2.33c-1.29-.34-1.92,0-2.22,1-.14-2.71-1.06-2.35-4.1-2.47l-.06-.32,1.68-.22-2-1.56c.71-.38.91-.86.07-1.44l.76-.55,0-.18c-.47.11-1.09.07-1.37.36-.88.92-2,.18-2.92.48-.12,0-.46-.45-.58-.75a2.49,2.49,0,0,1-.14-.95c0-1.45.23-1.71,1.84-1.91A3.3,3.3,0,0,0,13.16,82a5.69,5.69,0,0,0,.86-.66l2,3.29.06-1.52,1.31-.2L17,82.07c.64-.7,1.23-1.46,2.35-1.48.21,0,.41-.54.42-1l-.94.45c0-.89.42-1,1.06-1.18.35-.09.58-.66.78-.91,1.09-.49,2.13-1,3.23-1.41.63-.22,1.36-.11,2-.29a14.6,14.6,0,0,0,1.88-.81c0,.12.21.45.12.68-.59,1.43-.61,1.43.9,1.91l-.59.45c.46.52.72,1.34,1.75.73l-.66-.27c.87-.69,1.15-.65,2.1.24l1-1.3.41.72-.33-.91,1.32.59-.07-1.56,3.52-1-.35-.81,2.2-.44-.11.53,1.3.83L38.75,77a5.72,5.72,0,0,0-.8.8c-.34.55-.63,1.14-1,1.7-.19.3-.41.79-.66.81-1.45.14-1.95,1.35-2.73,2.26-.42.48-.87,1-1.25,1.46-.5.69-.94,1.42-1.43,2.13a4.21,4.21,0,0,1-1,1L29,89.4c1.13-.32,2-.52,2.76-.8s.93-.77.24-1.22c1.15-.38,2.32-.83,3.54-1.12a2,2,0,0,1,1.39.35c.16.1,0,.71,0,1.08a6.7,6.7,0,0,1-.23.85c.34-.11.7-.2,1-.34.12,0,.16-.25.1-.15a12.35,12.35,0,0,0,1.88.5c1.3.14,2.59.22,3.57,1.25a.75.75,0,0,0,.31.15l2.31.75A8.16,8.16,0,0,0,47,90.17a11.26,11.26,0,0,0,1.69-1.29c1.52-1.44,2.9-3,5.19-3.27.08,1.1.08,1.1-2.09,1.52.19,1.14.4,2.29.57,3.44,0,.28.09.7-.06.84a5.72,5.72,0,0,0-2,5l1.44.4-.44-1.33c.85.54,1.19,1,.76,1.77l-1.07,1.9c1.62,1.12,1.45,1,2.34-.41s1.21-3.19,2.85-4.21a2.49,2.49,0,0,0,.59-2.61c-.41-1-.78-2-1.18-3.11l1-.72a13.75,13.75,0,0,1-1.22-1.69,1.41,1.41,0,0,1,.12-1,1.75,1.75,0,0,0-.22-2.15c-1.83-2.52-4.63-2.67-7.17-3.48-.86-.27-1.79-.35-2.67-.59-.24-.06-.62-.47-.58-.58a3.37,3.37,0,0,1,.84-1.44,7.66,7.66,0,0,1,2-1c.78-.29,1.61-.45,2.4-.74s1.3-.6,2.06-1c.52.43,1.73.16,1.84,1.46,0,.12.67.2,1.19.35A4.11,4.11,0,0,0,55.34,78a2.86,2.86,0,0,0,1.57,1.45A4.42,4.42,0,0,0,59.52,79c.65-.34.65-2.52.18-3.39l1.68-.5-.68-1.36,2.94-.37,0,.32L62.48,75l1.64.19c.1.36.19.72.29,1.08l.3,0,.54-1.14L66.89,75c-1.23-.83-2-.23-2.81.23l.43-1,2.78-1.06.19.35-.34.54a4.53,4.53,0,0,0,.6.26,3.15,3.15,0,0,1,1.38.69l.92-.58-2.17-1.6.5-.61c1.56,1.64,1.95,1.78,3.42,1.35l-1.52,3.26.48.3a15.71,15.71,0,0,0,1.47-2c.21-.38,0-1,.64-1.17.08,0,.09-.38,0-.56-.51-1.76-.51-1.76.94-2.54a4.37,4.37,0,0,1,2.29-4A20.6,20.6,0,0,1,78.9,66a1.23,1.23,0,0,1,.87.23c.76.5,1.22.41,1.35-.55,1.21.25,2.13,1.28,3.51,1,.75-.16,1.07-.27.78-1.13a2.8,2.8,0,0,1,0-1.81c.16-.4.47-1.9,1.43-.41.1.17.65.06,1.38.1l-1.48,1.18,0,.19.9-.16a10.48,10.48,0,0,0,1.59-.21,12.55,12.55,0,0,0,2.48-.86c1-.54,1.95-1.25,2.94-1.86.37-.23.77-.4,1.2-.62,0-1.63.23-1.92,1.95-2.3a24.26,24.26,0,0,0,3-.67c1.22-.44,1.21-.59.36-1.75l-.56.65L98,55.82l.12-.33.42,0a7.69,7.69,0,0,1,1-.93c.4-.26,1.26.14,1.2-.84a3.93,3.93,0,0,1,.64-.13c.32,0,.72,0,.92-.17a4,4,0,0,0,.62-1,4,4,0,0,0-1.11-.17c-1.12.18-2.22.48-3.34.64a4.43,4.43,0,0,1-1.35-.35c.95,2.73-.91,4.07-2.82,5.59l1.82.51L96.1,59a9.84,9.84,0,0,0-7.52-.24l.73.64-.07.13-.76-.27a5.72,5.72,0,0,1-1,1.55c-.22.17-.82-.14-1.4-.26-.47.76-1.24.71-2.22.44a6.36,6.36,0,0,0-2.3.21c-.18,0-.45.21-.54.15-1.08-.81-2.17-.12-3.17,0-1.41-1.36.87-3.37-.87-4.42,1.17-1.2,2.33-2.36,3.44-3.57.13-.15,0-.63-.14-.93a1.54,1.54,0,0,0-.52-.84L78,49.62c-1.15.59-2.54,1.21-3.13,3a3.7,3.7,0,0,1-2.72,2.64c-.21.05-.52-.39-.9-.69l-3-1,0,0c-.29-.4.24-1.34-1-1.24l.82-1.85c-.64.34-1.41.4-1.33,1.38,0,.1-.27.29-.41.29s-.28-.22-.3-.37A8.16,8.16,0,0,1,66,50.71l1.2-.47c-.53-.5-1.3-1,.06-1.48l.43,1,1.83-1.63.63,1-.87.24,1.4.87-1.78.9c1,.42,1.05,2.07,2.57,1.59l-1.39-1.34.27-.28,1.33.61.27-.18a4.81,4.81,0,0,0-.54-1.22c-.72-.88-.7-1.12.58-1.75L70.5,48.4c.12-.22.18-.48.31-.53.42-.14,1.12-.19.66-.81-.25-.34-1-.42-1.47-.44a3.08,3.08,0,0,0-1.11.39l0,0,.2-.26-1.57-1.9,4.66,1.3a9.13,9.13,0,0,0-.8-1,8.86,8.86,0,0,0-1-.74l1.27-.82-.17-1.39c1.18.33,2.16.66,3.16.85a7.88,7.88,0,0,0,1.8-.11C74.74,41.72,74.16,40,75,38.34l0,1.49,3.1.47A5.37,5.37,0,0,0,77,39.66a6,6,0,0,0-1.34-.09l1.41-1.29-2.17-.6,0-.26c.46.09.91.2,1.36.26s.76,0,.64-.68c-.09-.51.4-1.11.64-1.68.34.66.49,1.37.91,1.61s1-.27,1.55-.47c1.17,1.24,1.25-.91,2.29-.81-.18,1.18,1.84,1.91.68,3.48L84.2,40.3l.92-.79a3.73,3.73,0,0,1-.45-1.26c0-.36.36-.71.56-1.07.13.29.25.58.37.87s.21.46.36.81l1.08-2-1.92-.27.77-.82L85,34.57l5.28,1c-.39-.75-.72-1.36-1-2A2.49,2.49,0,0,1,90.59,30a6,6,0,0,0,3.48-2.78c.67-1.39,1.81-2.83,1.32-4.64-.09-.34-.12-.94.06-1.06a1.43,1.43,0,0,1,1.23-.17,1.77,1.77,0,0,1,.8,1.1c.14.62.18.81.87,1l1.58.44-.66,2.36,1.12.68c-1,1.4-1,1.42,0,2.1A15.71,15.71,0,0,0,101,31.4c.71,1.52.75,1.5-.27,3.13,1.81-.88,2.2.92,3.23,1.48.74.41,1.25,1.1,2.24.44.34-.22,1,0,1.47.06s1.19.14,1.62.2c-.52-.51-1-1-1.54-1.52s-.23-.88.11-1.44a4.44,4.44,0,0,0,.56-2.37c0-.43-.69-.87-1.12-1.24a9.23,9.23,0,0,0-1.27-.75c.13-.17.18-.29.21-.28,1.15.21,1.65-.13,1.72-1.42a4.89,4.89,0,0,1,1.12-2.38c.34-.44,1-.6,1.52-.86l.93.77h0c1,.48,2.26.65,2.4,1.82a10.24,10.24,0,0,1,2.34-.66c.74,0,2.41,1.9,2.62,2.85-1.21.26-1,1.1-.8,2l4.68-1.62a2.06,2.06,0,0,1,.06,2.57,2,2,0,0,0-.29,1.45c.15.31.89.5,1.34.45s.66-.51,1-.79.77-.83.89-.76c.88.49,2.42-.26,2.69,1.4.07.4.44,1.05.32,1.15-.79.64-1.69,1.15-2.55,1.72a5.71,5.71,0,0,0-.83.73c-.19.19-.27.55-.48.64-1.08.43-.79,1-.19,1.6l-.71.76.13.17,1.42-1.06c.1.13.32.49.36.47.54-.23,1-.21,1.09.42,0,.31-.4.67-.67,1.07l.52.31-1.58,2.55,3.82,4.18-.57.12a10.24,10.24,0,0,1-.52,1.41c-.2.38-.59.66-.79,1a10,10,0,0,0-.48,1.33,4.36,4.36,0,0,0,1.23.15c1.26-.17,2.2-.7,2.06-2.21,0-.1.09-.22.15-.32l.17-.17,2,2-2,.35-.44.31c.35.37.71.73,1.05,1.11,1.33,1.49,1.21,2-.67,2.72.09.26.11.61.29.75,1.54,1.19,1.13,2.91,1.35,4.49.18,1.32-1.17,1-1.5,1.79A14.39,14.39,0,0,0,129,60.75a3.66,3.66,0,0,1-1.13-2.38c0-1.23-.86-1.64-2-1.77l1.07-.1-.66-1.6c-.5.67-1,1.1-1.11,1.58s.16,1.28,1.1.9c.07,0,.27.13.36.25a3,3,0,0,1-.57,3.7c-.65.47-.91,2.69-.46,3.76.64,1.5.11,2.46-1.52,2.68-.75.1-1.52.1-2.22.14l-.05.73.57.16V69l-.92.1.77.75-.11.15-.91-.45a2.75,2.75,0,0,0-.69,2.68c1,.36,1.62.55,2.23.85s1.19.52,1-.64l1.57.2L125,71.11c1.28-.33,2.44-.81,3.55.4l.09-.36-.48-.6,4.08-1.42,0,.22,1.82-1.95.36.33-.68.71a6.57,6.57,0,0,1,.74.93,1.41,1.41,0,0,1,.21.92,6.8,6.8,0,0,0,0,3.14c.18.78-.6,1.8-1,2.7-.08.19-.41.33-.42.5-.1,1.4-1,1.29-1.95,1.08a15.56,15.56,0,0,0-1.9-.18c.8.59,1.35,1,.66,1.86-.11.13.2.61.43,1.26L126.4,82ZM84.41,41.72l-1.06-1c.16.58.24.83.29,1.08.14.68.75,1.5-.59,1.73-.11,0-.11.72-.17,1.09,1.78-1.43,1.78-1.43,1.51-2.94.76-.63,1.15-.33,1.21.45,1.3.08,1.64-.69,1.72-1.79l-2.75.5C84.52,41.1,84.47,41.41,84.41,41.72ZM94.24,49l1.25,1.85a17,17,0,0,0,.77-2.17,1.13,1.13,0,0,0-.4-.89,1,1,0,0,0-.9,0c-.24.16-.3.57-.45.85a1.58,1.58,0,0,1-.27.31,3,3,0,0,0-2.32,4l2.56-.63.06-1.77-1-.26Zm19.56-2.63,1.69,1.24a2.94,2.94,0,0,1,.85,2.93,1.18,1.18,0,0,0,.74-.42c.17-.21.2-.63.4-.71,1-.42,2-.7,2.9-1.15.42-.2,1-.68,1-1s-.43-1.19-.78-1.25a18.91,18.91,0,0,0-3.2-.15c-.05,0-.1.1-.18.17l.41.38a9.65,9.65,0,0,1-1.39-.16c-.82,0-1.63.11-2.45.18a8,8,0,0,0-.23-1.1c0-.07-.45-.11-.5,0a1.49,1.49,0,0,0-.25.7A6,6,0,0,0,113.8,46.32ZM90.61,87.38c-.15-.22-.24-.56-.44-.64-.68-.27-1.42-.39-2.09-.69-.22-.11-.48-.76-.39-.87,1-1.16.13-1.55-.73-2a9.11,9.11,0,0,1-1.13-.83,1.16,1.16,0,0,0-.63-1.94c-.45,1.78-2.78,2.63-4.28,2.33a1.76,1.76,0,0,1-1.59-1.83c0-.78,0-1.56-.07-2.37a2.81,2.81,0,0,0-1.84,2.31c-.25,1-1.38,1.8-.48,3l-.46,0L76,81.3c-1.09.93-1.85,1.68-1.71,3A20.15,20.15,0,0,1,74,86.76a2.34,2.34,0,0,0,.31,1.41c.66.82.27,1.18-.45,1.48-.53.23-1.08.39-1.46.53l.25,2.25,1.34,0,0,.76,2,.54,1.17-.89c-1.66.31-.32-1.64-1.35-1.7l.15-.3,1,.59.56-.47c1.4-1.19,1.32-2-.24-3-1-.63-1-1.7-1.13-2.73,0-.09.07-.19.14-.38l.45,1.3,2.18-1.29c.3,1.64,2,.86,3.13,1.5-.15.36-.31.67-.42,1-.42,1.22,0,1.82,1.19,2,.85.12,1.7.32,2.55.48.06-1.3.2-1.4,1.47-1.23.74.1,1.41,0,.87-1.3l2.78,1.29c-.32-1.05-.32-1.05.15-1.19l.69,1.27,1-1ZM64.87,96.83a1.72,1.72,0,0,0,.32,2.64c.65.55,1,1.4,1.66,2s.74.94,0,1.37a4.23,4.23,0,0,1-.87.29l.07.35c.55-.09,1.11-.14,1.65-.28,1-.24,1.89-.37,2.56.59,1.06,1.51,1.13,3.29,1.53,4.94a8.21,8.21,0,0,1-2.73.07c-.7-.23-1.2-1-1.9-1.7l-.39,1.37-.7-1-.26.15.39,1.47-2.42,2.42.12.37,2.92-.32.44,3.1a8.12,8.12,0,0,1-1,1.52c-.6.61-1.28,1.1-1.22,2.22.38-.14.76-.16.93-.36a5.44,5.44,0,0,1,4.43-2.11c.63,0,1.57-.42,1.91.73.22.73,1.66.69,1.31,1.87,1.32.18.56,1,.54,1.65s-.19,1.54.31,1.74l3.76-1.28c-.14.26-.28.5-.4.75s-.19.5-.31.83l1.22.18c.6-2.64.6-2.66-1-2.87l-.18-1L79,117.42l0,2.3c1.39-1.46,1.39-1.44,3.25-1.41a15,15,0,0,0,1.76-.18,6.13,6.13,0,0,0,.29,1.49A7.51,7.51,0,0,0,85.2,121a6.89,6.89,0,0,0,1.14-.06,6.51,6.51,0,0,0,1.81-.59c.19-.11.11-.69.17-1.06s0-.85.15-.87c.53-.13.44-.4.39-.79-.18-1.41-.31-2.83-.46-4.24l1.52-.36L89,112.7l.67-2.41,2.89-1.53c-.68-1-1.34-2-2-3a2.31,2.31,0,0,0-3.39-1l2.87,2.29c-1,.51-1,.51-2.22-.87-.2,1-.29,1.72-.52,2.43a36.1,36.1,0,0,1-1.32,3.7,4.72,4.72,0,0,1-1.32,1.88c-1.21.94-2.58,1.67-3.86,2.52a1.35,1.35,0,0,1-1.91-.07.74.74,0,0,1,0-.27c.52-1.11,1.09-2.22.27-3.43-.51-.76-1.14-1.44-1.58-2.24a4.7,4.7,0,0,0-3-2.37c.08-.23.29-.59.21-.67-.71-.73-.26-1.29.3-1.88-1.13-.17-.92-1-1-1.69,0-.54-.08-1.09-.14-1.8l-1.43,1L71,100.4a4.43,4.43,0,0,0,3.08-2.91l-1.13,1c-.55-1-1.11-.32-1.72.18l-.54-4-1.09.89a19.07,19.07,0,0,1-.19-2.6c.06-1.16-.15-1.44-1.32-1.3a.92.92,0,0,1-.48-.16c-.64-.37-1-.23-1.36.46-.24.52-.58,1.31-1,1.38-1.41.23-1.63,2-3,2.15,0,0,0,.15,0,.17.53.2,1.44.34,1.47.59C63.89,97.17,64.52,96.64,64.87,96.83Zm49.29,5.36-2-2.71.16-.12,1.07.6.28-.32-1-.94,3.72.08L114.87,100c2.1.11,3.73.59,4.76,2.07.47-1.82-.61-2.91-1.75-3.81-1.66-1.32-2.92-3.14-4.94-4A18.45,18.45,0,0,0,111,93.1c-.88-.26-1.88-.12-2.76-.39a5.3,5.3,0,0,0-3.27,0,7,7,0,0,1-1.53.1l-.31.57a2.05,2.05,0,0,1-.14-1c0-.31-.11-.82-.31-.89A29.18,29.18,0,0,0,98.3,90,4.74,4.74,0,0,0,96,90.4c-1.21.42-2.39.95-3.56,1.48-.24.11-.55.49-.52.7a16.81,16.81,0,0,0,.52,2.06l1,.37L93.49,94c3.08,2.15,3.33,2.23,4.87,1.53-.59-1.35,0-2.29,1.41-2.92,1.08.63,2.35,1.42,3.66,2.14s2.63,1.31,4,2c-.82.87.11,2.36,1.6,2.86v2c-1,1.17-1.92,0-2.58-.19a7.77,7.77,0,0,0,.44,1.34c.2.36.56.9.84.9a30.78,30.78,0,0,0,3.16-.33l-.07-.4-1.06.17-.26-.24a5.54,5.54,0,0,1,1.05-1.31c.56-.37.73.16,1,.61C111.91,102.79,113.23,102.82,114.16,102.19ZM98,49.14c2.2-.4,3.78-2.34,6.09-2.46l-1,.37a3.94,3.94,0,0,0,2.16.44c1.44-.35,2.82-1,4.11-1.4l-.28-.34,4.57-1.15-1.36-1.78,1.68.84A13.23,13.23,0,0,1,115,41a7.28,7.28,0,0,1,1.77-1.52c1.3-1,2.64-1.93,3.93-2.93a9.63,9.63,0,0,0,1.11-1.2l.55.16c.06-.22.23-.53.14-.65a16,16,0,0,0-1.26-1.31v1.09c-1.44-.42-2.37,0-2.59,1.27l.8-.59.23.2c-.28.38-.47.94-.84,1.12-1.32.65-2.71,1.18-4.12,1.78a4.71,4.71,0,0,1,.26.69,5.65,5.65,0,0,1,0,.78c-.79-1.08-.86-1.08-2.37-.24l1.41.39c-1.2.24-2.12.63-3.08-.1-.2-.15-.84.08-1.14.31s-.56.91-1,1.14c-1.83,1-3.71,2-5.55,3-.62.33-1.15.92-1.79,1.06C99.38,46,98.34,47,98,49.14ZM91.52,80.76c1.06,1.14,2.68.73,3.41-.76l.38,1c1,.63,1.16-2.19,2.41-.48l-1.1.72c1.57.78,2.92,1.48,4.31,2.09.16.07.54-.36.95-.66l-1.66-.47.26.19c.54-.43,1-1.14,1.63-1.24,1.57-.26,3.37-.87,4.67.46s2.63.89,4,.1a21,21,0,0,1-9.18-4,7.79,7.79,0,0,1,3.55-3.58c.79-.41,1.52-1,2.27-1.43-2.24,0-6.55,3.62-6.6,5.11-.71.34-1.38.71-2.07,1a1.93,1.93,0,0,1-1,.09c-.92-.19-1.83-.47-2.76-.65a1.14,1.14,0,0,0-.89.21,19.66,19.66,0,0,0-1.4,1.69L92.16,79l-3.68,3.18,1.23,1.12-.17-1,2.29-.08ZM118.43,70.3c-1.36.38-2.63.14-3.41,1.3-.1.15-.52.27-.62.19a2.84,2.84,0,0,0-2.52-.26c-1.2.21-2.43.26-3.52.36a10.25,10.25,0,0,1,.79,2.35c0,1.21.75,1.94,1.94,1.79.23,0,.58,0,.69.13.5.61.78.52,1.1-.16a2,2,0,0,1,2.64-1.27,11,11,0,0,0,1.25.34,1,1,0,0,0,.75-.1,2.4,2.4,0,0,0,.32-2.55ZM93,66.53c.35.27.46.41.59.45,1.69.44,2.82,1.27,2.46,3.27,0,.09.51.42.76.4,1.13-.08,2.24-.35,3.36-.34,1,0,1.16-.6,1.34-1.23.31-1.12.34-2.35,1.51-3,.15-.09.28-.21.42-.31a2,2,0,0,0-1.39.09c-.36.17-.61.61-1,.72a15.39,15.39,0,0,0-2.71.72c-1,.56-1.57.14-2.11-.68l.84.32a9,9,0,0,0,1-1.25,3,3,0,0,0,.22-1,3.49,3.49,0,0,0-1.22-.15,10.44,10.44,0,0,0-2.08.78A22.91,22.91,0,0,0,93,66.53Zm16.67-14.4-2.27.14.28,1.68,1.43,0,.25.91c.19-.29.31-.59.38-.58a6,6,0,0,0,3.85-1c2-1.45,2-1.43,1.07-3.62-.3-.76-.67-.76-1.27-.48l-4.61,2.06.32.54ZM119,79.46l-.29-.12c.77-2-1.4-1.67-2-2.73l1,0,0-.15-1.91-.91-.94.74c.72.61,1.66,1,2,1.77s0,1.66-.07,2.57l5.74-1.31c-.26-.3-.41-.6-.65-.74a16.17,16.17,0,0,0-1.55-.74Zm-38.92,13a26.85,26.85,0,0,0-2.78,1.12c-.23.12-.21.72-.3,1.09.32.06.69.24,1,.15,1-.36,1.94-.54,2.58.6-.22,1.13-1.46,2-.9,3.45l2.31-2.6c-1.22.31-1.17-.42-1.11-1.16A3,3,0,0,0,80.05,92.48ZM95.67,119.9l-.17-.45a18.13,18.13,0,0,0,.28-1.92c0-.16-.29-.5-.45-.5-1.91,0-2,.15-2.37,2.29ZM24.94,86.29l-2.77,1c.18.77.18,1.79,1.4,1.78.36,0,.71-.44,1.07-.68l-.14-.31-1.67-.47,2.31-.46Zm68.27,35.89.37-1.34-2.2-.61-.1.34.72.31c-.17,1.32.74,2,2.44,1.74Zm24.36-18.74-.31.2,1.83,2.85C119.6,105.17,119,104.18,117.57,103.44ZM60,85.22l2.63,1,.13-.37L60.37,84ZM29.92,97.67l-1.19.41c.49.44.81.78,1.18,1.06a2.91,2.91,0,0,0,.68.26,3,3,0,0,0-.13-.8A5.83,5.83,0,0,0,29.92,97.67Zm94-19.32-.27,0L122.78,80l1.57.72ZM32.12,90.83l.54-1.93L31,89.32Zm61.75,29.05c.21.6.32,1,.47,1.35.24.57.89.49,1.31-.14ZM81.54,97.72l2.11-.09C83,97,82.47,96.07,81.54,97.72ZM31.19,96.18l1.63-.84-1.33-1ZM87.5,76l.38-.06c0-.37.05-.89-.15-1.08s-.79-.26-1.21-.38l-.12.24Zm3.71-38.38-.88.59c.41,1.23,1.21.21,1.78.46ZM40.89,95.89l0,.24c.54-.41,1.09-.81,1.61-1.24.05,0-.13-.36-.23-.53a.66.66,0,0,0-.37.15C41.58,95,41.24,95.43,40.89,95.89ZM90,40.58l.1.32a5.07,5.07,0,0,0,1.17-.41c.14-.09.07-.51.09-.78a2.92,2.92,0,0,0-.76.2A4.28,4.28,0,0,0,90,40.58Z"/><path class="cls-2" d="M50,10.57l-.51-.44,0-.3a17.08,17.08,0,0,1,3.2,0c1.16.21,1.51,2.07,1.13,3.9a6.38,6.38,0,0,0,.69,1.85,23,23,0,0,0,2.21,2.08,6.11,6.11,0,0,1,.58.74l-.28.19a7.05,7.05,0,0,0-1-1A9.39,9.39,0,0,0,54.62,17c.76,1.12.76,1.12-.16,1.65l-.65-3c-1.09-.1-1.53.6-1.85,1.37a3.76,3.76,0,0,1-2.59,2.36c.09-1.71.21-3.43.24-5.15,0-.27-.4-.55-.62-.84Z"/><path class="cls-2" d="M101.6,25.89c-.86-1-.63-2,1.07-2.95l-1.06-.42,1-.77.21.66c.12,0,.24,0,.26-.08A1.87,1.87,0,0,0,101.67,20,14.79,14.79,0,0,1,100,19.7c-.21-.05-.36-.31-.46-.55A1.75,1.75,0,0,0,101.62,18c.4-1.08,1.28-1,2.3-.72l-.51-.64,1-.52c.17.25.34.67.48.66,1.63-.15,1.93,1.49,3.12,2.26l-2.79,1.39,1.85,1.46C104.94,22.77,104.35,25.57,101.6,25.89Z"/><path class="cls-2" d="M126,82.28l.41-.32,1-.16.26,1.12c.35-1.39,1.48-.94,2.32-1,.24,0,.5.54.81.9l.53-.7.28.22-1.26,1.4,1.31.76c-1.15.49-2.19,1-3.25,1.38-2,.79-3.42.07-4.09-2Z"/><path class="cls-2" d="M13,81,12,80.45,12,78l1.8-1.14,1.25.82.75-.21a5.49,5.49,0,0,1-.26,1.08,5.63,5.63,0,0,1-.76,1.27c-.16.19-.59.38-.75.29C12.9,79.44,13.11,80.34,13,81Z"/><path class="cls-2" d="M64.26,55.52l2.32.65L65.29,57.3l1.85,3.36c-1.87.13-3.7-2.2-3.76-4.51l1.64.24Z"/><path class="cls-2" d="M93.55,12.55c-.94,1.91-1.89,3.87-4.48,4.18l1.55-2,.15-3.16Z"/><path class="cls-2" d="M68.29,53.62c1.15,1.24,1.08,1.45-.7,2.32-.46-1.31-.69-1.4-2-.81a.61.61,0,0,1-.53,0,.57.57,0,0,1-.13-.51,5.45,5.45,0,0,1,.46-.93l-1.19.09L64,52.6l2.59,1.21L67,53l1.36.7Z"/><path class="cls-2" d="M38.37,26.06c-1-.86-1.81-.43-2.72.1a1.49,1.49,0,0,1-1.4,0,2.17,2.17,0,0,1-.42-1.65A1.38,1.38,0,0,1,35,23.8a37.88,37.88,0,0,1,3.54,1.79Z"/><path class="cls-2" d="M33.9,124.31l-.09,1,1.15-.15.23.24c-.23.22-.42.56-.69.63-.62.17-1.64.48-1.64-.46a23,23,0,0,1,.68-4.13l.59,0c.23.82.49,1.63.66,2.47C34.8,123.93,34.27,124.12,33.9,124.31Z"/><path class="cls-2" d="M40.09,60l-2.28.13,0-.14-3.18-.51-.11.26a2.41,2.41,0,0,1,.24.21c.08.1.15.21.43.6l-2.62-.94a2.59,2.59,0,0,1,3.23-.69c.49.23,1.23,0,1.88.38A10.47,10.47,0,0,0,40.09,60Z"/><path class="cls-2" d="M59.16,11.33c-1.13-1-.06-1.78.09-2.6,0-.23.77-.33,1.19-.49l.14.3L60,9.16l.48.79c-1,.81-1,2.78-2.89,2.56C57.5,12,57.5,12,59.16,11.33Z"/><path class="cls-2" d="M54.9,72.23a7.38,7.38,0,0,0,.94,0,4.91,4.91,0,0,0,2-.44c.83-.61,1.42.07,2.08.18.27,0,.44.74.67,1.17l-5.75-.59Z"/><path class="cls-2" d="M34.23,21.85l-2.16-.28,1.66-2.82L35,19.8,33,21.42l1.27.18Z"/><path class="cls-2" d="M54.76,24.65l.33.49-.92,0,.38.89-1.84-.3c.94-.81,1.68-1.5.9-2.78l1.93,1Z"/><path class="cls-2" d="M38.42,122.56l2.82,1.53L40,125.81C40.39,124.05,37.92,124.31,38.42,122.56Z"/><path class="cls-2" d="M82.05,19.05l1,1-2.54-.3.87-2.13,1.25.89Z"/><path class="cls-2" d="M15.54,56.76l-2.79-1c.61-.16,1.17-.34,1.75-.46C15.83,55,16,55.27,15.54,56.76Z"/><path class="cls-2" d="M22.11,61.73l.6,1.52L21,63.63l-.14,1.18-1-.11Z"/><path class="cls-2" d="M12.12,51.92l.49.8L11.55,52c1.07-1.55,1.9-1.88,3.36-1.37l-1,.86,0-.3a2.06,2.06,0,0,0-.71.05A10.74,10.74,0,0,0,12.12,51.92Z"/><path class="cls-2" d="M43.7,86.8l1,2.19L42,87.59Z"/><path class="cls-2" d="M82.23,24.94c-.62.63-1.28.89-2,.25a2.55,2.55,0,0,1-.39-.71c.27-.06.56-.21.79-.15A14.72,14.72,0,0,1,82.23,24.94Z"/><path class="cls-2" d="M15.5,50.42l.42-1,2.23.87-.06.43Z"/><path class="cls-2" d="M94.14,12.14l-2.76-.9.19-.58,2.76.9Z"/><path class="cls-2" d="M72,35.55l2,.74-2.31.78Z"/><path class="cls-2" d="M55.55,23.09l-1.69-.73.73-1c.22.33-.07.94.87.6S55.24,22.69,55.55,23.09Z"/><path class="cls-2" d="M111.56,25.22a8.8,8.8,0,0,1-.35-1c-.08-.36-.25-1-.11-1.07a4.54,4.54,0,0,1,1.39-.45l-.94,2.51Z"/><path class="cls-2" d="M126.72,102.88a2.66,2.66,0,0,1-.23-.56c0-.21,0-.53.11-.6a.68.68,0,0,1,.63.07.67.67,0,0,1,.19.59c-.21.51-.5,1-.79,1.55l-.82-.83Z"/><path class="cls-2" d="M68.89,47l-.09,1-1.63-.13c.1-.94.1-.94,1.74-.86Z"/><path class="cls-2" d="M69.62,72.07l-1.79-.33.08-.43C68.49,71.53,69.28,70.41,69.62,72.07Z"/><path class="cls-2" d="M124.92,89.15c-.29-.64-.7-1.29.36-1.77l.46.63-.85,1.1Z"/><path class="cls-2" d="M86.1,85.52l.14-.21L81.61,84a1.4,1.4,0,0,0,1.61,1.26A23.46,23.46,0,0,1,86.1,85.52Z"/><path class="cls-2" d="M64.82,96.85l.86-1.28,2.2.61L68.43,95l1.14.64c-.16.37-.23.84-.5,1.08s-.93.55-1.16.41A3.22,3.22,0,0,0,64.82,96.85Z"/><path class="cls-2" d="M86.61,112.83c.26.8,1,1.52,0,2.31C87.48,114.3,84.51,113.81,86.61,112.83Z"/><path class="cls-2" d="M86.1,85.52a23.46,23.46,0,0,0-2.88-.24A1.4,1.4,0,0,1,81.61,84l4.63,1.29Z"/><path class="cls-1" d="M35.81,110a16.82,16.82,0,0,0,.81-1.58c.62-1.6.69-3.1-.85-4l-1.16.08,0-.38,1.11-.26-.61-2.79-.9.73-.05-.33a3.64,3.64,0,0,0-1.43.16A1.54,1.54,0,0,0,32,102.8a1.8,1.8,0,0,1-1.07,2c-.56.29-.8,1.19-1.18,1.81h0c-.14-.07-.36-.22-.41-.18a30.87,30.87,0,0,1-3.11,2.52c-.67.4-.87,1-1.3,1.47a1.72,1.72,0,0,1-1.58.3c-1.43-.63-2.93-.21-4.36-.5-.18,0-.44,0-.53-.17a6.6,6.6,0,0,1-1.41-3.86l-.79-.57c.9-.6,1.63-1.49,2.87-.67.27.18.81-.06,1.48-.13l-1.35-1.38.14-.17,1.3,1,1.64-1.33c.34,0,.68-.08,1-.14.73-.13,1.53-.52,2.16-.33.9.25,1.14-.27,1.49-.74.67-.91,1.34-1.82,1.93-2.78a5.5,5.5,0,0,0,.41-1.43c-.66-.15-1.64-.63-1.91-.37a14.54,14.54,0,0,1-3.18,2.14.74.74,0,0,0-.36.46c-.11,1.17-.74,1.45-1.8,1.14-.19-.06-.44.09-.85.19a10.54,10.54,0,0,1,.94.64c.4.36.74.76.16,1.26l-1.92.48c-.38-.27-.52-1.5-2-.87-1,.42-1.81-.64-1.78-1.83,0-.76-.56-1.38-2-1.91l.06,3.1-2.28.47c-1-1.55-2.07-3.14-3-4.82a4.68,4.68,0,0,1-.17-1.87L12.09,94A14.74,14.74,0,0,1,11,91.44c-.19-.77-.39-1-1.19-.83a14,14,0,0,1-2.62,0L8.22,88.5,5.48,84.83l1-1.85c.55,1.33.52,1.29,1.47.75.3-.17.76,0,1.15-.14a2.69,2.69,0,0,1-1.75-3.34,15.26,15.26,0,0,0-.2-3.79l-.47-.06-.4,1.53c-.73-1-1.5-1.88-1.12-3.26.19-.72-.53-1.75.72-2.1A3.54,3.54,0,0,0,6.6,73c.68.21,1.37.37,2.09.56l.11-2.11-1.45.86c-.75-.8-1.08-.17-1.44.31L5.5,70l-3,.37.05-1A7.37,7.37,0,0,1,.7,68.65C.38,68.41-.61,68,.54,67.16a3,3,0,0,0,.06.69,1.65,1.65,0,0,0,.33.42l.41-.09L1,65.49l.65.25L2.7,62.56c.73,0,1.09-.41.57-1.32-.11-.19,0-.5,0-.76a6.47,6.47,0,0,0,0-2.11,2.43,2.43,0,0,1,.36-2.76c.51-.56.51-.88-.06-1.47A9.24,9.24,0,0,1,2.32,52c1.17-1.68,1.7.61,2.65.25l0,1.16L7.8,50.5l-.21-.32-.65,0L5.33,45.48,2.6,43.82c.74-.61,1.72-1.08,2.16-1.85a9.73,9.73,0,0,0,.49-3,4,4,0,0,1,1.16.16,4.39,4.39,0,0,0,4-.54A7.17,7.17,0,0,1,14,37.75c.46,0,.91-.08,1.63-.15l-2.27-3.36.09-.4,1,.18a18.1,18.1,0,0,0-.26-3.3c-.33-1.22.31-1.76,1.13-2.31l2.27-1.53c-1.65-1.33-1.43-2.26.23-3.49A5.34,5.34,0,0,0,19,20.89a14.07,14.07,0,0,0,.44-2.22l1.62.19-.74-1.14,1.14.62.08-1.5L23,16.07l2.85.89-.93,1.83c.16,1,1.15,1.32,2.24,1.58s2.13.06,2.72,1.22c.07.15.43.24.65.22,1.19-.13,1.79.89,2.66,1.37.17.09.2.89,0,1.08-.74.73-1.6,1.35-2.26,1.89.23-.91-.56-1.09-1.29-1.21l-1,1.31-.2-.1.83-2.35-2,.91-.26-1.05-1.21,2.78.29.16L27.37,25l.47,1c-.42.35-.77.61-1.08.91s-.66.68-1,1c.45.95.85,1.89,2.15,1.76,1.06-.09,2.13-.13,2.72-1.25l.76.55-.67,1.19.57.07L30.7,32.7,33.55,31l.22.28L32,32.76c2.17-.33,1.79,1,1.8,2h.29l.52-1.3.11,0c1.39-.74,2.63,0,3.93.35a2.43,2.43,0,0,0,1-.11l.4-1.58,1.29,1.35c.18-.34.45-.64.45-.93s-.29-.55-.45-.83l.25-.18.9.84.2-1.62-.93.24,0-1.82-1.43.64c.59-1.64-.51-2.2-1.44-2.92a13.16,13.16,0,0,1-1.54-1.69A4.84,4.84,0,0,0,37,26c-.25,1.24-1.36,1.8-2.29,1.05a1.42,1.42,0,0,1-.14-1.25c.18-.52.91-1.05.81-1.42s-.85-.71-1.37-1.09c.09-.27.18-.53.25-.79a2.42,2.42,0,0,0-1.48-3.05c-.42-.21-.67-.76-1-1.15l1.15-.92-1.79-1.7-.39.48,1.23.82c-.5.24-.59,1.84-1.69.41-.11-.14-.83.19-1.42.05l1.25-1.15-.61-2.1c2.25-.56,4.62-.91,5.3-3.54.73-.2,1.46-.34,2.15-.6a1.66,1.66,0,0,0,.69-.74c.32-.53.56-1.09,1-1.88l.28,1c.1-1.63,1.34-1.55,2.42-1.76a2,2,0,0,0,1.15-.57c1.19-1.58,3-1.15,4.55-1.47a.29.29,0,0,1,.23.08c1.13,1.47,3.06,1.26,4.52,2.11.85.49,2.1.31,3.31.44,0,0,.19.56.49.68s1-.08,1.3.51c.19-.16.5-.3.53-.48.25-1.69.24-1.7,1.23-2.66l-.36,2.81.36.09,1.06-1.24.92.81.17-.22c-.22-.48-.43-1-.67-1.43-.42-.81-.9-1.6-1.3-2.42C58.5,3,58.32,2.36,58,1.74S57.77.61,58.55.39c.37-.11.73-.27,1.06-.39a4.64,4.64,0,0,1,1.2.91,15.56,15.56,0,0,1,2.66,5.3A11.6,11.6,0,0,0,64.93,9c.77-1.09.71-1.78-.19-2.45,2.58.83,2.57-.15,3.76-2.95l.32.06-.38,1.64L70.6,3.92c.11.8.49,1.16,1.33.58l.24.91h.19c.06-.47.33-1,.15-1.4C72,2.86,73,2.1,73.1,1.11c0-.12.58-.27.9-.28a2.84,2.84,0,0,1,.94.21c1.37.46,1.52.82,1.13,2.4a3.33,3.33,0,0,0,0,1.18,6.13,6.13,0,0,0,.31,1l-3.77.69L74,7l-.28,1.3.94-.11a3.29,3.29,0,0,1,.56,2.73c-.07.2.36.57.81.75l-.09-1c.84.29.81.76.73,1.42,0,.35.41.77.58,1.05.06,1.18.2,2.35.17,3.52,0,.66-.37,1.3-.44,2a14.55,14.55,0,0,0,.09,2c-.11,0-.5,0-.67-.12-1.14-1.07-1.12-1.08-2.11.15L74,19.9c-.64.25-1.5.2-1.29,1.38l.49-.52c.33,1.07.19,1.3-1,1.89L73.11,24l-.81.14h1l-1,1,1.49.49-.32,3.64.88,0-.37,2.22-.46-.29-1.23.92-.62-1.83a6.38,6.38,0,0,0-.47-1c-.39-.52-.85-1-1.25-1.5-.21-.28-.59-.67-.52-.91.38-1.4-.57-2.3-1.15-3.35-.3-.56-.58-1.15-.93-1.68-.46-.72-1-1.39-1.47-2.1a4.22,4.22,0,0,1-.64-1.25l-1.69-1.64c-.1,1.17-.21,2-.23,2.86s.39,1.15,1.05.66c0,1.21,0,2.47-.2,3.71a2,2,0,0,1-.82,1.17c-.16.11-.67-.23-1-.41a8.58,8.58,0,0,1-.71-.52,9.75,9.75,0,0,0,0,1.08c0,.12.17.23.1.14a13,13,0,0,0-1.14,1.58c-.59,1.16-1.12,2.34-2.43,2.89-.1,0-.17.15-.25.24l-1.51,1.9a6.56,6.56,0,0,0,.1,1.21,11.87,11.87,0,0,0,.61,2c.81,1.93,1.83,3.8,1.22,6-1.05-.31-1.05-.31-.69-2.49-1.13-.23-2.27-.44-3.41-.69-.28-.06-.69-.16-.76-.35a5.76,5.76,0,0,0-4-3.68l-.89,1.21,1.41.06c-.8.6-1.36.76-1.92.08l-1.41-1.67c-1.62,1.12-1.46,1-.44,2.33s2.55,2.26,2.93,4.16a2.48,2.48,0,0,0,2.23,1.47c1.09,0,2.18,0,3.33,0l.3,1.22a14,14,0,0,1,2-.54,1.38,1.38,0,0,1,.93.47,1.74,1.74,0,0,0,2.09.56c3-.82,4.13-3.38,5.78-5.47.57-.71,1-1.55,1.5-2.29.15-.2.66-.41.75-.33a3.33,3.33,0,0,1,1.06,1.29A7.65,7.65,0,0,1,69.26,39c0,.83-.16,1.67-.16,2.5a21.7,21.7,0,0,0,.18,2.28c-.59.33-.77,1.56-2,1.2-.12,0-.42.55-.74,1a4.39,4.39,0,0,0-1.7-.48,2.84,2.84,0,0,0-1.91,1,4.38,4.38,0,0,0-.48,2.6c.09.73,2.13,1.51,3.11,1.38l-.13,1.74L66.92,52l-.69,2.88-.31-.1-.85-1.58-.76,1.47-1.11-.12-.08.3.87.9-.48,1.58c1.22-.86.93-1.8.79-2.71l.8.76v3l-.38.06-.39-.51a3.41,3.41,0,0,0-.46.47,3.18,3.18,0,0,1-1.13,1L63,60.49,65.22,59l.39.68c-2.08.88-2.36,1.19-2.47,2.72l-2.51-2.57-.46.34a16.11,16.11,0,0,0,1.35,2.08c.28.33.87.38.87,1,0,.08.32.22.5.24,1.83.15,1.83.14,2,1.77a4.38,4.38,0,0,1,2.93,3.57,20,20,0,0,1-.18,2.89,1.26,1.26,0,0,1-.53.73c-.73.53-.81,1,0,1.45-.66,1-2,1.55-2.17,2.93-.11.76-.13,1.1.78,1.14a2.82,2.82,0,0,1,1.7.64c.31.3,1.6,1.12-.13,1.49-.19,0-.28.58-.59,1.25l-.57-1.8-.2,0c-.05.3-.1.6-.17.89A10.67,10.67,0,0,0,65.48,82a12.78,12.78,0,0,0-.07,2.62c.14,1.15.47,2.27.69,3.41.09.43.1.87.15,1.34,1.53.58,1.72.9,1.47,2.64a22.09,22.09,0,0,0-.42,3c0,1.3.12,1.34,1.51,1l-.41-.76,2-2,.26.23c-.11.22-.22.44-.19.37A9,9,0,0,1,71,95.13c.1.47-.58,1.13.35,1.42a3.77,3.77,0,0,1-.1.65c-.06.31-.26.67-.17.91a4.52,4.52,0,0,0,.76,1,4.06,4.06,0,0,0,.55-1c.23-1.11.34-2.24.58-3.34.07-.34.42-.62.81-1.15-2.89-.07-3.48-2.29-4.23-4.61L68.47,90.5l-.27-.15a9.84,9.84,0,0,0,2.88-6.95l-.85.45-.1-.11.52-.61a5.85,5.85,0,0,1-1.08-1.51c-.09-.27.42-.72.74-1.22-.55-.72-.23-1.41.37-2.23A6.29,6.29,0,0,0,71.3,76c0-.19,0-.5.06-.57,1.13-.72.87-2,1.12-3,1.78-.83,2.84,2,4.45.75.7,1.52,1.37,3,2.12,4.49.09.17.6.17.92.2a1.57,1.57,0,0,0,1-.2l2.39-.89c-.14-1.29-.23-2.81-1.72-4a3.74,3.74,0,0,1-1.52-3.48c0-.22.56-.36,1-.61l2-2.46,0,0c.47-.13,1.17.7,1.51-.52L86,67.15c-.09-.73.12-1.47-.82-1.74-.09,0-.17-.35-.13-.49a.54.54,0,0,1,.45-.15,9.36,9.36,0,0,1,1.12.33l0,1.29c.65-.32,1.43-.84,1.36.58l-1.09,0,.88,2.28-1.15.24.07-.9-1.3,1-.21-2c-.76.79-2.32.25-2.41,1.84l1.75-.82.17.35-1,1,.07.31A5.38,5.38,0,0,0,85,70.3c1.08-.36,1.29-.26,1.43,1.16l.68-1.31c.17.19.39.33.39.47,0,.45-.22,1.12.52.9.41-.11.73-.75.94-1.21a3.31,3.31,0,0,0,0-1.18h0l.18.28,2.33-.8-2.86,3.91a9.5,9.5,0,0,0,1.21-.4,10,10,0,0,0,1-.64L91.19,73l1.36.33c-.73,1-1.38,1.79-1.92,2.66a8.31,8.31,0,0,0-.53,1.73c1.78-1.2,3.58-1.14,4.86.24l-1.41-.51L92,80.15a5.72,5.72,0,0,0,1-.82,6.37,6.37,0,0,0,.56-1.22l.7,1.77,1.34-1.81.22.12c-.24.39-.5.77-.72,1.18s-.32.69.41.83c.5.11.89.77,1.34,1.2-.73.09-1.45,0-1.83.28s-.08,1-.11,1.62c-1.56.65.41,1.48,0,2.43-1-.59-2.44,1-3.49-.6l-1.52.7L90.27,87a3.56,3.56,0,0,1,1.34,0c.34.12.54.58.8.9l-.94,0-.89,0,1.48,1.71L93,88l.5,1,1.44-.39-2.75,4.6L94.39,93a2.49,2.49,0,0,1,2.89,2.51,6,6,0,0,0,1.36,4.23c1.07,1.13,2,2.7,3.88,2.88.35,0,.92.23,1,.44a1.42,1.42,0,0,1-.29,1.21,1.75,1.75,0,0,1-1.3.36c-.64-.1-.83-.12-1.25.46l-1,1.32-2-1.46-1,.81c-.94-1.48-1-1.49-2-.78a15.23,15.23,0,0,0-2.51-.22c-1.67.13-1.66.17-2.83-1.36.19,2-1.64,1.73-2.53,2.49-.64.55-1.47.79-1.21,1.94.09.39-.34.91-.56,1.36s-.56,1.06-.77,1.44c.66-.3,1.3-.63,2-.9s.91.09,1.31.61a4.3,4.3,0,0,0,2,1.36c.42.14,1.06-.33,1.56-.61a9.66,9.66,0,0,0,1.15-.92c.11.18.21.28.19.3-.6,1-.46,1.59.72,2.12a4.76,4.76,0,0,1,1.83,1.89,4.44,4.44,0,0,1,.26,1.72l-1,.6v0c-.81.77-1.41,1.88-2.55,1.6a11,11,0,0,1-.21,2.43c-.23.7-2.63,1.57-3.6,1.44.18-1.23-.66-1.38-1.59-1.46l-.14,5a2,2,0,0,1-2.42-.86c-.34-.37-.86-.82-1.26-.78s-.78.65-.9,1.09.25.8.4,1.2.5,1,.39,1.1c-.77.65-.61,2.36-2.26,2-.4-.08-1.14,0-1.19-.1-.31-1-.47-2-.71-3a5,5,0,0,0-.38-1c-.11-.24-.42-.45-.43-.68,0-1.15-.65-1.09-1.43-.74l-.46-.94-.2.08.49,1.7c-.16,0-.58.12-.57.17,0,.58-.17,1-.78.87-.3-.09-.48-.62-.77-1l-.47.37-1.82-2.38-5.27,2.09.09-.57a12,12,0,0,1-1.13-1c-.28-.32-.4-.78-.68-1.1a10.68,10.68,0,0,0-1.08-.92,4.81,4.81,0,0,0-.57,1.1c-.29,1.24-.13,2.3,1.33,2.71.1,0,.17.16.25.25s.06.15.1.22l-2.54,1.19.36-2-.13-.52-1.42.59c-1.86.71-2.3.42-2.3-1.6-.27,0-.61-.11-.81,0-1.65,1-3.12,0-4.67-.33-1.3-.3-.47-1.43-1.14-2a14.38,14.38,0,0,0,3.08-.46,3.61,3.61,0,0,1,2.62-.21c1.16.4,1.84-.23,2.36-1.21l-.29,1,1.72,0c-.44-.71-.65-1.37-1.08-1.6s-1.25-.3-1.22.7c0,.09-.23.21-.36.26a3,3,0,0,1-3.27-1.85c-.21-.77-2.18-1.8-3.35-1.76-1.62.07-2.34-.77-2-2.37.17-.74.45-1.45.66-2.13L50,111l-.35.48-.16-.08.23-.89-1,.45-.1-.16.75-.68a2.78,2.78,0,0,0-2.27-1.6,23.74,23.74,0,0,1-1.58,1.78c-.54.52-.91.93.25,1.16l-.74,1.4,1.53.22c-.15,1.31-.11,2.57-1.64,3.18l.3.21.74-.24-.12,4.32-.22,0,1.18,2.4-.44.21L46,122.2a7.27,7.27,0,0,1-1.14.37,1.43,1.43,0,0,1-.92-.13,6.94,6.94,0,0,0-3-1.11c-.79-.1-1.46-1.2-2.17-1.87-.15-.15-.16-.51-.32-.58-1.28-.59-.87-1.35-.32-2.2A16.24,16.24,0,0,0,39,115c-.85.54-1.47.89-2,0-.08-.15-.64,0-1.33,0,.08-1.42.16-2.88.25-4.35ZM88.46,85.52l1.31-.63c-.6-.06-.86-.08-1.11-.12-.69-.1-1.67.17-1.41-1.16,0-.12-.63-.36-1-.55.72,2.17.72,2.17,2.22,2.46.32.93-.1,1.19-.84,1-.54,1.19.06,1.77,1.06,2.24L89.23,86ZM78.22,92.15,76,92.66a16.89,16.89,0,0,0,1.76,1.49,1.1,1.1,0,0,0,1-.06,1,1,0,0,0,.27-.86c-.07-.27-.43-.47-.64-.72a1.55,1.55,0,0,1-.19-.36,3,3,0,0,0-2.88-3.57L75,91.2l1.63.67.59-.8Zm-4.47,19.23L72,112.52a2.93,2.93,0,0,1-3-.25,1.14,1.14,0,0,0,.13.84c.14.24.51.41.53.63,0,1,0,2.09,0,3.12,0,.46.29,1.13.63,1.27a1.57,1.57,0,0,0,1.45-.28A19.75,19.75,0,0,0,73,114.91s-.06-.13-.1-.23l-.5.25a8.15,8.15,0,0,1,.65-1.25c.29-.76.46-1.56.69-2.35a8.43,8.43,0,0,0,1.12.18c.06,0,.25-.39.2-.46s-.52-.52-.57-.48A5.2,5.2,0,0,0,73.75,111.38ZM43.57,75.14c.25,0,.6,0,.75-.18.49-.54.86-1.2,1.38-1.71.18-.17.89-.18,1,0,.73,1.33,1.4.66,2.13,0A10.32,10.32,0,0,1,50,72.46a1.16,1.16,0,0,0,2,.09c-1.51-1-1.48-3.53-.67-4.82a1.77,1.77,0,0,1,2.29-.84l2.23.77a2.77,2.77,0,0,0-1.51-2.53c-.83-.59-1.19-1.93-2.64-1.51l.12-.45,2.61.41c-.48-1.34-.91-2.32-2.23-2.67A18.34,18.34,0,0,1,50,59.85a2.29,2.29,0,0,0-1.43-.21c-1,.33-1.2-.17-1.22-1,0-.57,0-1.14,0-1.55l-2.19-.56-.45,1.26-.7-.29-1.2,1.64.41,1.41c.3-1.66,1.65.28,2.08-.66l.22.25-.91.76c.06.18.14.44.24.7.61,1.73,1.42,1.94,2.91.84.94-.69,2-.35,3-.09.09,0,.16.13.31.27l-1.38,0,.44,2.49c-1.64-.29-1.52,1.59-2.52,2.4-.28-.27-.51-.53-.78-.75-1-.82-1.69-.67-2.29.41-.42.75-.9,1.48-1.36,2.21,1.2.52,1.24.69.63,1.81-.35.65-.54,1.31.91,1.28l-2.18,2.14c1.09.07,1.09.07,1,.57l-1.43.19.59,1.3Zm.28-27.42a1.72,1.72,0,0,0-2.58-.63c-.75.41-1.69.47-2.45.85s-1.15.36-1.27-.53a4.62,4.62,0,0,1,0-.91l-.34-.06a15.87,15.87,0,0,0-.33,1.64c-.12,1-.33,1.9-1.46,2.19-1.78.45-3.48-.12-5.16-.33a8.13,8.13,0,0,1,.9-2.57c.46-.57,1.4-.76,2.27-1.18l-1.16-.84,1.21-.3,0-.29L32,44.6l-1.41-3.12-.39,0-.74,2.85-3.05-.69a8,8,0,0,1-1.08-1.46c-.36-.77-.57-1.59-1.64-1.92,0,.4-.12.76,0,1a5.43,5.43,0,0,1,.4,4.89c-.24.58-.17,1.62-1.36,1.53-.76,0-1.23,1.3-2.21.56-.64,1.17-1.15.17-1.74-.08s-1.36-.72-1.74-.33l-.13,4a7.12,7.12,0,0,0-.56-.64c-.18-.19-.4-.35-.67-.59l-.6,1.08c2.26,1.5,2.28,1.5,3,.1l1,.19.49,1.74-2.14-.85c.87,1.82.86,1.81.17,3.54a16.63,16.63,0,0,0-.46,1.71,6,6,0,0,0-1.5-.26,7.89,7.89,0,0,0-1.59.38,6.53,6.53,0,0,0-.35,1.09,7.15,7.15,0,0,0-.09,1.9c0,.22.61.35.94.53s.77.34.76.46c-.07.54.21.54.6.64,1.38.33,2.75.71,4.12,1.07l-.19,1.55.61-.75,2,1.47.41,3.25c1.19-.27,2.32-.55,3.46-.79,1.4-.29,2.34-1,2.17-2.81l-3.17,1.87c-.13-1.08-.13-1.08,1.61-1.77a24.54,24.54,0,0,1-2.1-1.34,34.67,34.67,0,0,1-3-2.55,4.77,4.77,0,0,1-1.29-1.9c-.44-1.46-.65-3-1-4.5a1.35,1.35,0,0,1,.74-1.76c.11,0,.2,0,.24.1.86.88,1.7,1.81,3.12,1.47.88-.2,1.75-.55,2.65-.68a4.68,4.68,0,0,0,3.28-2c.19.16.45.48.55.44.94-.41,1.3.21,1.66,1,.55-1,1.24-.52,1.91-.3.52.17,1,.31,1.73.51L35,52.65l3.3-.43A4.42,4.42,0,0,0,40,56.13l-.57-1.42c1.16-.15.7-.93.45-1.67l3.94.92-.45-1.34a20.6,20.6,0,0,1,2.5.74c1.06.47,1.39.37,1.68-.77a.86.86,0,0,1,.32-.39c.57-.47.59-.89.05-1.44-.4-.4-1-1-.94-1.4.28-1.4-1.28-2.23-.95-3.58l-.16-.05c-.38.42-.82,1.23-1.07,1.17C43.87,46.69,44.14,47.47,43.85,47.72ZM21.37,91.92l3.23-.87,0,.2-.94.78.21.38,1.22-.59-1.39,3.45-.54-1.89c-.85,1.92-1.87,3.28-3.62,3.71,1.53,1.09,2.93.46,4.18-.28,1.82-1.09,4-1.62,5.51-3.19.52-.53,1.28-.84,1.71-1.41.55-.74.77-1.72,1.33-2.45a5.19,5.19,0,0,0,1.21-3A6.23,6.23,0,0,1,34,85.25l-.42-.5a2,2,0,0,1,1,.23c.31.09.81.18.95,0a30.49,30.49,0,0,0,2.94-3.59,4.89,4.89,0,0,0,.43-2.35c0-1.29,0-2.58-.13-3.86a.94.94,0,0,0-.47-.73,16.08,16.08,0,0,0-2.11-.25l-.71.83,1,.45c-3.1,2.12-3.26,2.33-3.15,4,1.47-.07,2.12.86,2.22,2.36-1,.78-2.16,1.68-3.29,2.66s-2.16,2-3.27,3c-.52-1.08-2.24-.73-3.23.48l-1.89-.7c-.72-1.4.7-1.79,1.1-2.35a8.31,8.31,0,0,0-1.42-.06c-.4.06-1,.2-1.13.47a26.64,26.64,0,0,0-.81,3.07l.39.08.22-1,.31-.16a5.55,5.55,0,0,1,.86,1.44c.15.66-.41.62-.92.7C21.61,89.6,21.12,90.83,21.37,91.92ZM76.7,95.61c-.4,2.2.85,4.37.15,6.57v-1.06A4,4,0,0,0,75.67,103c-.17,1.47-.11,3-.14,4.34l.41-.14c-.18,1.59-.35,3-.54,4.68l2.15-.64-1.38,1.27a13.42,13.42,0,0,1,2.09,1.89,7.16,7.16,0,0,1,.8,2.19c.46,1.57.87,3.15,1.35,4.71a9.55,9.55,0,0,0,.72,1.47l-.34.46c.19.13.42.4.56.36a15.24,15.24,0,0,0,1.67-.72l-1-.37c.9-1.2.83-2.22-.28-2.87l.28,1-.27.15c-.26-.4-.71-.77-.75-1.19-.14-1.46-.15-2.94-.2-4.48a3.53,3.53,0,0,1-.74,0,5.35,5.35,0,0,1-.74-.25c1.28-.36,1.31-.42,1.06-2.13l-.86,1.18c.2-1.2.16-2.2,1.18-2.85.21-.13.22-.81.12-1.17s-.66-.84-.73-1.3c-.33-2.08-.56-4.17-.85-6.26a8,8,0,0,1-.36-2.05C79.19,98,78.63,96.69,76.7,95.61ZM49.43,78.34c-1.44.58-1.63,2.25-.49,3.45H47.83c-.95.72,1.64,1.86-.41,2.42l-.28-1.29c-1.29,1.2-2.42,2.21-3.48,3.29-.13.12.15.64.28,1.13L45,86l-.26.18c.21.66.7,1.37.58,2-.31,1.56-.38,3.46-2.08,4.2-1.85.8-1.77,2.15-1.53,3.74a21,21,0,0,1,7-7.15,7.71,7.71,0,0,1,2.1,4.58,26,26,0,0,0,.52,2.63c.82-2.09-1.06-7.41-2.43-8-.08-.79-.18-1.54-.2-2.29a1.74,1.74,0,0,1,.28-1c.5-.8,1.08-1.55,1.58-2.35a1.14,1.14,0,0,0,.12-.91,20.09,20.09,0,0,0-1.08-1.91l1.32-.11c-.59-1.61-1.11-3-1.66-4.57l-1.49.76,1,.22L48,78.14Zm.26,28.87c.12-1.4.79-2.51,0-3.66-.1-.14-.07-.57,0-.63.89-.53,1-1.39,1.14-2.28.23-1.19.62-2.35.91-3.41a10,10,0,0,1-2.48-.1,1.65,1.65,0,0,0-2.36,1.18c-.05.23-.19.55-.36.61-.75.24-.76.54-.24,1.08a2,2,0,0,1,.26,2.92,8.56,8.56,0,0,0-.77,1,1,1,0,0,0-.18.73,2.4,2.4,0,0,0,2.27,1.21ZM62.23,84.73c-.38.24-.55.29-.63.4-1,1.42-2.19,2.19-3.93,1.14-.08,0-.57.33-.65.57-.32,1.08-.46,2.22-.87,3.27-.34.88.15,1.29.68,1.68.93.69,2.07,1.15,2.29,2.48a4.1,4.1,0,0,0,.14.5,2,2,0,0,0,.4-1.33c0-.39-.34-.78-.32-1.16a15.93,15.93,0,0,0,.29-2.79c-.17-1.15.42-1.51,1.38-1.73l-.61.67a10,10,0,0,0,.82,1.41,3.17,3.17,0,0,0,.9.58,3.33,3.33,0,0,0,.56-1.09,9.78,9.78,0,0,0,0-2.23C62.62,86.36,62.41,85.62,62.23,84.73Zm7.56,20.69.67-2.17-1.68-.33-.54,1.32-.95-.09c.21.28.45.5.41.56a6,6,0,0,0-.37,4c.64,2.38.64,2.33,3,2.29.82,0,.94-.36.9-1-.11-1.68-.2-3.36-.3-5l-.61.11Zm-28.86-1,.21-.23c1.59,1.43,2-.71,3.27-.93l-.39.92.12.1,1.53-1.47-.36-1.13c-.82.46-1.57,1.18-2.36,1.23s-1.55-.61-2.38-1l-.81,5.83a3.19,3.19,0,0,0,.93-.34,16.69,16.69,0,0,0,1.24-1.19Zm1.61-41a26.79,26.79,0,0,0-.07-3c0-.26-.59-.45-.91-.68-.17.29-.47.57-.48.86,0,1.08-.18,2-1.48,2.2-1-.6-1.36-2.08-2.91-2.06l1.61,3.08c.15-1.25.82-.94,1.48-.62A3,3,0,0,0,42.54,63.47ZM11.36,68.36h.48a18.78,18.78,0,0,0,1.7.94.66.66,0,0,0,.62-.25c.66-1.78.58-2-1.29-3ZM67.85,14.12l0-3c-.78-.1-1.73-.45-2.15.68-.13.34.15.83.25,1.24l.35,0,1-1.39L67,14ZM10.1,65.24l1.12.83,1.35-1.85L12.29,64l-.54.57c-1.18-.63-2.17,0-2.5,1.67ZM19,94.66l-.07-.36L15.6,95C16.66,96,17.8,95.73,19,94.66ZM56.41,47.32l-1.85,2.11.29.25,2.55-1.63Zm-1-32.57,0-1.26a14.77,14.77,0,0,0-1.41.73,2.51,2.51,0,0,0-.48.54,3.17,3.17,0,0,0,.79.16A7.59,7.59,0,0,0,55.44,14.75ZM40.21,109.47l.12-.24-1.27-1.39-1.23,1.21ZM61.06,19.23l1.61,1.18.21-1.73ZM12,66.68c-.63,0-1-.05-1.44,0-.61,0-.76.66-.33,1.27ZM37.11,63l-.66,2C37.28,64.67,38.32,64.45,37.11,63ZM56.39,16.46l.21,1.82,1.35-.9Zm-1.08,59.8-.08.38c.36.09.81.37,1.06.24s.53-.64.78-1l-.18-.2ZM89.88,93.33l-.24-1c-1.29,0-.62,1.06-1.06,1.5ZM53.22,25.63l-.24,0c.19.66.36,1.31.59,1.95,0,.06.38,0,.58,0a.7.7,0,0,0,0-.4C53.84,26.61,53.53,26.12,53.22,25.63ZM87.54,91.17l-.34,0a5.16,5.16,0,0,0,0,1.24c0,.16.45.24.7.36A2.66,2.66,0,0,0,88,92,3.56,3.56,0,0,0,87.54,91.17Z"/><path class="cls-1" d="M129.78,64.37l.59-.31.27.14a16.85,16.85,0,0,1-1.16,3c-.6,1-2.46.67-4-.33a5.93,5.93,0,0,0-2,0,22.18,22.18,0,0,0-2.73,1.33,6.72,6.72,0,0,1-.9.28l-.08-.33a7.67,7.67,0,0,0,1.27-.57,10.62,10.62,0,0,0,1.14-1.13c-1.32.32-1.32.32-1.49-.73l3,.45a1.76,1.76,0,0,0-.63-2.22,3.76,3.76,0,0,1-1.29-3.25c1.57.69,3.14,1.41,4.73,2,.26.1.66-.17,1-.27Z"/><path class="cls-1" d="M97.17,107.2c1.26-.44,2.09.12,2.39,2l.76-.84.38,1.19-.7,0c0,.12,0,.24,0,.27a1.87,1.87,0,0,0,2.68-.47,14.71,14.71,0,0,1,.85-1.44.9.9,0,0,1,.67-.23,1.77,1.77,0,0,0,.33,2.32c.88.75.47,1.55-.13,2.41l.77-.25.13,1.15c-.3.08-.76.09-.79.21-.44,1.58-2.09,1.29-3.23,2.13l-.31-3.1-2,1.2C98.91,111.43,96.5,109.89,97.17,107.2Z"/><path class="cls-1" d="M35.81,110l.15.49c-.07.31-.13.62-.21,1l-1.14-.15c1.18.82.35,1.72.08,2.51-.08.23-.68.28-1.12.44l.46.75-.31.18-.86-1.67-1.17,1c-.05-1.24-.13-2.38-.15-3.53,0-2.11,1.15-3.22,3.29-3.13Z"/><path class="cls-1" d="M77,4.85l.93-.78L80.2,5l.43,2.09L79.42,8l-.08.77a5.62,5.62,0,0,1-.91-.62A5.46,5.46,0,0,1,77.51,7c-.12-.21-.14-.68,0-.79C78.52,5.29,77.6,5.16,77,4.85Z"/><path class="cls-1" d="M82.69,61.79l-1.42,1.94-.61-1.6-3.79.53c.54-1.79,3.37-2.68,5.54-1.91l-.8,1.44Z"/><path class="cls-1" d="M112.5,104.4c-1.46-1.55-3-3.14-2.32-5.67l1.27,2.15,2.9,1.25Z"/><path class="cls-1" d="M83,66.22c-1.56.64-1.74.51-1.92-1.47,1.39,0,1.55-.15,1.45-1.54a.63.63,0,0,1,.19-.5.6.6,0,0,1,.53.06,5.72,5.72,0,0,1,.7.76l.33-1.15,1.22.15-2.06,2,.65.69-1.13,1Z"/><path class="cls-1" d="M119.41,48c1.15-.62,1-1.54.87-2.58-.07-.42.22-1.2.52-1.31a2.17,2.17,0,0,1,1.69.19,1.4,1.4,0,0,1,.22,1.37,39.12,39.12,0,0,1-2.92,2.68Z"/><path class="cls-1" d="M29.12,9l-.9-.44L28,9.72l-.31.13c-.13-.29-.37-.59-.34-.87.06-.64.13-1.7,1-1.37a23.61,23.61,0,0,1,3.62,2.1l-.17.56c-.85-.07-1.7-.12-2.54-.25C29.15,10,29.16,9.44,29.12,9Z"/><path class="cls-1" d="M87.08,37.6l.68-2.18.11.09,1.61-2.78-.2-.2c-.1,0-.19.11-.29.15s-.25.07-.71.19l1.81-2.11A2.59,2.59,0,0,1,89.58,34c-.38.38-.43,1.15-1,1.62A10,10,0,0,0,87.08,37.6Z"/><path class="cls-1" d="M125.82,72.68c1.31-.72,1.69.57,2.41,1,.2.12,0,.84,0,1.28l-.33,0-.36-.8-.91.17c-.39-1.27-2.25-1.92-1.37-3.61C125.82,70.9,125.82,70.9,125.82,72.68Z"/><path class="cls-1" d="M70.38,47.12a7,7,0,0,0-.3.88,4.85,4.85,0,0,0-.3,2c.27,1-.57,1.3-.9,1.88-.14.24-.85.15-1.34.22L70.13,47Z"/><path class="cls-1" d="M124.82,45.63l1-1.92,2,2.55-1.41.77-.84-2.36L125,45.8Z"/><path class="cls-1" d="M114.93,63.84l-.58.13.31-.86-1,0,.93-1.62c.43,1.17.81,2.1,2.29,1.83l-1.6,1.46Z"/><path class="cls-1" d="M29.15,13.87,26.72,16,25.56,14.2C27.06,15.18,27.69,12.78,29.15,13.87Z"/><path class="cls-1" d="M110.49,91.35l-1.26.61,1.18-2.26,1.68,1.57-1.28.84Z"/><path class="cls-1" d="M98.79,15.79l1.95-2.25c-.06.63-.09,1.22-.18,1.8C100.34,16.69,100,16.79,98.79,15.79Z"/><path class="cls-1" d="M91.82,20.18H90.19l.25-1.76-1-.55.44-.86Z"/><path class="cls-1" d="M104.53,14.31l-.92.17,1-.74c1.07,1.56,1.08,2.44.09,3.63l-.46-1.21.28.09a1.84,1.84,0,0,0,.21-.68A9.6,9.6,0,0,0,104.53,14.31Z"/><path class="cls-1" d="M60.72,31.48l-2.41.19,2.27-2Z"/><path class="cls-1" d="M104.93,89.42c-.37-.8-.38-1.51.48-2a2.28,2.28,0,0,1,.8-.11c0,.26,0,.59-.14.79A13.73,13.73,0,0,1,104.93,89.42Z"/><path class="cls-1" d="M104.74,18l.79.74-1.6,1.78-.39-.2Z"/><path class="cls-1" d="M112.67,105.09l1.82-2.26.48.39-1.82,2.26Z"/><path class="cls-1" d="M98.64,76.07l-1.42,1.65.09-2.44Z"/><path class="cls-1" d="M116.11,65.13l1.28-1.32.67,1c-.38.09-.86-.39-.87.61S116.59,65,116.11,65.13Z"/><path class="cls-1" d="M94.28,116.76a8.85,8.85,0,0,1,1,0c.37.06,1,.11,1,.29a4.77,4.77,0,0,1-.08,1.45c-.78-.69-1.4-1.22-2-1.77Z"/><path class="cls-1" d="M16.28,103.42a2,2,0,0,1,.6,0c.2,0,.5.18.53.31a.58.58,0,0,1-.91.53A15.2,15.2,0,0,1,15.33,103l1.06-.47Z"/><path class="cls-1" d="M89,69.13l-.93-.44c.27-.57.48-1,.7-1.48.85.42.85.42.19,1.93Z"/><path class="cls-1" d="M65.31,60.94l1-1.56.38.23C66.22,60.07,67,61.21,65.31,60.94Z"/><path class="cls-1" d="M29.76,106.6c.7,0,1.45-.19,1.52,1l-.75.21-.73-1.18Z"/><path class="cls-1" d="M46.9,71.59l.15.2,2.84-3.87a1.39,1.39,0,0,0-1.74,1A24.13,24.13,0,0,1,46.9,71.59Z"/><path class="cls-1" d="M43.84,47.68l.9,1.24-1.35,1.84.89.94-1,.84c-.28-.28-.7-.51-.82-.85s-.19-1.07,0-1.23A3.25,3.25,0,0,0,43.84,47.68Z"/><path class="cls-1" d="M21.18,62.38c-.84,0-1.79.44-2.17-.76C19.5,62.68,21,60.08,21.18,62.38Z"/><path class="cls-1" d="M46.9,71.59A24.13,24.13,0,0,0,48.15,69a1.39,1.39,0,0,1,1.74-1l-2.84,3.87Z"/></g></g></svg>