<svg xmlns="http://www.w3.org/2000/svg" viewBox="0 0 199.73 267.01"><defs><style>.cls-1{fill:#f2ca15;}.cls-2{fill:#0f2717;}.cls-3{fill:#fff;}.cls-4{fill:#737373;}.cls-5{fill:#4c4c4c;}.cls-6{fill:#3e3e3e;}.cls-7{fill:#042a32;}.cls-8{fill:#a7a7a7;}.cls-9{fill:#373737;}.cls-10{fill:#8d8d8d;}.cls-11{fill:#404040;}.cls-12{fill:#3a3a3a;}.cls-13{fill:#646464;}</style></defs><title>Asset 1</title><g id="Layer_2" data-name="Layer 2"><g id="Layer_3" data-name="Layer 3"><path class="cls-1" d="M83.52,0H84c.86,3.88,1.42,7.74-.5,11.5C81.18,11.77,82.39,9.86,82,9L82,7,82,3Z"/><path class="cls-2" d="M197.53,131l-2-1-1-1.42-3.46-3.48-.08-.58c2.09.24,3-.9,2.39-2.91-.3-1-.52-2-.78-3l1-.06c3.12-.1,5.08,1.38,6.19,4.78L194.64,120l-.3.41L199,124.5c-.29.62-.59,1.23-.86,1.81l-2.53-1.9Q196.59,127.7,197.53,131Z"/><path class="cls-2" d="M191.05,125.09l3.46,3.48a24.87,24.87,0,0,1-4.6-1c-1.28-.51-2-.31-2.18.93a30.72,30.72,0,0,0-.2,4,3.67,3.67,0,0,0,0,.46l-.77-4.07c-.43,1.5-.8,2.81-1.18,4.12l0-2.51.54-6,3.42.16Z"/><path class="cls-3" d="M187,95l-1,1-4.13.42c.32-1.91-1.16-1.48-2.11-1.52-2.06-.09-4.12,0-6.2,0L178.7,93l3.82.49Z"/><path class="cls-2" d="M182.52,93.5,178.7,93l-.26-.45-.45-2,1.6-.57L184,92.49Z"/><path class="cls-2" d="M188,97l6.56,4-.23.57-4.9,1.06-1.48-.08a2.93,2.93,0,0,0-.41-.07l2.92-1.87-3.25-.71-1-.56,1.3-.82Z"/><path class="cls-2" d="M191.35,103.09l-1.71,1.31-.66.16-3.89-1,2.88-1,1.48.08Z"/><path class="cls-3" d="M188,97l-.51,1.51c-2-.68-3.72-2.18-6-1.46l.44-.61,4.13-.42Z"/><path class="cls-2" d="M191.05,125.09l-1.57-.41a12,12,0,0,1-4.45-6.83c-.17-.56-1-.92-1.53-1.36-.17-.68-.33-1.35-.5-2l9,.54,2.94,1,.5.9-2.63.19.71,1.4-1,.06-1.8.09a23.36,23.36,0,0,0-.57,3.64,7.5,7.5,0,0,0,.76,2.22Z"/><path class="cls-2" d="M195,116,192,115l0,0,2.87-.37V113l2.13.94-.06,2Z"/><path class="cls-2" d="M81.5,15.5V14c.16-1.68.31-3.37.47-5.05.42.91-.79,2.82,1.55,2.55l0,1.5,0,4-2.18,3H78.51L75,20c1.18-.34,2.39-.6,3.52-1C80.05,18.3,81.58,17.58,81.5,15.5Z"/><path class="cls-2" d="M88.94,172l.45.55c-.62,4.06-1.29,8.1-1.86,12.16-.4,2.78-.81,5.56-.93,8.35a15.77,15.77,0,0,0,.87,4q-.68,6.75-1.34,13.51l-1.58-1.1a3,3,0,0,1-.08-.43v-1l0-5,.61-1.56-1.08-3,2.66-.91-1.16-.6c-.52-1.49-1-3-1.55-4.48l1-5c.62-2.28,1.25-4.55,1.84-6.83,0-.18-.18-.43-.27-.66-.88-1.59-1.63-3.19-.48-5Z"/><path class="cls-2" d="M86.09,214.46l.44,1.55c-.32,1.16-.64,2.31-1,3.47l-2,0,.6-.76L82.5,215v-1C83.93,212.45,85,213.9,86.09,214.46Z"/><path class="cls-2" d="M86.09,214.46c-1.14-.56-2.16-2-3.58-.48l-1.42-2.11c.83-1.46,3.57.19,3.46-2.4l1.58,1.1C86.11,211.87,86.1,213.16,86.09,214.46Z"/><path class="cls-2" d="M91.53,160.5c-.2.81-.39,1.61-.59,2.41-.46,2.53-.93,5.06-1.39,7.59-.2.5-.41,1-.61,1.49L86,175c-.24-.61-.46-1.76-.71-1.76-2.42-.06-2.31-2.43-3.45-4h5.7l.16-.84-2.22-.91-1-3,3.51-.35,1.24-2.43L87,161l2-1.49,0-1.05L91.41,160Z"/><path class="cls-2" d="M30,148l-1.8,2.26-2.33-.33,2.4-2.92H26c.33-1,.65-2,1-3-.09,2.49,1.35,1.55,2.15,1.5L30.51,147Z"/><path class="cls-2" d="M30.51,147l-1.35-1.51c-.8.05-2.24,1-2.15-1.5l.48-.51c.27,1.56,1,.77,1.66.33s1.53-.89,2.3-1.33c.19.34.38.68.56,1,0,.16,0,.32,0,.48Z"/><path class="cls-2" d="M31.45,142.47c-.77.44-1.55.86-2.3,1.33s-1.39,1.23-1.66-.33l2.1-3.44L30.5,139a4,4,0,0,1,.49,0l1.07,2Z"/><path class="cls-2" d="M12.14,101,16,99.91h.49l.95-1L20,98l2,.55.49,1.5c-1.53.31-3.52-1.34-4.58.89-.79,1.66-1.78,1.28-2.94.61Z"/><path class="cls-1" d="M12.14,101l2.86.52-4.82,1.6L8,102l1.5-1Z"/><path class="cls-2" d="M10.18,103.1,15,101.5c1.16.67,2.15,1,2.94-.61,1.06-2.23,3-.58,4.58-.89l2,.5-3,4.5-1.28,2.51-.66-.69,1.82.78L20,108c-1.37-.63-2.44-.51-3.27,1-.29.5-1.15.69-1.75,1-.29-.25-.57-.69-.89-.73-2.33-.27-4.66-.47-7-.69l4.36-1.34-.1-.54H6.41l2.23-1.61,4.07-.44,0-.46-4.53.2Z"/><path class="cls-3" d="M6,117l-1-4.49.55-.51h1c1.3,2.43,1.6,5.49,4.45,7.32l-2.05,3.2-2.42,2-1.29.31L7.51,122C9.3,119.91,8.71,118,6,117Z"/><path class="cls-2" d="M5.49,109l1.09-.42,1.84,2.92L6.54,112h-1L3,110Z"/><path class="cls-1" d="M185.55,133l-1.05,2c-.35.79-.7,1.58-1.06,2.37-.16-1.92-.32-3.83-.47-5.75l-.45-3.08,1-1.52V124.1H184v8.82l1.5-2.41Z"/><path class="cls-1" d="M191,124.51a7.5,7.5,0,0,1-.76-2.22,23.36,23.36,0,0,1,.57-3.64l1.8-.09c.26,1,.48,2,.78,3C194,123.61,193.06,124.75,191,124.51Z"/><path class="cls-2" d="M185.52,130.5c-.37.58-.73,1.17-1.5,2.41v-8.82h-.51V127l-2,.39V122c0-.45-.12-1.17.1-1.3,1.59-1,2.81-.61,3.38,1.27l1.07,2.53Z"/><path class="cls-1" d="M186.06,124.52c-.35-.84-.71-1.68-1.06-2.53l-1.5-5.51c.53.45,1.36.81,1.53,1.37a12,12,0,0,0,4.45,6.83Z"/><path class="cls-2" d="M181.93,96.44l-.44.61c.47,2.09,1.46,3.51,3.92,3l1.6.85c-1.39.07-2.29.07-3.17.2-.15,0-.22.6-.33.92l-.49,1-6.35-.56c1.53,2.17,1.92,2.3,6.85,2.56-2.15,4.26,2.64,4,3.84,6.38L181,110l-5.48-5.52A13.24,13.24,0,0,0,174,103c-2.63-1.85-5.29-3.65-7.94-5.47-1.76-.85-3.57-1.62-5.27-2.57-.63-.35-1.48-1.18-1.41-1.66s1-1.28,1.65-1.53a11.18,11.18,0,0,1,2.69-.25c1.79-.15,3.58-.32,5.37-.49.1,1.2.1,1.19-1.15,1.44s-2.33.51-3.5.77l.21.74c2.65.67,4.82-.5,6.92-1.95l6.92.55.26.45-5.08,1.88c2.08,0,4.14-.06,6.2,0C180.77,95,182.25,94.53,181.93,96.44Z"/><path class="cls-2" d="M178.44,92.56,171.52,92l1.93-1.54.19.14,4.35-.09Z"/><path class="cls-2" d="M181,110l6.37,1.35c-1.2-2.43-6-2.12-3.84-6.38-.17-.67-.34-1.33-.5-2l.49-1,4.05.46a2.93,2.93,0,0,1,.41.07l-2.88,1,3.89,1c1.13,2.82-1.88,1.3-2.65,2.54l4.22.87,1.46.58c-.24.25-.51.74-.72.71-1.6-.18-3.19-.46-5.3-.79,2.34,1.7,4.21,3.06,6.64,4.81h-3.29l-.11.39,2.84,1.31,0,0-9-.54-.41-.45C182.06,112.68,181.52,111.35,181,110Z"/><path class="cls-2" d="M185.41,100c-2.46.52-3.45-.9-3.92-3,2.3-.72,4.06.78,6,1.46l-1.3.82,1,.56Z"/><path class="cls-2" d="M185.41,100l1.82-.15,3.25.71-2.92,1.87-4.05-.46c.11-.32.18-.89.33-.92.88-.13,1.78-.13,3.17-.2Z"/><path class="cls-3" d="M192,108.55l-1.46-.58,3.19-1.26-2.27-2.16c2.45.85,5.67.41,6.5,3.93l-2.08.52Z"/><path class="cls-2" d="M191.47,104.55l2.27,2.16L190.55,108l-4.22-.87c.77-1.24,3.78.28,2.65-2.54l.66-.16Z"/><path class="cls-2" d="M182.59,114l.41.45c.17.68.33,1.35.5,2L185,122c-.58-1.88-1.8-2.23-3.39-1.27-.22.13-.08.85-.1,1.3L180,124c-.17-.34-.35-.68-.53-1v-1c.46-1.46,1.56-2.93.47-4.36l-1-.07-1,5.91L176,126c-.16-.63-.32-1.26-.49-1.89l1.9-6.31-3.9,1.72c.76-3.26.79-6.83,4-9,1,.81,2,1.66,3,2.41A17,17,0,0,0,182.59,114Z"/><path class="cls-2" d="M84.52,21c1,3.13,2.85,6,2.51,9.49a11.92,11.92,0,0,1,1,2.68c.27,2.6.37,5.22.54,7.83a24.91,24.91,0,0,1,.23,4.3c-.26,2.41-.8,4.8-1.23,7.2-.63,1.86-1.36,3.7-1.83,5.6-.17.64.3,1.45.49,2.17.09.33.37.75.25.94a1.35,1.35,0,0,1-.94.41,14.5,14.5,0,0,1-1.73-.06L85,65l-2,2H81a21,21,0,0,0,1.06-1.91c0-.1-.36-.39-.55-.59a11.34,11.34,0,0,1-.85-2.36c-.08-.49.51-1.06.51-1.59,0-3.35-.11-6.7-.17-10L82,44l.51,10.49,1,3.2.64-.05c.8-4.34,2.31-8.58,1.41-13.15l.51-3c.26-1.75.85-3.54.72-5.26-.24-3.25-.9-6.47-1.39-9.78-.22-.32-.74-.76-.78-1.23C84.46,23.83,84.52,22.42,84.52,21Z"/><path class="cls-2" d="M84.52,21c0,1.42-.06,2.83.06,4.24,0,.47.56.91.78,1.23.49,3.31,1.15,6.53,1.39,9.78.13,1.72-.46,3.51-.72,5.26,0-.36-.09-.71-.16-1.27l-1.14,1.6V31.29l-.59-.24c-.7,1.54-1.81,3-2,4.62A70.22,70.22,0,0,0,82,44c-.33,2.16-.67,4.32-1,6.49h-.49c0-8.53,0-17.07,0-25.61A26.34,26.34,0,0,0,80,21.5L78.51,20h2.83l2.18-3C83.85,18.33,84.18,19.67,84.52,21Z"/><path class="cls-2" d="M192,108.55l3.88.45.89,1.18-3.13.54,2.6,1.55h-2.89l1.58.77v1.57l-2.87.37-2.84-1.31.11-.39h3.29c-2.43-1.75-4.3-3.11-6.64-4.81,2.11.33,3.7.61,5.3.79C191.5,109.29,191.77,108.8,192,108.55Z"/><path class="cls-2" d="M78.51,20,80,21.5q-.33,6.16-.65,12.32l-.51-.08c.21,2.28.45,4.61.63,6.95.11,1.37.13,2.76.2,4.14s.94,3.31-1.5,4L79,51l-.8,1.07c-.47-.54-1.3-1.05-1.36-1.64-.29-2.93-3.23-5.68-.62-8.86.29-.35-.11-1.26-.2-1.92a10.85,10.85,0,0,1-.25-2c.13-2.49.42-5,.44-7.46,0-.58-.78-1.17-1.21-1.75-.35-2.19-.71-4.37-1.06-6.56L74,20,75,20ZM78,28a16.09,16.09,0,0,0,.61-3.7,7.53,7.53,0,0,0-1.22-2.89c-.1-.18-1.22-.08-1.28.08a4.44,4.44,0,0,0-.4,2.56A27.35,27.35,0,0,0,78,28Z"/><path class="cls-3" d="M76.08,209l-.57-2.5c.56-.76,1.54-1.49,1.59-2.27.12-1.86-.3-3.75-.32-5.62a6.55,6.55,0,0,1,.73-2.11L81,196a17.81,17.81,0,0,0,.93,2.84c.77,1.46,1.3.93,1.59-.34h.52l1.08,3-6.4.85c2.14,2.53,4,1.31,5.79.71,0,1.66,0,3.32,0,5H84c-1.29-.71-2.73-2.36-4-.33C79,209.43,77.67,209.38,76.08,209Z"/><path class="cls-2" d="M79.45,168.38l.07-1.88,2-3.49.5,1.49-.18,1.61h2.87L82,167.43c1.94,1.16,1.94,1.16,3.56.08l2.22.91-.16.84h-5.7c1.14,1.57,1,3.94,3.45,4,.25,0,.47,1.15.71,1.76-1.15,1.79-.4,3.39.48,5l-2,1.52c0-.17,0-.33,0-.49,2-.58,1-1.17,0-1.83-1.73-1.19-3.62-1-5.53-.69l.41-3.19c1.43-.39,1.59-1.43.83-3.08A17.88,17.88,0,0,1,79.45,168.38Z"/><path class="cls-2" d="M76.08,209c1.59.38,2.88.43,4-1.33,1.25-2,2.69-.38,4,.33.15.35.29.7.44,1a3,3,0,0,0,.08.43c.11,2.59-2.63.94-3.46,2.4L82.51,214c0,.34,0,.67,0,1L82,215l-4,.46-.83.49-1.75-4.54Z"/><path class="cls-2" d="M77.51,196.5a6.55,6.55,0,0,0-.73,2.11c0,1.87.44,3.76.32,5.62,0,.78-1,1.51-1.59,2.27q.28-7,.56-13.91c.49-1.86,1-3.72,1.48-5.58h1c.06.91,0,2.58.21,2.61a7.68,7.68,0,0,0,3.54-.19c.71-.25,1.15-1.26,1.71-1.93H85c-.31,1.67-.63,3.34-1,5H81.52C76.94,192.07,76.36,192.65,77.51,196.5Z"/><path class="cls-3" d="M85,187.49H84c-.61-.33-1.21-.91-1.83-.92a23.79,23.79,0,0,0-3.63.43h-1l0-5.51L79,183c1.09,2.51,3.19,1.65,4.93,1.22.4-.09.4-1.78.59-2.73l2-1.52c.09.23.32.48.27.66C86.2,182.94,85.57,185.21,85,187.49Z"/><path class="cls-2" d="M77.51,196.5c-1.15-3.85-.57-4.43,4-4a5.44,5.44,0,0,0,4,4.48l1.16.6-2.66.91h-.52c-.37-1.31-.5-2.85-2.52-2.5Z"/><path class="cls-1" d="M85.55,197a5.44,5.44,0,0,1-4-4.48H84C84.52,194,85,195.49,85.55,197Z"/><path class="cls-2" d="M84.52,203c-1.81.6-3.65,1.82-5.79-.71l6.4-.85Z"/><path class="cls-4" d="M84.47,209c-.15-.34-.29-.69-.44-1h.45C84.47,208.34,84.47,208.69,84.47,209Z"/><path class="cls-1" d="M82,215l.52,0,1.62,3.75-.6.76-2,.93L83,222.51,78,223l-2.16-2.16-.85-6.9.45-2.47L77.17,216l.83-.49c-.13.8-.54,1.69-.32,2.38a8.53,8.53,0,0,0,1.6,2.23c.53-.44,1.29-.79,1.54-1.36A28.55,28.55,0,0,0,82,215Z"/><path class="cls-2" d="M83,222.51l-1.47-2.08,2-.93,2,0,.06,3.58Z"/><path class="cls-2" d="M86.46,224.52c-.17,1.8-.33,3.61-.5,5.41l-3.44.08a2.61,2.61,0,0,0-.92-.19c-2.17.34-4.34.72-7.14,1.21,1.13-1.93,4.53-.51,3.06-3.53a6,6,0,0,0,1.88.42A1.11,1.11,0,0,0,80,226l3.12-.82,2.91-.73Z"/><path class="cls-2" d="M86.06,224.44l-2.91.73L80,226c-.53-1.88-1.44-3-3.6-1.93-.37.18-.93,0-1.41-.06l3-1,5-.46,2.62.55C85.77,223.52,85.91,224,86.06,224.44Z"/><path class="cls-2" d="M87,231.55l-.44,1c-1.41,2-3.35.89-5,.75-1.87-.16-2.78.73-3.81,2.47,1.57.18,2.78.26,4,.5.19,0,.24.81.35,1.25l-1.93.44-.12.67,2.62,1.75L79,242.5H79l-.88-3.7-1.08.05L76.49,244l-2.94.52-.15-.07c0-1.33,0-2.66,0-4,.38-.53,1.17-1.12,1.1-1.58-.76-5,1.38-7.41,6.32-6.93.41,0,.83,0,1.24,0,1.71.65,2.87-.2,3.91-1.41Z"/><path class="cls-3" d="M86,230.55c-1,1.21-2.2,2.06-3.91,1.41l.45-2,3.44-.08C86,230.14,86,230.35,86,230.55Z"/><path class="cls-1" d="M93.61,146q-.78,5.24-1.58,10.47l-3,0a2.37,2.37,0,0,0-2.15-2.77,9.69,9.69,0,0,1-2.39-1.23l.95-.1a6.29,6.29,0,0,0,2.39.37,2,2,0,0,0,1.18-1.57C88.47,146.89,89.19,146,93.61,146Z"/><path class="cls-2" d="M94,141.47l0,.53-.42,4c-4.42,0-5.14.85-4.55,5.21a2,2,0,0,1-1.18,1.57,6.29,6.29,0,0,1-2.39-.37c2-.53,2.61-2,2.73-3.81,0-.88.21-1.75.32-2.62a6,6,0,0,1,.8-1.91c3.34-3.74-.38-2.34-1.84-2.58V141l2-2,2-.51,2,0Z"/><path class="cls-2" d="M89.08,156.55l3,0c-.2,1.17-.41,2.34-.62,3.51l-2.35-1.57C89.06,157.82,89.07,157.19,89.08,156.55Z"/><path class="cls-3" d="M89.08,156.55c0,.64,0,1.27,0,1.9,0,.35,0,.7,0,1.05-1.45-2.36-3.32-.27-5-.46.11-.67.22-1.33.35-2H81.47l1.11-6.37,1-4.61.46,0c2.86,2,2.67,4-.65,5.63l1.11.93a9.69,9.69,0,0,0,2.39,1.23A2.37,2.37,0,0,1,89.08,156.55Zm-1,.51.41-.53L87,154.71l-1.75,1.55.3.59Z"/><path class="cls-2" d="M82,164.5c-.17-.5-.34-1-.5-1.49L83,161.5l1.65.78L87,161l2.25.74L88,164.16l-3.51.35Z"/><path class="cls-2" d="M87,161l-2.36,1.29L83,161.5l-1.65-1.08L84.05,159c1.65.19,3.52-1.9,5,.46Z"/><path class="cls-1" d="M82,164.5h2.51l1,3c-1.62,1.08-1.62,1.08-3.56-.08l2.75-1.32H81.84Z"/><path class="cls-2" d="M74.59,215.53c0-.46,0-.91,0-1.37l.37-.25.85,6.9L78,223l-3,1c0,.65,0,1.3,0,1.94l-.93.56-.18-.52Z"/><path class="cls-3" d="M72.93,254l.17-.48a15.45,15.45,0,0,1,2-.91c.66-.19,1.72-.52,2-.22.42.45.31,1.39.43,2.12-3.35,3-3.58,6.93-3,11l-1-2C73.34,260.34,73.14,257.17,72.93,254Z"/><path class="cls-2" d="M79,183l-1.49-1.53v-1l1.51-2c1.91-.34,3.8-.5,5.53.69,1,.66,2,1.25,0,1.83C82.45,181.05,80,180,79,183Z"/><path class="cls-2" d="M79.54,164.5c.18-.79.35-1.59.52-2.39L81.47,157H84.4c-.13.72-.24,1.38-.35,2l-2.68,1.38L83,161.5,81.52,163l-2,3.49Z"/><path class="cls-1" d="M79,178.51l-1.51,2q1-6.06,1.93-12.11a17.92,17.92,0,0,0,.82,3.85c.76,1.65.6,2.69-.83,3.08Z"/><path class="cls-2" d="M32,144c1.84.86.9,2.26.7,3.52-.13.85-.21,1.7-.39,3.15L30,150.52c0-.85,0-1.69,0-2.54l.5-1C31,146,31.5,145,32,144Z"/><path class="cls-2" d="M9.51,129.93l-1.45,1.58-.9,1.38c.48-2.82,1-5.6,1.43-8.39l.8,0L10,125l-.48,4.06Z"/><path class="cls-2" d="M9.39,124.45l-.8,0-2.07,2-.51-1,.51-1,2.42-2Z"/><path class="cls-2" d="M17.52,133.5c-.39,0-1-.14-1.15.06-1.32,1.39-2.57.68-3.84,0l0-1,.06-.19c1-2,1.95-4,2.93-6L16,128l1,3Z"/><path class="cls-2" d="M9.51,129.93l0-.88,2-2,1,4v1.38l-.06.19C11.2,132.05,9.41,132.05,9.51,129.93Z"/><path class="cls-3" d="M23.05,129.56,22,134.43c-.49-.65-1-1.29-1.48-1.93L20,130.57l.12-.16c.16-.74.35-1.47.47-2.22a7.61,7.61,0,0,1,.34-2.4c1-1.72,2.18-3.31,3.46-5.19l1.55.42v-1.63L28,117l-.46,6.56c0,.16,0,.33,0,.49l-3.78-2.45.76,2.43-1.68,2c.17.48.44,1.24.7,2Z"/><path class="cls-2" d="M20,130.57l.54,1.93c-.16.5-.32,1-.49,1.5l-1.11-1c-.35.77-.62,1.39-.89,2l-.51-1.48c-.18-.83-.35-1.65-.53-2.48C18.17,132.1,19.17,132,20,130.57Z"/><path class="cls-1" d="M34.62,144l-.6-1.92-1.15-.92c-.28.77-.57,1.53-.86,2.3-.18-.34-.37-.68-.56-1,.21-.5.41-1,.61-1.49l5-3.5Z"/><path class="cls-2" d="M37.06,137.48l-5,3.5L31,139l7-8.52,1-.47,2.75-1,.78,4L44,136.05l-2.81-2.46-.69,1.93-.32-3.45-1.63,3.46Z"/><path class="cls-2" d="M73,248c0-.34,0-.67.08-1,.11-.85.23-1.7.34-2.56l.15.08c.16,1,.31,2,.47,3,.78,3.48,4.44,3.18,6.56,4.91.4.33,1.27.09,1.92.11L83,255l-1.92.72a7.26,7.26,0,0,1,2.23.92c.52.47.68,1.34,1.21,2.51V254l1.51-1,.5,0c.15,1.51.29,3,.43,4.53l.54,6c-.51.92-1,1.84-1.51,2.76.66-1.07,1-2.07-.48-2.76.06-1.8-.35-3.21-2.46-3.58-.54-.1-1.45-.8-1.4-1.07.55-3-1.7-2.13-3.15-2.35l-1-2c-.12-.73,0-1.67-.43-2.12-.28-.3-1.34,0-2,.22a15.45,15.45,0,0,0-2,.91Z"/><path class="cls-2" d="M30.51,81c1.61-1.27,3.32-2.19,5.48-1.53h.49l.06,1a16.38,16.38,0,0,0-1.83.76A17.84,17.84,0,0,0,33,82.49l-2-1Z"/><path class="cls-2" d="M20,98l-2.54,1,2.61-4.38.45-.07L21,96Z"/><path class="cls-3" d="M20.51,94.48l-.45.07c0-.18,0-.36,0-.54a14.58,14.58,0,0,1,.16-3.11c.13-.54.87-.94,1.34-1.41.16,1.16.32,2.31.49,3.46Z"/><path class="cls-2" d="M20,98l1-2,5-4,1.94.48L23.52,98,22,98.5Z"/><path class="cls-2" d="M22,98.5l1.49-.5,1.88.94,5.82.88,0,.68H24.54l-2-.5Z"/><path class="cls-2" d="M6.52,124.49l-.51,1-1.15.75L0,122.63,5,119l1.24.77-3,2.73.34.37,1.95-1.34.16.82L7.51,122l-2.28,2.8Z"/><path class="cls-2" d="M7.51,122l-1.84.35-.16-.82-1.95,1.34-.34-.37,3-2.73L5,119l1.05-.63c0-.66-.06-1-.08-1.37C8.71,118,9.3,119.91,7.51,122Z"/><path class="cls-2" d="M24.54,100.5h6.64l0-.68-5.82-.88c0-.17.08-.34.11-.5l3,0h6.05l2,.51-5.95,2.68-.83.86c3-.78,2.54.54,2.41,1.76s-.09,2.47-.12,3.71l-2.48-.32c-.14,1.78-.2,3.55-.46,5.3-.08.55-.67,1-1,1.55L27.51,105c.35-.8,2-1.35.5-2.53-.24-.19-.6-.6-.72-.54-1.94,1-3.85,2-5.77,3.06Z"/><path class="cls-2" d="M15,110c.6-.33,1.46-.52,1.75-1,.83-1.48,1.9-1.6,3.27-1l-1,.52c-1.26,2.69-2.53,5.38-4,8.45-.62-2.38-3.71-3.54-2-6.41Z"/><path class="cls-1" d="M19,108.51l1-.52,1.39-.39-1.82-.78.66.69L21.52,105c1.92-1,3.83-2.08,5.77-3.06.12-.06.48.35.72.54q-3.5,3.76-7,7.51Z"/><path class="cls-1" d="M15,110l-2,.57-4.44,1-.18-.06-1.84-2.92H7.1c2.34.22,4.67.42,7,.69C14.42,109.29,14.7,109.73,15,110Z"/><path class="cls-2" d="M9.39,124.45l-.45-1.93,2.05-3.2c-2.85-1.83-3.15-4.89-4.45-7.32l1.88-.53.18.06c.18.35.34,1,.56,1,1.87.2,2.23,1.16,1.78,2.85-.49,1.85.57,2.41,2.32,2L11.92,122l-.4.5L10,125Z"/><path class="cls-2" d="M176,126c.67-.83,1.33-1.66,2-2.48L179.5,122c0,.31,0,.63,0,1,0,2,0,4,0,6l0,1.12-.67,1.71c-.25-1.79-.41-3-.58-4.16h-.46l-.36,1.29C177,127.93,176.51,127,176,126Z"/><path class="cls-2" d="M179.53,130.05l0-1.12,3-.43.45,3.08Z"/><path class="cls-2" d="M182.52,128.5l-3,.43c0-2,0-4,0-6,.18.34.36.68.53,1l1.49-2v5.35l2-.39Z"/><path class="cls-5" d="M75,29l-1.47-7c.14,0,.28-.09.43-.12.35,2.19.71,4.37,1.06,6.56C75,28.66,75,28.84,75,29Z"/><path class="cls-3" d="M142,70.48l-2.51-2L148,71l.73,2L144,71Z"/><path class="cls-2" d="M132,93c6.56-.83,13.13-1.69,19.7-2.45a9.44,9.44,0,0,1,2.62.43h3.09l0,.48L153,93l-11.47-.5h-2c-.93.37-1.86.73-2.78,1.11-1.08.45-2.16.93-3.24,1.39l-.5-.07Z"/><path class="cls-1" d="M153,93l4.47-1.53,0-.48h-3.09L160,89a7.41,7.41,0,0,0,7,1.54l2,.5c-1.79.17-3.58.34-5.37.49a11.18,11.18,0,0,0-2.69.25c-.68.25-1.56.93-1.65,1.53s.78,1.31,1.41,1.66c1.7,1,3.51,1.72,5.27,2.57L157,95Z"/><path class="cls-2" d="M132,93l1,1.92-.48.15L132,95l-5,.54L121.53,97,121,97l-1.49-1,6.57-2.9L128,93h1Z"/><path class="cls-1" d="M167,90.51A7.41,7.41,0,0,1,160,89l8-1,1.51,1Z"/><path class="cls-2" d="M169.52,89,168,88c2.78-1,5.27.08,8,1.37l-2.38,1.24-.19-.14Z"/><path class="cls-3" d="M157,95l9,2.51c2.65,1.82,5.31,3.62,7.94,5.47a13.24,13.24,0,0,1,1.56,1.53c-.17.5-.34,1-.5,1.52l-2.48-1.54c-.55-.62-1-1.46-1.66-1.81-4.2-2.16-8.48-4.18-12.69-6.31C157.69,96.12,157.4,95.47,157,95Z"/><path class="cls-2" d="M169.52,89l3.93,1.47L171.52,92c-2.1,1.45-4.27,2.62-6.92,1.95l-.21-.74c1.17-.26,2.33-.53,3.5-.77s1.25-.24,1.15-1.44l-2-.5Z"/><path class="cls-3" d="M175,106c.16-.51.33-1,.5-1.52L181,110c.53,1.32,1.07,2.65,1.6,4a17,17,0,0,1-2.07-1.1c-1.05-.75-2-1.6-3-2.41Z"/><path class="cls-1" d="M183,103c.16.67.33,1.33.5,2-4.93-.26-5.32-.39-6.85-2.56Z"/><path class="cls-2" d="M175,106l2.5,4.47c-3.18,2.18-3.21,5.75-4,9,0,.5,0,1,0,1.5l-.28,1.28c-.75-2.63-1.49-5.21-2.22-7.79-.35-.58-.73-1.68-1.05-1.67-3.44.16-2.82-2.32-3-4.32l-.73-6c1.79-.67,1.95-.67,4,1.56.73.81,1.3,1.4,2.28.46Z"/><path class="cls-6" d="M173.52,121c0-.5,0-1,0-1.5l3.9-1.72-1.9,6.31a2.7,2.7,0,0,1-.06.41c-1,.88-1.33.38-1.46-.7S173.69,121.94,173.52,121Z"/><path class="cls-7" d="M179.5,122,178,123.51l1-5.91,1,.07C181.06,119.1,180,120.57,179.5,122Z"/><path class="cls-2" d="M68.06,44.93l1.7,2.54.51-.18-.72-3.81,1.93,1,.56,2C71,48,71.77,50.17,73.67,51.14a7.81,7.81,0,0,1,2.16,1.5,34.68,34.68,0,0,1,2.32,3.16l1-.15,1.31-5.15H81c.06,3.35.16,6.7.17,10,0,.53-.59,1.1-.51,1.59a11.34,11.34,0,0,0,.85,2.36l-6.09,8.3-.83-.54q1.45-2.88,2.92-5.76l-1.88-1.74c2.55-.62,1-1.65.4-2.72l-2,1,1.32-2.71L74.76,60q-1.33,2.22-2.66,4.44l-.48-.23.71-3c-2.24.67-3.2-.44-2.84-2.86a23,23,0,0,0,0-3.32l1.92-3.14-1.5.34L68,47.5l-.82-2.3Z"/><path class="cls-2" d="M77.52,66.5,74.6,72.26l.83.54,6.09-8.3c.19.2.59.49.55.59A21,21,0,0,1,81,67q-2.58,3.84-5.17,7.69l.38.33,5.29-6L82,70.5l-2,3-2.33,2.67.33.42,2.9-.75-2.42,3.09.43.37,2.59-2.79L86,73q-2.59,3.84-5.18,7.67l.34.57,5-1.68L82.23,83l.38.84a33.06,33.06,0,0,1,3.75-.92,20.77,20.77,0,0,1,3.15.07C87.86,84.85,84,84,84,87.7c-1.76-1.21-2.6-.86-2.9,1-.42,2.57,1.64,3.77,3,5.37l1,1.47c-1.07.34-2.14.68-3.21,1-.09,0-.23-.16-.47-.34l1.48-1.29L81,93.49a21.33,21.33,0,0,0-.84-3.09c-1.16-2.66-2.44-5.27-3.67-7.9l1,.46.56-.37Q75.3,76.05,72.52,69.5L71,67c.4,0,1.07-.11,1.17.07.56,1,1,2.07,1.4,3Z"/><path class="cls-2" d="M86,73l-4.51,3.51q2-3.41,3.89-6.81L85,69.44,80,73.5l2-3a11.6,11.6,0,0,0,1.59-2.08c.15-.31-.36-.94-.57-1.43l2-2c.37.22,1,.4,1.07.67.36,2.17.68,4.31,3.39,4.79-1.22,1.06-2.13,2.3-.86,3.79a16.61,16.61,0,0,0,2.86,2.21c0,2,1.56.72,2.51.53l1,.52-3,5.41-1.46-.4c-1.37-1.66-5.5-2-2.62-5.64l-1.65-.36Z"/><path class="cls-2" d="M82,44a70.22,70.22,0,0,1,.12-8.34c.2-1.6,1.31-3.08,2-4.62l.59.24V41.84l1.14-1.6c.07.56.11.91.16,1.27l-.51,3c-.68,3-1.33,6.1-2.06,9.13-.09.35-.61.58-.94.87Z"/><path class="cls-3" d="M89.48,70.47c-2.71-.48-3-2.62-3.39-4.79,0-.27-.7-.45-1.07-.67l-1.26-3.45a14.5,14.5,0,0,0,1.73.06,1.35,1.35,0,0,0,.94-.41c.12-.19-.16-.61-.25-.94-.19-.72-.66-1.53-.49-2.17.47-1.9,1.2-3.74,1.83-5.6l2,.5L89,54.51c-.42,1-1.3,2.09-1.17,3a25.82,25.82,0,0,0,1.66,5c0,.33,0,.66,0,1-1.35.64-1.33,1.38-.68,2.73s.48,2.84.68,4.28Z"/><path class="cls-1" d="M82.52,54.5c.33-.29.85-.52.94-.87.73-3,1.38-6.08,2.06-9.13.9,4.57-.61,8.81-1.41,13.15l-.64.05Z"/><path class="cls-2" d="M83,67c.21.49.72,1.12.57,1.43A11.6,11.6,0,0,1,82,70.5c-.14-.44-.29-.89-.48-1.5l-5.29,6-.38-.33Q78.42,70.84,81,67Z"/><path class="cls-1" d="M79,51l-.84-2.13c2.44-.72,1.57-2.51,1.5-4s-.09-2.77-.2-4.14c-.18-2.34-.42-4.67-.63-6.95l.51.08q.33-6.15.65-12.32a26.34,26.34,0,0,1,.48,3.39c0,8.54,0,17.08,0,25.61h0Z"/><path class="cls-2" d="M36,38.5l4,2,.07.07c-.52.48-1,1-1.54,1.46-.34.33-.68.66-1,1-1.17-2.42-3.61-1.38-5.45-2l-5-2c.64-.49,1.31-.94,1.9-1.48a4,4,0,0,0,.62-1C30.78,37,32,37.59,33.34,38A18.21,18.21,0,0,0,36,38.5Z"/><path class="cls-3" d="M46.52,40.51,54,42.62,53.5,45,46,42l-6-1.5L40,40.47c-.07-.56-.13-1.12-.16-1.32Z"/><path class="cls-3" d="M36,38.5A18.21,18.21,0,0,1,33.34,38c-1.3-.42-2.56-1-3.83-1.52L28.5,35v0Z"/><path class="cls-2" d="M79,51l1.48-.49q-.65,2.56-1.31,5.15l-1,.15a34.68,34.68,0,0,0-2.32-3.16,7.81,7.81,0,0,0-2.16-1.5c-1.9-1-2.7-3.18-1.63-4.65l2.67,4.12.77-.52-4-5.59-1.93-1,.5-1,3.34,1-.65-2.62c2.62-1.53,2.85-3.52.8-6.84a25.35,25.35,0,0,0,1-2.43A24.34,24.34,0,0,0,75,29c0-.18,0-.36,0-.54.43.58,1.22,1.17,1.21,1.75,0,2.49-.31,5-.44,7.46a10.85,10.85,0,0,0,.25,2c.09.66.49,1.57.2,1.92-2.61,3.18.33,5.93.62,8.86.06.59.89,1.1,1.36,1.64Z"/><path class="cls-2" d="M78,28A27.35,27.35,0,0,1,75.69,24a4.44,4.44,0,0,1,.4-2.56c.06-.16,1.18-.26,1.28-.08a7.53,7.53,0,0,1,1.22,2.89A16.09,16.09,0,0,1,78,28Z"/><path class="cls-2" d="M81,196c2-.35,2.15,1.19,2.52,2.5-.29,1.27-.82,1.8-1.59.34A17.81,17.81,0,0,1,81,196Z"/><path class="cls-2" d="M79,183c1-3,3.44-2,5.52-2,0,.16,0,.32,0,.49-.19.95-.19,2.64-.59,2.73C82.2,184.68,80.1,185.54,79,183Z"/><path class="cls-2" d="M82,215a28.55,28.55,0,0,1-1.16,3.71c-.25.57-1,.92-1.54,1.36a8.53,8.53,0,0,1-1.6-2.23c-.22-.69.19-1.58.32-2.38Z"/><path class="cls-2" d="M78.56,187a23.79,23.79,0,0,1,3.63-.43c.62,0,1.22.59,1.83.92-.56.67-1,1.68-1.71,1.93a7.68,7.68,0,0,1-3.54.19C78.57,189.59,78.62,187.92,78.56,187Z"/><path class="cls-2" d="M73.41,240.46,73,240l.51-8.48c.15-1,.3-2,.44-3l-.56-.54.69-1.52.93-.56,2.48,1.56c1.47,3-1.93,1.6-3.06,3.53,2.8-.49,5-.87,7.14-1.21a2.61,2.61,0,0,1,.92.19l-.45,2c-.41,0-.83,0-1.24,0-4.94-.48-7.08,1.93-6.32,6.93C74.58,239.34,73.79,239.93,73.41,240.46Z"/><path class="cls-2" d="M77.52,227.5,75,225.94c0-.64,0-1.29,0-1.94.48,0,1,.24,1.41.06,2.16-1.06,3.07.05,3.6,1.93a1.11,1.11,0,0,1-.63,1.93A6,6,0,0,1,77.52,227.5Z"/><path class="cls-3" d="M87,233.41,86.49,244c0,3,0,6,.07,9l-.51,0V235.88L84.57,238,82,237.48c-.11-.44-.16-1.21-.35-1.25-1.19-.24-2.4-.32-4-.5,1-1.74,1.94-2.63,3.81-2.47,1.69.14,3.63,1.26,5-.75Z"/><path class="cls-2" d="M84.57,238l1.48-2.15V253l-1.51,1c-.18-1-.37-2-.55-3L85.43,250l-1.67-.48L84.94,247c-1.73,0-3.13-1.76-4.42.47H74c-.16-1-.31-2-.47-3l2.94-.52c.34,0,.78.16,1,0a14,14,0,0,0,1.48-1.5H79a9,9,0,0,0,2.07,1.35c.56.19,1.83,0,1.86-.21C83.29,241.7,85.57,240.31,84.57,238Z"/><path class="cls-2" d="M84.57,238c1,2.28-1.28,3.67-1.61,5.61,0,.19-1.3.4-1.86.21A9,9,0,0,1,79,242.5l3.52-2.16-2.62-1.75.12-.67,1.93-.44Z"/><path class="cls-1" d="M79,242.51a14,14,0,0,1-1.48,1.5c-.21.15-.65,0-1,0l.51-5.14,1.08-.05Z"/><path class="cls-2" d="M84.54,152.55l-1.11-.93c3.32-1.6,3.51-3.67.65-5.63.14-.33.28-.65.41-1,1.64-.82,2.87,0,4.05,1-.11.87-.27,1.74-.32,2.62-.12,1.85-.78,3.28-2.73,3.81Z"/><path class="cls-2" d="M84.49,145c-.13.32-.27.64-.41,1l-.46,0c0-.33-.05-.67-.07-1s-.07-.68-.1-1q.24-6.45.47-12.9c.69.48,1.37,1.34,2.07,1.37a46.87,46.87,0,0,0,5.53-.39,3.69,3.69,0,0,0,0,.47l1,1.61c-3,.52-3.18,1-1.49,3.25a5.81,5.81,0,0,1,.51,1.1l-2,.51h-4c-.47,1.36-.94,2.72-1.42,4.09Z"/><path class="cls-2" d="M84.49,145c-.12-.64-.25-1.28-.38-1.92l1.72.53,1.67-2.1c1.46.24,5.18-1.16,1.84,2.58a6,6,0,0,0-.8,1.91C87.36,145,86.13,144.2,84.49,145Z"/><path class="cls-2" d="M91.52,138.49a5.81,5.81,0,0,0-.51-1.1c-1.69-2.26-1.51-2.73,1.49-3.25l-1-1.61,1.91-.09c0,2,.09,4,.13,6Z"/><path class="cls-1" d="M87.5,141.53l-1.67,2.1-1.72-.53c.48-1.37,1-2.73,1.42-4.09l2,2Z"/><path class="cls-2" d="M87.51,141l-2-2h4Z"/><path class="cls-2" d="M88.12,157.06l-2.57-.21-.3-.59L87,154.71l1.53,1.82Z"/><path class="cls-2" d="M77.52,254.5l1,2c1.7.91,2.08,2.45,2,4.21-.09,1.58-.88,3.31,1,4.46.31.19.31.89.46,1.35l-.48.49-4-.07-3.08-1.4C73.94,261.43,74.17,257.54,77.52,254.5Z"/><path class="cls-2" d="M82,266.52c-.15-.46-.15-1.16-.46-1.35-1.93-1.15-1.14-2.88-1-4.46.09-1.76-.29-3.3-2-4.21,1.45.22,3.7-.68,3.15,2.35,0,.27.86,1,1.4,1.07,2.11.37,2.52,1.78,2.46,3.58-2.34-.3-3.3.75-3,3Z"/><path class="cls-1" d="M82.53,266.54c-.3-2.29.66-3.34,3-3,1.44.69,1.14,1.69.48,2.76Z"/><path class="cls-2" d="M32,47.49,27,46l4-1.54c1.68,1.55,3.41,0,5.12.07l-.59,1Z"/><path class="cls-2" d="M32,47.49l3.49-2,2,1.5-1,1.93c-1.67-1.81-3.33-.85-5,0C31.71,48.45,31.86,48,32,47.49Z"/><path class="cls-2" d="M40.51,63.48l.49-1L44.5,60l1,1c-.06.65-.32,1.8-.16,1.86a37.47,37.47,0,0,0,4.08,1.19c.06.13.12.26.19.39L45.93,65l3.36,1.53L49,68l-5.5-1.5h0V63.13Z"/><path class="cls-1" d="M44.5,60,41,62.46c-2.11-.39-.8-1.26-.24-2,1.16-1.4,1.25-2.72-.19-4,.15-.34.29-.68.43-1-.39-1-.84-2-1.14-3.07A3.91,3.91,0,0,1,40,51l1.47.51,3,1.5-1.87.35,2.66,3.78C43.75,58,43,58.85,44.5,60Z"/><path class="cls-2" d="M43.52,66.5,49,68l2.47.59-2.3.72,2.34,5.21c-3.09.82-3.94.09-5-4.35-.06-.23,0-.48-.53-.4Z"/><path class="cls-2" d="M51.53,74.52l-2.34-5.21,2.3-.72.1-.19,2.84.64-.91,2.78,2.07,1.71-1.11,1-1.49,0Z"/><path class="cls-2" d="M41.47,78.5c.33-.36.69-1.07,1-1C46.27,77.85,49.6,76.24,53,75c-.5,1.17-1,2.33-1.51,3.5a14.16,14.16,0,0,0-2.81-.25c-.43,1.61-1.72,1-2.66,1.2l-2.51-.93Z"/><path class="cls-1" d="M51.52,78.5c.5-1.17,1-2.33,1.51-3.5,0-.15,0-.31,0-.46l1.49,0,2,1.06-2.2,1.34L59,78.05l0,.44L55,79l-2.64,1.27Z"/><path class="cls-2" d="M41.47,78.5l2.07,0c-.06.79-.13,1.58-.19,2.32l-6.81-.32-.06-1,4-.53Z"/><path class="cls-2" d="M37.06,137.48l1.49-1.95v2.81l.54,0,1.46-1.91L42,138.3l1,3.77a1.25,1.25,0,0,0,.07.43L41.18,146l-.78-.28L40,144.16l-1.21-3-.62.27.46,3-1.06-.21c-.86.42.77,3.43-2,1.86l-1.06-1.52a1.8,1.8,0,0,1,.1-.46Q35.85,140.76,37.06,137.48Z"/><path class="cls-2" d="M36.52,153,36,153c0-.84-.07-1.68-.1-2.52s-.19-1.7-.28-2.55l2.83-.55L40,148.5C40.22,151.07,37.89,151.67,36.52,153Z"/><path class="cls-2" d="M35.65,147.91c.09.85.18,1.7.28,2.55-.45-.19-1.26-.36-1.28-.59-.13-1.79-.1-3.59-.13-5.38L35.58,146C35.6,146.64,35.63,147.28,35.65,147.91Z"/><path class="cls-2" d="M10,125l1.51-2.49.55,1.57-.53,3-2,2Z"/><path class="cls-2" d="M12.56,132.41V131c1.26-2.37,2.34-4.74,0-7.08.29-.46.59-.91.8-1.23l2.19.78,0,2.89C14.51,128.4,13.53,130.4,12.56,132.41Z"/><path class="cls-2" d="M20,130.57c-.81,1.41-1.81,1.53-3,.45-.32-1-.65-2-1-3h.48l2.07,1.69.18-2,.36,0,1,2.73Z"/><path class="cls-1" d="M16.5,128H16l-.53-1.61c0-1,0-1.93,0-2.89.17-1.34.33-2.67.5-4l1-1,.44,0Z"/><path class="cls-2" d="M12.52,124c2.38,2.34,1.3,4.71,0,7.08l-1-4c.18-1,.35-2,.53-3Z"/><path class="cls-2" d="M27.53,124l0,1.5-1.23.86L24.51,124c-.19-.61-.39-1.23-.76-2.43Z"/><path class="cls-8" d="M23.05,129.56l.48-1.57c.12.54.24,1.09.37,1.63Z"/><path class="cls-2" d="M16.5,128l1-9.51q1.52-2.5,3-5l3.25-3.27c.18.64.43,1.38.61,2.14.53,2.34,1,4.69,1.56,7V121l-1.55-.42c-1.28,1.88-2.48,3.47-3.46,5.19a7.61,7.61,0,0,0-.34,2.4c-.12.75-.31,1.48-.47,2.22l-1-2.73-.36,0-.18,2Z"/><path class="cls-2" d="M25.92,119.39c-.52-2.34-1-4.69-1.56-7-.18-.76-.43-1.5-.61-2.14-1.15,1.17-2.2,2.22-3.25,3.27,1.78-3.28,3.27-6.82,7-8.48l.54,9.52,0,2c0,.15,0,.3,0,.45Z"/><path class="cls-2" d="M28,117c0-.15,0-.3,0-.45L33.54,113,37,114.47c-.68,2.54-1.7-.41-2.51.18s-1.14,2.76-2.41,1.26l-4.53,7.61C27.69,121.33,27.84,119.15,28,117Z"/><path class="cls-1" d="M44,136.05c-.5-1-1-2-1.49-3.06l1.05-2L46,129c.14,1.16-.42,2.66,1.46,3,.39,1.68.39,1.68-2.6,1.84L46,136l-.49,2.64Z"/><path class="cls-1" d="M43.56,131l-1.05,2c-.27-1.37-.53-2.75-.78-4L39,130l3-3H44.5Z"/><path class="cls-2" d="M44,136.05l1.53,2.59-.49.43L42,138.3l-1.41-1.82c0-.32,0-.64,0-1l.69-1.93Z"/><path class="cls-2" d="M40.5,135.52c0,.32,0,.64,0,1-.49.63-1,1.27-1.46,1.91l-.54,0v-2.81l1.63-3.46Z"/><path class="cls-2" d="M74,247.5h6.5l1.77.74-.11.55-2.36.71,3.7,1.51-1,1.52c-.65,0-1.52.22-1.92-.11C78.46,250.68,74.8,251,74,247.5Z"/><path class="cls-2" d="M82.5,252.52l1-1.52.47,0c.18,1,.37,2,.55,3v5.16c-.53-1.17-.69-2-1.21-2.51a7.26,7.26,0,0,0-2.23-.92L83,255Z"/><path class="cls-3" d="M23.51,37.54,28,35.05,28.5,35l1,1.52a4,4,0,0,1-.62,1c-.59.54-1.26,1-1.9,1.48l-1.48,1L24,39.5Z"/><path class="cls-1" d="M36.54,80.52l6.81.32c.06-.74.13-1.53.19-2.32l2.51.93c.65.52,1.35,1,2,1.57a25.05,25.05,0,0,1,1.67,1.89l-.46.23,3.31,1.36H42l-3.77-2.73-.4.63,2.46,2.32L35,86c-.56-.3-1.35-1-1.64-.84-2,1.18-3.92,2.54-5.86,3.83a4,4,0,0,0-.64.1L26,87l-.43-.48c.71-.46,1.45-.9,2.15-1.38a16.36,16.36,0,0,0,1.53-1.22,12.64,12.64,0,0,0,.95-1.15L33,82.49a17.84,17.84,0,0,1,1.68-1.21A16.38,16.38,0,0,1,36.54,80.52Z"/><path class="cls-3" d="M25.58,86.53,26,87,22,93c-.17-1.15-.33-2.3-.49-3.46Z"/><path class="cls-2" d="M22,93,26,87l.87,2.08a4,4,0,0,1,.64-.1L26,92l-5,4-.51-1.52Z"/><path class="cls-2" d="M26,92l1.5-3c1.94-1.29,3.85-2.65,5.86-3.83.29-.16,1.08.54,1.64.84-.34.34-.67.68-1,1l-5,4.92-1,.54Z"/><path class="cls-2" d="M28,92.48l1-.54.48.54q-2,3-4,6c0,.17-.07.34-.11.51L23.52,98Z"/><path class="cls-2" d="M32,108c0-1.24,0-2.48.12-3.71s.63-2.54-2.41-1.76l.83-.86L36.51,99l1-.49-1.69,3.19L37.51,104v5.49L37,111l-3.45-5.51V111l-.07,1.42Z"/><path class="cls-3" d="M37.51,98.5l-1,.49-2-.51,2.95-1,2.49-1c1.3-.39,2.6-.81,3.91-1.14,1.88-.48,3.77-.89,5.66-1.33L49,95l-.88,1.61L50,97l.48.49-.83,1.8c-2.38-2.94-5.31-1.83-8.16-1.29l-2,.5Z"/><path class="cls-2" d="M32,108c.48,1.49,1,3,1.46,4.46l.06.57L28,116.51l0-2c.36-.52.95-1,1-1.55.26-1.75.32-3.52.46-5.3Z"/><path class="cls-2" d="M27.51,105c-3.74,1.66-5.23,5.2-7,8.48q-1.5,2.51-3,5h-.44L21,110q3.51-3.75,7-7.51C29.55,103.66,27.86,104.21,27.51,105Z"/><path class="cls-3" d="M31.64,95.09q-1.58,1.71-3.17,3.4l-3,0,4-6,1,1.52Z"/><path class="cls-2" d="M21,110l-4,8.52-1,1L11.92,122l1.34-4.58c-1.75.37-2.81-.19-2.32-2,.45-1.69.09-2.65-1.78-2.85-.22,0-.38-.65-.56-1l4.44-1c-1.7,2.87,1.39,4,2,6.41,1.45-3.07,2.72-5.76,4-8.45Z"/><path class="cls-2" d="M11.92,122,16,119.5c-.17,1.33-.33,2.66-.5,4l-2.19-.78c-.21.32-.51.77-.8,1.23l-.45.12c-.19-.52-.37-1-.55-1.57Z"/><path class="cls-2" d="M73.54,34c2,3.32,1.82,5.31-.8,6.84l.65,2.62-3.34-1c.29-1.36.58-2.72.9-4.29l2.89,1.66C73.72,37.68,73.63,35.84,73.54,34Z"/><path class="cls-1" d="M112,42.48l2,.52c0,.5,0,1,0,1.51L108.52,51H108l-.5-2q1.51-2.74,3-5.49Z"/><path class="cls-2" d="M103,53.45,105.52,50l2-1c.17.66.34,1.33.5,2l-1.49,2.5c-.32,1.34-.65,2.68-1,4l-1,1.48-.41-2.17-1.59,1.67c-.17-1.33-.33-2.66-.49-4Z"/><path class="cls-2" d="M137.52,34.53c.63.13,1.26.29,1.89.37s1.42.08,2.13.11l2.52,1.3a11.85,11.85,0,0,1,3.82.55c.5.23.32,1.91.5,3.36l7.22.73.4.65L150.52,47l-.51-.5,1.5-3,.14-1.88L142,41l-1,0,0-1.5c.51-1.85-.33-2.49-2.11-2.45a7,7,0,0,1-1.88-.5L137,35Z"/><path class="cls-2" d="M157.52,46a18,18,0,0,0,.2,2.21c.38,1.79-.15,2.64-2.12,2.61-.57,0-1.1.9-1.73,1.22-1.42.71-2.9,1.31-4.35,2,1.65-.76,2-1.72.63-3.14A9.61,9.61,0,0,1,149,49l1.5-1.5Z"/><path class="cls-2" d="M150.52,47.5,149,49c-.34.2-1,.43-1,.6.22,2.85-1.69,2.53-3.48,2.41,0-1,2.67-2,0-3l-.06-.48,5.52-2,.51.5Z"/><path class="cls-1" d="M144.56,52c1.79.12,3.7.44,3.48-2.41,0-.17.64-.4,1-.6a9.61,9.61,0,0,0,1.13,1.86c1.39,1.42,1,2.38-.63,3.14l-2.44,1.08-.42-.58h-4.14Z"/><path class="cls-2" d="M148.43,57.94l-4,2.57-2.46,0c.31-1.75.3-3.78,3-3.49a9.58,9.58,0,0,1,2.45-.34C147.82,56.7,148.11,57.49,148.43,57.94Z"/><path class="cls-1" d="M142,60.49l2.46,0,1,.5c-.46.34-.93.67-1.4,1l-4.5.53-.05,0L138.05,61Z"/><path class="cls-2" d="M148.43,57.94c-.32-.45-.61-1.24-1-1.28A9.58,9.58,0,0,0,145,57c.56-.83,1.12-1.66,1.67-2.5l.42.58,5.14.73Z"/><path class="cls-2" d="M151,60.46,149,60c1.42-1.59,3.06-1.76,4.95-.48Z"/><path class="cls-2" d="M148,71l-8.52-2.49a3.32,3.32,0,0,1-.06-.44l6.12-1.57,3.41,0,1.11.62-2.26,2.49,1.08,1Z"/><path class="cls-2" d="M145.58,66.49l-6.12,1.57c-1.52-.12-2,.68-1.83,2.07.11.79.26,1.58.4,2.37v3.25l-.51,0c-.35-.53-.69-1.07-1.31-2-.11,1.28-.16,2-.22,2.71l-.72-.6c-.9,1.5-3,2.15-2.86,4.45.05.74-.65,1.53-1,2.35L129,81V77.32l.77.43,2.3-2.71c1.17.36,2-1.71,2.64-7.68l-3.06-1.54L131.05,68,131,67c.25-2.17-.57-3.15-2.83-2.57-.88.22-1.77.38-2.65.57-1.44,1.61-2.9.57-4,.17V71l-1.84-5.37-1.17.1c-.09,1.16-.49,2.42-.19,3.47.72,2.48,1.77,4.87,2.69,7.3l-.47,0c-.36-.29-.88-.91-1.07-.82-3,1.4-2.77-.87-3-2.62l1-6.41-1.29-.15c-.09,1.35-.17,2.71-.25,4.06l-2.43,2.93-1-.47c-1.1.76-2,1-2-.82,0-.73,0-1.45,0-2.18,0-.16,0-.32.05-.48,2.35.42,2.15-1.58,2.76-2.85a13.43,13.43,0,0,1,1.23-1.81L112,64.49l-.5-1a7.24,7.24,0,0,0-2.2-.74c-2.43,0-4.85.17-7.28.27l2.49-4c.34-.49.69-1,1-1.48l2.48-2h1l.55,2.18-3.2,1,.15.69,7-.31,5.9.51-2.47,1c-3.11-1.19-6,.06-9,.54l7.55.47-.33,2,.65.38q2.81-2.38,5.62-4.76l-.25-.59H118L113.45,57l6.82-3.11-2.36-.53L125,52l6-1,1,.49c-3.47,2.7-7.22,5.08-9.88,8.49,3.42.89,6.28,1.8,9.2,2.34,2.68.5,5.42,1.92,8.18.17l.05,0c-.21.42-.42.83-1,1.91h8.49l3.14.22.06.45Z"/><path class="cls-2" d="M129,81l2.38,1.67c.37-.82,1.07-1.61,1-2.35-.18-2.3,2-3,2.86-4.45l.72.6.06.57c-1.18,1.9-2.31,3.82-3.56,5.65-.32.46-1.07.59-1.55,1A16.65,16.65,0,0,0,129.53,85h0c-.66-.41-1.3-.86-2-1.23-1.15-.62-2.34-1.19-3.51-1.78h0c0-.48,0-1,0-1.45,1.41-.31,2.5,2,4.05.48Z"/><path class="cls-1" d="M136.05,77l-.06-.57c.06-.72.11-1.43.22-2.71.62,1,1,1.51,1.31,2l.51,0V72.5c.82,1.89,1.63,3.77-.16,5.58Z"/><path class="cls-3" d="M147.06,64.45h-8.49c.56-1.08.77-1.49,1-1.91l4.5-.53,2.09.7-1,.87Z"/><path class="cls-2" d="M172.53,104.49c-1,.94-1.55.35-2.28-.46-2-2.23-2.18-2.23-4-1.56l.73,6-8.15-6.27c-.29.85-.8,2.29-1.31,3.74l-.81-3.2h-.52L156,107l-2.39-4.27-.59.22v1.57l-2.95-3-1.06,3c-.5-3.2-1.06-6.39-1.48-9.6-.2-1.51-1.09-2.22-2.34-1.76-.72.26-1.24,1.39-1.59,2.24-.18.43.15,1.12.33,1.66,1,3.14,1.68,6.27,0,9.41a12.57,12.57,0,0,1-2-10.79c.39-1.46.41-2.18-.44-3.15L153,93l4,2c.38.47.67,1.12,1.16,1.37,4.21,2.13,8.49,4.15,12.69,6.31C171.55,103,172,103.87,172.53,104.49Z"/><path class="cls-2" d="M133.5,95c1.08-.46,2.16-.94,3.24-1.39.92-.38,1.85-.74,2.78-1.11.16.83.33,1.66.5,2.5l-.53,2.52a28.89,28.89,0,0,0-1,3.13c-.26,1.41-.34,2.86-.5,4.3l-3.56-7.71V100C134.16,98.36,133.83,96.69,133.5,95Z"/><path class="cls-1" d="M140,95c-.17-.84-.34-1.67-.5-2.5h2c.85,1,.83,1.69.44,3.15a12.57,12.57,0,0,0,2,10.79c0,.18,0,.37,0,.55a6.73,6.73,0,0,1-1.32.47,9.53,9.53,0,0,1-1.6,0c0-.47,0-1-.07-1.44Q140.52,100.5,140,95Z"/><path class="cls-2" d="M133.5,95l1,5-.51,4.87-1-2q-.24-3.92-.5-7.83l.48-.15Z"/><path class="cls-2" d="M121.53,97,127,95.53l0,1c-1.54,2.35-.44,4.71,0,7.06l-4.58,3.66-.42-3.67C121.84,101.36,121.69,99.19,121.53,97Z"/><path class="cls-2" d="M132.52,95.09q.25,3.91.5,7.83l-.9,1,.71-1L130,101.51c-.84-2.64-.94-5.05,2-6.52Z"/><path class="cls-2" d="M132,95c-3,1.47-2.85,3.88-2,6.52v5.08l-2-1.14a25.31,25.31,0,0,0,.24-4.42A30.63,30.63,0,0,0,127,96.49l0-1Z"/><path class="cls-3" d="M121.53,97c.16,2.17.31,4.34.47,6.51-.82-.85-1.64-1.71-2.45-2.57-.06-1.53-1.49-3.56,1.45-4Z"/><path class="cls-2" d="M121,97c-2.94.45-1.51,2.48-1.45,4L118,102.5c-.32-1.67-.65-3.34-1-5l0-.55,2.54-.94Z"/><path class="cls-1" d="M157.55,106c.51-1.45,1-2.89,1.31-3.74l8.15,6.27c.14,2-.48,4.48,3,4.32.32,0,.7,1.09,1.05,1.67l-2.53,2-1.44-.06-2-2a3.61,3.61,0,0,0-1.31-4.3l-1.18,2.29-1-3-.41-1.72Z"/><path class="cls-2" d="M69,57l.51-2a23,23,0,0,1,0,3.32c-.36,2.42.6,3.53,2.84,2.86l-.71,3,.48.23Q73.42,62.2,74.76,60l.57.33L74,63l2-1c.55,1.07,2.15,2.1-.4,2.72l1.88,1.74-3.93,3.59c-.43-1-.84-2-1.4-3-.1-.18-.77,0-1.17-.07-.17-.16-.34-.33-.5-.5-.21-2.07-.73-3.83-3.21-4.28-.59-.11-1.07-.93-1.58-1.44-1.08-1.08-2.14-2.19-3.21-3.28-.4-.86-.62-2.3-1.23-2.49-2-.61-1.74-2.06-1.78-3.5V51l4,2.51h0c.56.7,1,1.86,1.71,2C66.61,55.79,66.85,59,69,57Z"/><path class="cls-9" d="M71.48,44.5l4,5.59-.77.52L72,46.49C71.85,45.83,71.67,45.16,71.48,44.5Z"/><path class="cls-2" d="M76.52,82.5c1.23,2.63,2.51,5.24,3.67,7.9A21.33,21.33,0,0,1,81,93.49l-2,2L75.34,94.2l-.62.77L78,97.48l1.53,1c-1.67,2.46-2.72-.12-4-.49l-1-1.89c-2.85-2.06-3.25-2-5,.89l-2,0L67,96l5-3.35a9.92,9.92,0,0,1,1.51-1.11,25,25,0,0,1,2.42-.89l.54-.07,2.21,1.93.81-.61L74.58,82c-.37-1-.75-2-1.12-2.93l.55-.54Z"/><path class="cls-2" d="M75.52,98c1.32.37,2.37,3,4,.49l-1.53-1L80,97.24l-1-1.72,2-2,1.81,1.37-1.48,1.29c.24.18.38.37.47.34,1.07-.31,2.14-.65,3.21-1L84,94l2.78-.9L84,91l4-.15L88.53,92q-2,4.26-4,8.5l-1,2.49c-1.28-2.27-3.07-2.93-5.5-1.83-1.58.71-3.22,1.39-4.51-.56L75,99Z"/><path class="cls-2" d="M84,91l2.78,2.11L84,94c-1.32-1.6-3.38-2.8-3-5.37.3-1.82,1.14-2.17,2.9-1C84,84,87.86,84.85,89.51,83v0c-.33,1.15-.67,2.3-1,3.45Z"/><path class="cls-2" d="M86,73l.25,3.53,1.65.36c-2.88,3.67,1.25,4,2.62,5.64l-1,.5v0a20.77,20.77,0,0,0-3.15-.07,33.06,33.06,0,0,0-3.75.92L82.23,83l3.92-3.46-5,1.68-.34-.57Q83.42,76.83,86,73Z"/><path class="cls-2" d="M76.52,82.5q-1.26-2-2.51-4l-2-4c-.33-1.18-.58-2.38-1-3.52-.65-1.75.2-1.82,1.52-1.5Q75.31,76,78.11,82.59l-.56.37Z"/><path class="cls-2" d="M80,73.5l5-4.06.43.26q-1.94,3.4-3.89,6.81L78.92,79.3l-.43-.37,2.42-3.09-2.9.75-.33-.42Z"/><path class="cls-1" d="M72.52,69.5c-1.32-.32-2.17-.25-1.52,1.5.42,1.14.67,2.34,1,3.52L68,69c-.07-3.13.37-3.56,2.51-2.52.16.17.33.34.5.5Z"/><path class="cls-2" d="M104.52,59,102,63q-3,4.75-6,9.5c-.51,1.32-1,2.64-1.52,4L94,77c-.95.19-2.47,1.48-2.51-.53a16.61,16.61,0,0,1-2.86-2.21c-1.27-1.49-.36-2.73.86-3.79l0,0a7,7,0,0,1,2.08,1c1.33,1.29,2.35.61,3.06-.48A45.09,45.09,0,0,0,97,66.49l2-4,3.48-4,1.59-1.67Z"/><path class="cls-2" d="M92,82.93l3-5.41L100,75l-1.11,3.93L96.5,82.44l-3,2.55L91,85.41Z"/><path class="cls-2" d="M92,82.93l-1,2.48L93.48,85c-.5,1.66-1,3.33-1.49,5L88.5,90V86.48c.33-1.15.67-2.3,1-3.45l1-.5Z"/><path class="cls-1" d="M100,75l-5,2.52L94,77c.17-.18.33-.36.5-.53L98,74c.8.29,2.26-2.21,2.46.58Z"/><path class="cls-10" d="M87.86,57.54c-.13-.94.75-2,1.17-3"/><path class="cls-2" d="M63.52,53.5l-4-2.51c-.44-1-.86-2-1.34-3-.35-.69-.77-1.35-1.17-2,.52-.76,1-1.58,2-.5.08,1.88.75,3.33,2.74,3.89C64,50,63.39,51.93,63.52,53.5Z"/><path class="cls-1" d="M46,42l7.5,3,2,2v1c-1.77-.88-3.61-1.64-5.29-2.68A46.83,46.83,0,0,1,46,42Z"/><path class="cls-11" d="M55.51,48V47L57,46c.4.67.82,1.33,1.17,2,.48,1,.9,2,1.34,3,0,.18,0,.35,0,.52l-2-.52Z"/><path class="cls-2" d="M55.51,48l2,3v3l-4.48-1.49-1-1L52,51c-.09-.53,0-1.36-.29-1.55-2.18-1.39-4.45-2.66-6.69-4L38.51,42c.51-.49,1-1,1.54-1.46L46,42a46.83,46.83,0,0,0,4.22,3.28C51.9,46.36,53.74,47.12,55.51,48Z"/><path class="cls-2" d="M52,51l0,.47-.51,1c-3.47-2.32-6-6.07-10.46-6.9l4,2.62a8.85,8.85,0,0,1-3.18-.79c-.35-.11-.88.36-1.33.57l-3-1-2-1.5.59-1c.46-.51.93-1,1.39-1.54.35-.32.69-.65,1-1L45,45.5Z"/><path class="cls-2" d="M37.48,43c-.46.52-.93,1-1.39,1.54-1.71-.07-3.44,1.48-5.12-.07A5.45,5.45,0,0,0,29.33,44c-1.45.07-2.89.28-4.33.44l.48-2,2.43-1.91L32,41C33.87,41.6,36.31,40.56,37.48,43Z"/><path class="cls-3" d="M32,41l-4.12-.44L25.51,40,27,39Z"/><path class="cls-1" d="M84,251l-.47,0-3.7-1.51,2.36-.71.11-.55-1.77-.74c1.29-2.23,2.69-.44,4.42-.47l-1.18,2.46,1.67.48Z"/><path class="cls-1" d="M93.59,127.54l-.12,1.52c0,1.13,0,2.26,0,3.38l-1.91.09a3.69,3.69,0,0,1,0-.47l-1-1.9a11.17,11.17,0,0,1,1.29-1.54A13,13,0,0,1,93.59,127.54Z"/><path class="cls-2" d="M83.92,131.08a1.72,1.72,0,0,0-.39-.1v0l.37-2.47,1.82-.43-1.57-1L86,125l7.5-1,1,2.5-.94,1a13,13,0,0,0-1.8,1.08,11.17,11.17,0,0,0-1.29,1.54l1,1.9a46.87,46.87,0,0,1-5.53.39C85.29,132.42,84.61,131.56,83.92,131.08Z"/><path class="cls-3" d="M36.52,153c1.37-1.34,3.7-1.94,3.5-4.51L40,144.16l.43,1.53.78.28L43,142.5l1.49,3V147c-2.37.87-4.72,1.69-4.31,5.06A28.39,28.39,0,0,1,36.52,153Z"/><path class="cls-2" d="M37.55,47l3,1,1.48.52,2,2.34-2.52.67L40,51l-1.49-1-1.93-1.13Z"/><path class="cls-2" d="M49.59,64.47c-.07-.13-.13-.26-.19-.39l.21-.56,2.54-.31.57-1L50,60.56l.21-.26L54,61l0-.38-3.18-2.25a32.1,32.1,0,0,1,1.61-2.81c.2-.28.68-.36,1-.53l6,6.08L66,69c.55,1.19,1.14,2.36,1.64,3.57,1,2.32.06,4.14-2.17,4.43l-1,0-1.05-.47L63,76.41c-.58-1.12-1.1-2.27-1.74-3.35-.53-.89-1.19-1.7-1.79-2.55l-1-1L53,67c-.27-.6-.39-1.46-.86-1.76A9.47,9.47,0,0,0,49.59,64.47Z"/><path class="cls-2" d="M44.5,60c-1.55-1.18-.75-2.05.77-2.87l-2.66-3.78L44.48,53a8.37,8.37,0,0,1,1.18,1.5A20.65,20.65,0,0,1,46.5,57l3.27,2c-1,1.28-4.17-2.1-3.7,1.9l-.59.1Z"/><path class="cls-2" d="M49.59,64.47a9.47,9.47,0,0,1,2.55.78c.47.3.59,1.16.86,1.76L51.59,68.4l-.1.19L49,68c.08-.44.17-.88.27-1.43L45.93,65Z"/><path class="cls-2" d="M45.48,61l.59-.1,3.54,2.59-.21.56a37.47,37.47,0,0,1-4.08-1.19C45.16,62.83,45.42,61.68,45.48,61Z"/><path class="cls-2" d="M46.5,57a20.65,20.65,0,0,0-.84-2.48A8.37,8.37,0,0,0,44.48,53l-3-1.5L44,50.86l-2-2.34c2.24,1.16,5,1.57,6.53,4l-1.6,1.09,2.83,2.17Z"/><path class="cls-2" d="M58.5,69.5l1,1c.91,2.19.11,3.08-2.17,2.92a12.78,12.78,0,0,0-1.74.1l-2.07-1.71c.32-1,.62-1.88.91-2.78Z"/><path class="cls-2" d="M55.59,73.53a12.78,12.78,0,0,1,1.74-.1c2.28.16,3.08-.73,2.17-2.92.6.85,1.26,1.66,1.79,2.55.64,1.08,1.16,2.23,1.74,3.35l-6.51-.85-2-1.06Z"/><path class="cls-2" d="M58.5,69.5,54.43,69l-2.84-.64L53,67Z"/><path class="cls-2" d="M52.52,84.5l-3.31-1.36.46-.23A25.05,25.05,0,0,0,48,81c-.6-.58-1.3-1-2-1.57.94-.21,2.23.41,2.66-1.2a14.16,14.16,0,0,1,2.81.25l.82,1.74L55,79l2.18,1.78-.65.14V85H56l-2-.5Z"/><path class="cls-2" d="M56.51,85V80.89l.65-.14L55,79l4-.48L60.05,81c-.22,1.73-.54,3.39-2.56,4Z"/><path class="cls-2" d="M60.05,81,59,78.49l0-.44c.3-.35.55-.94.91-1a35.61,35.61,0,0,1,3.59-.49l1.05.47c-.42.47-1.21,1-1.19,1.4C63.47,80.94,61.94,81.16,60.05,81Z"/><path class="cls-2" d="M63.46,76.54a35.61,35.61,0,0,0-3.59.49c-.36.08-.61.67-.91,1L54.32,76.9l2.2-1.34,6.51.85Z"/><path class="cls-3" d="M44.5,127H42l3.55-5,2-2.51.5-.5,4.56-4.44,1,.39-2,3.08-4,3.07Z"/><path class="cls-2" d="M40,144.16,40,148.5l-1.54-1.14-2.83.55c0-.63,0-1.27-.07-1.9,2.73,1.57,1.1-1.44,2-1.86l1.06.21-.46-3,.62-.27Z"/><path class="cls-1" d="M45,142c-.64,1.18-1.44-2-2,.07l-1-3.77,3.08.77.45,2Z"/><path class="cls-2" d="M33.54,113l-.06-.57c0-.47.05-.94.07-1.42.7.62,1.39,1.25,2.31,2.08L37,111l.51-1.47c.56-.63,1.08-1.29,1.68-1.87.17-.16.55-.09.83-.13L40.8,113l2.7-1,.51,1.48-2.55,2.47-1.92,0L39,111.9h-.82c-.38.86-.77,1.71-1.16,2.57Z"/><path class="cls-3" d="M39.54,116l1.92,0,.75,3-1,.37Z"/><path class="cls-2" d="M45.49,141.06l-.45-2,.49-.43c.17-.88.33-1.76.49-2.64l1.89.91c0-1.68-.4-3.55,2.11-3.46l1.5-2.45,2.5,1.5c-1.93.75-2.11,3.94-4.89,3.49L49,138a11.07,11.07,0,0,0-1.16,1.91C47.39,141.09,47,142.12,45.49,141.06Z"/><path class="cls-2" d="M50,133.45c-2.51-.09-2.14,1.78-2.11,3.46L46,136l-1.15-2.2c3-.16,3-.16,2.6-1.84L49,127l2.88-1.08Z"/><path class="cls-2" d="M44.5,127l3.06-5.89.5.87c-.35,1.51-.7,3-1,4.55L46,129l-2.45,2C43.88,129.64,44.19,128.32,44.5,127Z"/><path class="cls-2" d="M46,129c.33-.83.67-1.66,1-2.49h.49L49,127l-1.56,5C45.59,131.67,46.15,130.17,46,129Z"/><path class="cls-3" d="M23,42.48c-1.27-2.43-1.07-3,1-3l1.49.51,2.4.54-2.43,1.91Z"/><path class="cls-2" d="M30.52,94l-1-1.52L29,91.94,34,87c.35-.34.68-.68,1-1l5.31-1.26-2.46-2.32.4-.63L42,84.52c-1.14.9-2.25,1.84-3.43,2.68S36.22,88.74,35,89.51Z"/><path class="cls-2" d="M35,89.51c1.19-.77,2.42-1.48,3.58-2.31S40.9,85.42,42,84.52h1.47Q42.27,87.26,41,90c-1.07,3.09-4.14,1.3-6,2.47l2.18-2.69Z"/><path class="cls-2" d="M41,90q1.26-2.75,2.5-5.49H54l-4.48,3c-.63-1.15-.56-3.46-2.77-2.27-1.29.7-2.18,2.16-3.25,3.27Z"/><path class="cls-2" d="M46,113l-1.4,3.61v-6.33L43.5,112l-2.7,1L40,107.5c1-2.36-1.21-3.31-2.24-4.87L37.51,104l-1.68-2.32,1.69-3.19h2a18.79,18.79,0,0,0,3,.47c3,0,3.43.37,3.55,3.36,0,1.22.3,2.44.46,3.65-.16.83-.33,1.67-.49,2.5Zm-1.54-7h.72v-3.91h-.72Z"/><path class="cls-3" d="M37.51,104l.27-1.38c1,1.56,3.28,2.51,2.24,4.87-.28,0-.66,0-.83.13-.6.58-1.12,1.24-1.68,1.87Z"/><path class="cls-2" d="M37,111l-1.14,2.15c-.92-.83-1.61-1.46-2.31-2.08v-5.58Z"/><path class="cls-2" d="M41.53,98c2.85-.54,5.78-1.65,8.16,1.29l.83-1.8,1,.52c0,.5,0,1,0,1.51l-2.23,2.36L50.51,105,47,105.5V98Z"/><path class="cls-2" d="M51.5,98l-1-.52L50,97h4l0-.6L49,95l.52-.94V94L55,92.53l-.77,2.54,1.32,1.54.08,1.8-3.09.12Z"/><path class="cls-2" d="M49.53,94c-1.89.44-3.78.85-5.66,1.33-1.31.33-2.61.75-3.91,1.14l1.11-1.45a6.77,6.77,0,0,0,2-.53,22.09,22.09,0,0,0,2.48-2c.55,0,1.22.28,1.65,0,1.48-.78,2.89-1.72,4.32-2.6,1,2.16-1.2,2.7-2,3.95Z"/><path class="cls-2" d="M41.07,95.06,40,96.51l-2.49,1-.48-3L44,91Z"/><path class="cls-2" d="M41.53,98H47v7.49l-.52.49c-.16-1.21-.42-2.43-.46-3.65-.12-3-.51-3.35-3.55-3.36a18.79,18.79,0,0,1-3-.47Z"/><path class="cls-2" d="M44,91l-7,3.43L32.77,97c.11-.89.18-1.4.24-1.92l2-2.58c1.87-1.17,4.94.62,6-2.47l2.48-1.5,2.52,1Z"/><path class="cls-2" d="M35,92.47l-2,2.58-1.37,0L30.52,94,35,89.51l2.15.27Z"/><path class="cls-2" d="M69,57c-2.16,2-2.4-1.2-3.78-1.49-.68-.15-1.15-1.31-1.71-2,.27-.5.55-1,.75-1.38Z"/><path class="cls-2" d="M121.52,36.5c2-4.7,5-5.25,10.72-4.49l3.82.53.45,2-3-.16c-2-.14-4-.62-6,.16L126,36C124.47,35.8,122.85,34.9,121.52,36.5Z"/><path class="cls-2" d="M127.52,34.51c2-.78,4-.3,6-.16l3,.16c.17.17.35.34.52.52,0,.5,0,1,0,1.51L131.49,38l-1-1.47Z"/><path class="cls-2" d="M114,44.51c0-.51,0-1,0-1.51l3.49-2.5L120,39l-1,2.53L115,45Z"/><path class="cls-2" d="M121.52,36.5c1.33-1.6,3-.7,4.48-.52l.06.07-2.54,3L121,38v-.51Z"/><path class="cls-2" d="M121,37.47c0,.17,0,.34,0,.51l-1,1-2.5,1.5a10.77,10.77,0,0,1,.48-3.11c.44-.92,1.4-1.58,2.5-2.75Z"/><path class="cls-3" d="M114,44.51l1,.49-2.23,2.55a8.46,8.46,0,0,0,2.44,0c3.58-1.56,7.06-3.36,10.71-4.74,2.1-.79,4.23-1.29,5.58-3.27.32.42.69,1.25,1,1.22,2.85-.34,5.69-.8,8.52-1.24,0,.5,0,1,0,1.5l-10,2-.47,0L117,49l-3.51,2c-2.4-1.51-3.52,1.49-5.77,1.81l.78-1.8Z"/><path class="cls-2" d="M108.52,51l-.78,1.8c2.25-.32,3.37-3.32,5.77-1.81L109,55.5h-1l-1.51-2L108,51Z"/><path class="cls-3" d="M99,62.51,101,56l.54-1.45.47,0c.16,1.34.32,2.67.49,4Z"/><path class="cls-2" d="M106.52,53.5l1.51,2-2.48,2C105.87,56.18,106.2,54.84,106.52,53.5Z"/><path class="cls-1" d="M131,43l10-2,1,0,6.36,1.17L149,45l-4,1,2.36-1.23c-3.54-.82-6.67-2.44-9.37-1.91C135.53,43.39,133.34,43,131,43Z"/><path class="cls-2" d="M141,39.49c-2.83.44-5.67.9-8.52,1.24-.27,0-.64-.8-1-1.22l0-1.55L137,36.54a7,7,0,0,0,1.88.5C140.67,37,141.51,37.64,141,39.49Z"/><path class="cls-2" d="M149,45l-.63-2.84L142,41l9.65.6c-.06.86-.1,1.37-.14,1.88Z"/><path class="cls-2" d="M149,45l2.52-1.53-1.5,3-5.52,2L144,46.58l1-.54Z"/><path class="cls-1" d="M144,46.58l.45,1.93.06.48-1,.52-4,3Q138.77,49.25,138,46Z"/><path class="cls-2" d="M143.51,49.51c.34-.18.69-.35,1-.52,2.68,1,0,2,0,3l-2,2.49a6.26,6.26,0,0,1-1.47,1.28c-2.31,1-4.67,1.83-7,2.73,2.79-2,5.67-3.91,8.33-6.07C143.08,51.87,143.14,50.51,143.51,49.51Z"/><path class="cls-2" d="M134,58.51c2.34-.9,4.7-1.76,7-2.73a6.26,6.26,0,0,0,1.47-1.28h4.14c-.55.84-1.11,1.67-1.67,2.5-2.69-.29-2.68,1.74-3,3.49l-3.95.53c-3.74,1.61-7.46.83-9.53-2Z"/><path class="cls-3" d="M128.52,59c2.07,2.84,5.79,3.62,9.53,2l1.45,1.47c-2.76,1.75-5.5.33-8.18-.17-2.92-.54-5.78-1.45-9.2-2.34,2.66-3.41,6.41-5.79,9.88-8.49.5-1,1-2,1.51-3L138,46q.74,3.23,1.49,6.45l-6.36,4.58-.42-.63,4.47-3.71A12.79,12.79,0,0,0,127.87,57C127.63,57.27,128.28,58.32,128.52,59Z"/><path class="cls-2" d="M109,55.5l4.5-4.51L117,49c-.91,1.24-.68,1.89.93,2.07,2.36.25,4.71.61,7.07.92l-7.11,1.35,2.36.53L113.45,57l4.56,1.5-4.48.53-7,.31-.15-.69,3.2-1Z"/><path class="cls-1" d="M125,52c-2.36-.31-4.71-.67-7.07-.92-1.61-.18-1.84-.83-.93-2.07l13.53-6-1.4,2.08,2.16,1.26-4.45.3L130,48l-2.48,1-6-.55-.11.62a24.41,24.41,0,0,0,4.43,1.07c.85.05,1.74-.72,2.61-1.12l3.82.25L131,51Z"/><path class="cls-3" d="M129,81,128,81,127,79c2.14-.83,1.08-2.61,1.06-4,0-1.85-.64-3.71-.58-5.55s0-3.54-2-4.46c.88-.19,1.77-.35,2.65-.57,2.26-.58,3.08.4,2.83,2.57-.48.4-1.34.77-1.37,1.2-.15,1.9-.07,3.81-.07,5.72l.85,0c.21-2,.43-4,.64-6l.61-2.16,3.06,1.54c-.67,6-1.47,8-2.64,7.68l-2.3,2.71-.77-.43Z"/><path class="cls-2" d="M125.52,65c2,.92,2.06,2.54,2,4.46s.55,3.7.58,5.55c0,1.36,1.08,3.14-1.06,4h0c-.33-2-.65-4-1-6l-2.51,2-2-4.06V65.18C122.62,65.58,124.08,66.62,125.52,65Z"/><path class="cls-2" d="M96,72.5q3-4.75,6-9.5c2.43-.1,4.85-.27,7.28-.27a7.24,7.24,0,0,1,2.2.74L108,65c-3.16-.7-5.57,1-7.94,2.63-.14.1,0,.61,0,.92a4.73,4.73,0,0,0,1.72.17c2.28-.65,4.52-1.42,6.77-2.14l0,1c-.62.76-2.53.72-1.54,2.48l-5.54,4.44,2.4-5.3-3.32,1.39Z"/><path class="cls-2" d="M110.49,70c0,.73,0,1.45,0,2.18,0,1.78.88,1.58,2,.82l-1,3L110,75.93,108.51,79c-1.42-.22-1.64-1-1.13-2.25a16.45,16.45,0,0,0,.63-2.21c.7-1.54,0-2-1.47-2V72l1.55-1.48Z"/><path class="cls-3" d="M111.52,76l1-3,1,.47v2.6l6,.93,0,.05c-.06,1-.17,1.84-1.61,1.32a36.37,36.37,0,0,0-3.65-1l-.76,3.14-2,0-.7-1.18C113,78.63,112.16,77.29,111.52,76Z"/><path class="cls-2" d="M121,76.51c-.92-2.43-2-4.82-2.69-7.3-.3-1,.1-2.31.19-3.47l1.17-.1L121.52,71v0L121,76.51Z"/><path class="cls-1" d="M108.54,67.51c0-.33,0-.65,0-1L112,64.49l2.52.36a13.43,13.43,0,0,0-1.23,1.81c-.61,1.27-.41,3.27-2.76,2.85C110.56,68.17,109.94,67.45,108.54,67.51Z"/><path class="cls-2" d="M112,64.49l-3.49,2.05c-2.25.72-4.49,1.49-6.77,2.14a4.73,4.73,0,0,1-1.72-.17L108,65l3.56-1.49Z"/><path class="cls-2" d="M119.51,77l-6-.93v-2.6L116,70.53c.17.83.35,1.67.52,2.5.2,1.75-.07,4,3,2.62.19-.09.71.53,1.07.82Z"/><path class="cls-1" d="M113.53,59l4.48-.53h3.19l.25.59q-2.82,2.37-5.62,4.76l-.65-.38.33-2,1.45-1,2.47-1Z"/><path class="cls-2" d="M131.05,68c-.21,2-.43,4-.64,6l-.85,0c0-1.91-.08-3.82.07-5.72,0-.43.89-.8,1.37-1.2C131,67.33,131,67.66,131.05,68Z"/><path class="cls-2" d="M116.5,73c-.17-.83-.35-1.67-.52-2.5.08-1.35.16-2.71.25-4.06l1.29.15Z"/><path class="cls-2" d="M117,60.48l-1.45,1L108,61C110.92,60.54,113.85,59.29,117,60.48Z"/><path class="cls-2" d="M108.54,67.51c1.4-.06,2,.66,2,2,0,.16,0,.32-.05.48l-2.4.54L107,70C106,68.23,107.92,68.27,108.54,67.51Z"/><path class="cls-2" d="M131,51l1.31-1.75L128.51,49l-1,0L130,48l3.5.5c-.5,1-1,2-1.51,3Z"/><path class="cls-1" d="M119.51,77l1-.52.47,0h0c.22.49.43,1,.65,1.48l.41-.65,1.39.7-1.94,2-2-3Z"/><path class="cls-2" d="M127.52,85.5l-2.56.9c-.23-1.09-.59-2.74-.94-4.4,1.17.59,2.36,1.16,3.51,1.78.69.37,1.33.82,2,1.23Z"/><path class="cls-2" d="M124,80.56c-.12-.69-.25-1.37-.38-2.06L127,79h0L128,81C126.47,82.51,125.38,80.25,124,80.56Z"/><path class="cls-2" d="M144,107c0-.18,0-.37,0-.55,1.64-3.14,1-6.27,0-9.41-.18-.54-.51-1.23-.33-1.66.35-.85.87-2,1.59-2.24,1.25-.46,2.14.25,2.34,1.76.42,3.21,1,6.4,1.48,9.6,0,.7,0,1.4-.05,2.1L147,108a5.76,5.76,0,0,0-1.25-.78A9,9,0,0,0,144,107Zm2.12-3.16.69,0c1.32-2.61.56-5.31.14-8-.08-.55-.61-1-.93-1.53-.33.58-1,1.19-.94,1.73C145.35,98.65,145.78,101.24,146.14,103.84Z"/><path class="cls-2" d="M153,104.5v-1.57l.59-.22L156,107,155,108l-3.43,1.47-1,.38-1.42-1.9,1.52-3.79,1,2.21C152.69,106.14,154,106.24,153,104.5Z"/><path class="cls-2" d="M155,108.05,156,107l.21-4.21h.52l.81,3.2,3.57,1.79c0,.15.22.93.41,1.72-.41,0-1,.22-1.18,0-1.29-1.41-2.08-.6-2.84.53C156,110.17,154.65,110.19,155,108.05Z"/><path class="cls-2" d="M153,104.5c1,1.74-.34,1.64-1.42,1.91l-1-2.21c-.55,1.37-1,2.58-1.52,3.79L149,106.6l.05-2.1,1.06-3Z"/><path class="cls-2" d="M134,104.91l.51-4.87c0-.81,0-1.63,0-2.79L138,105l0,.08c-.32,1.32-.65,2.63-1,3.95l-1-1.52v-5.1l-.51,0-.53,3.1Z"/><path class="cls-3" d="M140,95q.49,5.49,1,11c-.35-1.47-.7-2.95-1.06-4.43l-.48-4Z"/><path class="cls-7" d="M139.49,97.53l.48,4c-.43,1.71-.85,3.42-1.28,5.13L138,105l0-.08c.16-1.44.24-2.89.5-4.3A28.89,28.89,0,0,1,139.49,97.53Z"/><path class="cls-2" d="M144,107a9,9,0,0,1,1.73.2A5.76,5.76,0,0,1,147,108c-.07.85-.15,1.7-.27,3.12l-1.6-1.81L145,110l-3.47-.54-.62-1.92.19-.14a9.53,9.53,0,0,0,1.6,0A6.73,6.73,0,0,0,144,107Z"/><path class="cls-2" d="M138,105l.69,1.65c.43-1.71.85-3.42,1.28-5.13.36,1.48.71,3,1.06,4.43,0,.48,0,1,.07,1.44l-.19.14-.61-.71-2.83,2.9L137,109C137.35,107.67,137.68,106.36,138,105Z"/><path class="cls-2" d="M134,104.91l1,.59.45,6.38-3.53-5.06-.95,2.31-2.71-.89L128,110.6c-.89-1.19-1.77-2.39-2.65-3.58l-.55.16.21,4.33-.3,1.76-.8-1.74c-.84-1.25-.71-3.32-2.9-3.42a27.89,27.89,0,0,0-.22-2.89c-.19-1.12-.77-1.59-1.82-.72l-1.48-2H118l1.56-1.54c.81.86,1.63,1.72,2.45,2.57.14,1.22.27,2.43.42,3.68l4.58-3.66c.33.63.65,1.27,1,1.9l2,1.14v-5.08l2.82,1.42-.71,1,.9-1Z"/><path class="cls-2" d="M102.49,87.91a7.87,7.87,0,0,1-2.18-1c-.47-.44-.57-1.28-.83-1.94l1.16.53,4.45,2.09Z"/><path class="cls-2" d="M128,105.45c-.32-.63-.64-1.27-1-1.9-.41-2.35-1.51-4.71,0-7.06a30.63,30.63,0,0,1,1.18,4.54A25.31,25.31,0,0,1,128,105.45Z"/><path class="cls-2" d="M115.48,98.47l1.53-1c.33,1.67.66,3.34,1,5h-.47l-2,0Z"/><path class="cls-2" d="M165,114.51c-.5-.1-1.14-.06-1.46-.35a6.63,6.63,0,0,1-1-1.66c.37-.73.75-1.46,1.18-2.29A3.61,3.61,0,0,1,165,114.51Z"/><path class="cls-1" d="M53.05,52.49,57.53,54V51l2,.52c0,1.44-.23,2.89,1.78,3.5.61.19.83,1.63,1.23,2.49l2.68,4.92-.3.25L59.53,59Z"/><path class="cls-2" d="M59.53,59l5.37,3.68.3-.25L62.52,57.5c1.07,1.09,2.13,2.2,3.21,3.28.51.51,1,1.33,1.58,1.44,2.48.45,3,2.21,3.21,4.28-2.14-1-2.58-.61-2.51,2.52l-8-9Z"/><path class="cls-2" d="M74.58,82l4.92,9.87-.81.61-2.21-1.93,1.12-.08.16-.73L71.58,88l0-.53,3.11-.8a18.19,18.19,0,0,0-4-1.09c-1.59-.34-3.18-.75-4.76-1.13l-1.84-1.25,2.38-1.73c1.53,1.92,3.71.26,5.46,1Z"/><path class="cls-2" d="M66,84.48c1.58.38,3.17.79,4.76,1.13a18.19,18.19,0,0,1,4,1.09l-3.11.8,0,.53,6.18,1.69-.16.73-1.12.08-.54.07L70,90l-.52,0-.85-.43c-1-.67-2-1.36-3-2-.83-.52-1.68-1-2.53-1.49h3.68l-2.6-1.48Z"/><path class="cls-3" d="M60,60l8,9,4,5.5,2,4-.55.54-1-.51c-.33-.46-.67-.91-1-1.38L66,69l-6.55-8Z"/><path class="cls-2" d="M69.46,90,70,90l2,2.62L67,96,66,96c0-.82-.1-1.64-.15-2.53L64,94c.68-.59,1.32-1.23,2-1.76C67.18,91.44,68.33,90.71,69.46,90Z"/><path class="cls-1" d="M75.52,98,75,99l-2.54.61h-1l-1,.4-.39.09-.55,0-1-.55L70,98l4.52-1.86Z"/><path class="cls-2" d="M66,96,67,96c.2.36.39.73.58,1.09l-3,2.43L61,98l2.86-1.62C64.89,98.31,65.33,96.36,66,96Z"/><path class="cls-2" d="M70,98l-.43-1c1.7-2.88,2.1-3,5-.89Z"/><path class="cls-2" d="M79,95.52l1,1.72L78,97.48,74.72,95l.62-.77Z"/><path class="cls-2" d="M72,92.6,70,90l6,.62a25,25,0,0,0-2.42.89A9.92,9.92,0,0,0,72,92.6Z"/><path class="cls-1" d="M72.48,78.54l1,.51c.37,1,.75,2,1.12,2.93l-2.6.5L70,80Z"/><path class="cls-2" d="M72.47,99.57,75,99l-1.46,1.64c1.29,2,2.93,1.27,4.51.56,2.43-1.1,4.22-.44,5.5,1.83a24,24,0,0,1-.08,3.06c-.23,1.5-.64,3-1,4.45l-4.12,1.1L78,110.11l-.47-2.62h1l2.86,1.18.62-.42L80,103.53c-.61-.35-1.21-1-1.83-1A14.89,14.89,0,0,0,75,103l-1.54-1-2-1Z"/><path class="cls-2" d="M82.51,110.5c.33-1.48.74-3,1-4.45a24,24,0,0,0,.08-3.06l1-2.49L86,99c.17,1,0,2.24.56,2.8,1.57,1.55,1,3.1.51,4.75L86,106l-1.75.2,1.24,2.3-1.49,1-.63-1.13-.4.1V111Z"/><path class="cls-1" d="M86,99l-1.46,1.5q2-4.25,4-8.5c.17.51.33,1,.5,1.51Z"/><path class="cls-2" d="M88.51,86.48c0,1.18,0,2.35,0,3.53l-.45.86L84,91Z"/><path class="cls-1" d="M88.05,90.87,88.5,90,92,90l-.51,1.51-2.45,2c-.17-.5-.33-1-.5-1.51Z"/><path class="cls-2" d="M96,72.5l4.53-2c-.83.75-1.71,1.46-2.46,2.28-.21.23,0,.79,0,1.2l-3.55,2.47C95,75.14,95.5,73.82,96,72.5Z"/><path class="cls-2" d="M108,74.53a16.45,16.45,0,0,1-.63,2.21c-.51,1.24-.29,2,1.13,2.25a17.84,17.84,0,0,0-1.91,1.42,9.58,9.58,0,0,0-1.09,1.6l-1,.5c-1.3-1.09-2.39-.52-3.44.43l-2.14-4L100,75l.47-.42.46.34c1.26,1.58,2-.28,3-.43L102.66,80l.76.2a39.73,39.73,0,0,0,1.32-4.32c.11-.54-.43-1.21-.68-1.83L106.54,72v.51c-.35,1.22-.71,2.44-1.06,3.67l.53.11Z"/><path class="cls-1" d="M91.48,91.5,92,90c.5-1.67,1-3.34,1.49-5l3-2.55c.17.35.34.71.52,1.06l-.5,1-3.07,5L92,91.5Z"/><path class="cls-2" d="M97,83.5c-.18-.35-.35-.71-.52-1.06l2.42-3.51,2.14,4-1.53.56V81.29Z"/><path class="cls-2" d="M101,74.92l-.46-.34c-.2-2.79-1.66-.29-2.46-.58,0-.41-.17-1,0-1.2.75-.82,1.63-1.53,2.46-2.28l3.32-1.39c-.88,1.93-1.64,3.62-2.4,5.3Z"/><path class="cls-3" d="M60,60l-.56,1.08-6-6.08c-.66-.83-1.33-1.66-2-2.5l.51-1,1,1L59.53,59C59.69,59.33,59.85,59.66,60,60Z"/><path class="cls-1" d="M52,51,45,45.5c2.24,1.3,4.51,2.57,6.69,4C52,49.65,51.91,50.48,52,51Z"/><path class="cls-2" d="M51.52,52.5c.66.84,1.33,1.67,2,2.5-.35.17-.83.25-1,.53a32.1,32.1,0,0,0-1.61,2.81l3.18,2.25L54,61l-3.76-.67-.21.26,2.69,1.7-.57,1-2.54.31-3.54-2.59c-.47-4,2.68-.62,3.7-1.9L46.5,57l3.26-1.26-2.83-2.17,1.6-1.09c-1.55-2.4-4.29-2.81-6.53-4L40.52,48c.45-.21,1-.68,1.33-.57a8.85,8.85,0,0,0,3.18.79l-4-2.62C45.56,46.43,48.05,50.18,51.52,52.5Z"/><path class="cls-2" d="M98.41,109.94l-.43.44c-2.67,1.9-3.26,3.4-2.4,6.05l-1.15-.34-1.35-1.61c0-.16,0-.31,0-.46l-.51-2.49.89-1,2-.54c.75-.31,1.53-.57,2.25-.94.92-.48,1.78-1,2.67-1.57Z"/><path class="cls-2" d="M96.07,118l1.47,4.5c-1,1.33-2,2.67-3,4-.34-.83-.68-1.67-1-2.5v-.53l4-3H94.25Z"/><path class="cls-1" d="M93.51,123.48V124L86,125v-.5l-.8-2.72.39-.64,3.69,1.73.77-1Z"/><path class="cls-1" d="M86,124.5v.5l-1.87,2.06,1.57,1-1.82.43c-1.38-.6-2.74-1.22-1.3-3Z"/><path class="cls-2" d="M66,84.48l-1.87.06C61,83,60.19,83.2,59.54,86l-2-1c2-.58,2.34-2.24,2.56-4,1.89.15,3.42-.07,3.27-2.6,0-.44.77-.93,1.19-1.4l1,0,2.09,1-1.08,1c-.25.15-.73.36-.71.43.2.7.48,1.38.74,2.07l-2.38,1.73Z"/><path class="cls-2" d="M66.49,79l1.08-1-2.09-1c2.23-.29,3.14-2.11,2.17-4.43-.5-1.21-1.09-2.38-1.64-3.57l5.48,8.13c.32.47.66.92,1,1.38L70,80Z"/><path class="cls-2" d="M57.49,85l2,1L63,86c.85.49,1.7,1,2.53,1.49,1,.65,2,1.34,3,2l-2.43,1.77c-1.55-3.57-1-2.85-8.24-1.21L60,91.49l-5.05,1L49.52,94c.8-1.25,3-1.79,2-3.95l5.68-2.94c.74-1.73-2.6.08-1.17-2.06h.48Z"/><path class="cls-2" d="M56,85c-1.43,2.14,1.91.33,1.17,2.06L51.52,90c-1.43.88-2.84,1.82-4.32,2.6-.43.23-1.1,0-1.65,0a21.24,21.24,0,0,0,2.81-2.24c.26-.27-.16-1.17-.27-1.79l1.42-1,4.48-3Z"/><path class="cls-2" d="M51.52,118l2-3.08h0l2.5.59.48,3.94-3,2.53-.46,0-2.54-.53H50Z"/><path class="cls-2" d="M51.52,118c-.51,1.15-1,2.31-1.52,3.46l-1.94.48-.5-.87Z"/><path class="cls-3" d="M49.52,110,48,113.49l-.82-1.55L46,113c0-1.51,0-3,0-4.51l2.27,2.2.27-1.18Z"/><path class="cls-2" d="M56,123.46c-1,1.84-2.87,3.47-1,6L51.52,131,50,133.45l1.89-7.53c.39-1.3.77-2.6,1.16-3.89l.46,0Z"/><path class="cls-2" d="M53.07,122c-.39,1.29-.77,2.59-1.16,3.89L49,127l-1.52-.48c1.87-1.15,3.33-2.55,3-5Z"/><path class="cls-2" d="M50.53,121.5c.31,2.47-1.15,3.87-3,5H47c.34-1.52.69-3,1-4.55l1.94-.48Z"/><path class="cls-2" d="M49.51,87.5l-1.42,1-2.08,1-2.52-1c1.07-1.11,2-2.57,3.25-3.27C49,84,48.88,86.35,49.51,87.5Z"/><path class="cls-1" d="M48.55,109.51l-.27,1.18L46,108.49c.16-.83.33-1.67.49-2.5l.52-.49,3.49-.49c0,.17,0,.34,0,.52C48,106,48.16,107.69,48.55,109.51Z"/><ellipse class="cls-2" cx="44.82" cy="104.02" rx="0.51" ry="2.77"/><path class="cls-2" d="M57.05,106.44l-3,1.06-1.09-2.44L51,107.48c0-.45,0-.91-.07-1.37a8.06,8.06,0,0,0,.53-6.58c0-.51,0-1,0-1.51l1,.51a17.59,17.59,0,0,0,1.14,2.91C54.7,103.16,55.91,104.78,57.05,106.44Z"/><path class="cls-3" d="M51.5,99.53a8.06,8.06,0,0,1-.53,6.58l-.5-.58c0-.18,0-.35,0-.52l-1.24-3.12Z"/><path class="cls-2" d="M57.05,106.44c-1.14-1.66-2.35-3.28-3.39-5a17.59,17.59,0,0,1-1.14-2.91l3.09-.12,2.93.21c.15.62.31,1.24.46,1.86l1,4.06L60,106c-.64-.22-1.5-1.54-1.75.36A5.44,5.44,0,0,1,57.05,106.44Z"/><path class="cls-2" d="M46,89.49l2.08-1c.11.62.53,1.52.27,1.79a21.24,21.24,0,0,1-2.81,2.24,22.09,22.09,0,0,1-2.48,2,6.77,6.77,0,0,1-2,.53l3-4Z"/><path class="cls-2" d="M127.52,34.51l3,2-2.3,3-.3-.82-1.83-2.6L126,36Z"/><path class="cls-2" d="M126.06,36.05l1.83,2.6.3.82,2.3-3,1,1.47,0,1.55c-1.35,2-3.48,2.48-5.58,3.27-3.65,1.38-7.13,3.18-10.71,4.74a8.46,8.46,0,0,1-2.44,0L115,45l4-3.47c.43.16,1.08.58,1.27.43,1.13-.92,2.16-2,3.22-3Z"/><path class="cls-2" d="M123.52,39c-1.06,1-2.09,2-3.22,3-.19.15-.84-.27-1.27-.43L120,39l1-1Z"/><path class="cls-2" d="M133.51,48.51,130,48l-3.15-1.33,4.45-.3-2.16-1.26,1.4-2.08.47,0c2.32,0,4.51.39,7-.1,2.7-.53,5.83,1.09,9.37,1.91L145,46l-1,.54L138,46Z"/><path class="cls-2" d="M128.52,59c-.24-.69-.89-1.74-.65-2a12.79,12.79,0,0,1,9.34-4.28l-4.47,3.71.42.63,6.36-4.58,4-3c-.37,1-.43,2.36-1.14,2.93-2.66,2.16-5.54,4.07-8.33,6.07Z"/><path class="cls-2" d="M127.53,49l1,0c-.87.4-1.76,1.17-2.61,1.12a24.41,24.41,0,0,1-4.43-1.07l.11-.62Z"/><path class="cls-2" d="M127,79l-3.42-.5c0-.15-.09-.3-.13-.46l-1.39-.7-.41.65c-.22-.49-.43-1-.65-1.48l.51-5.52,2,4.06,2.51-2C126.36,75,126.68,77,127,79Z"/><path class="cls-2" d="M101,74.92l.5-.49L107,70l1.09.54L106.54,72l-2.48,2.07c0,.14,0,.28-.07.41C103,74.64,102.22,76.5,101,74.92Z"/><path class="cls-2" d="M108,65,100,68.51c0-.31-.16-.82,0-.92C102.38,65.91,104.79,64.26,108,65Z"/><path class="cls-2" d="M108,74.53l-2,1.77-.53-.11c.35-1.23.71-2.45,1.06-3.67C108,72.5,108.71,73,108,74.53Z"/><path class="cls-2" d="M121.52,80c-1.76.16-3.51.35-5.26.48-.91.06-1.83,0-2.74,0,.22-.89.43-1.79.76-3.14a36.37,36.37,0,0,1,3.65,1c1.44.52,1.55-.3,1.61-1.32Z"/><path class="cls-2" d="M146.14,103.84c-.36-2.6-.79-5.19-1-7.8,0-.54.61-1.15.94-1.73.32.51.85,1,.93,1.53.42,2.66,1.18,5.36-.14,8Z"/><path class="cls-3" d="M136,107.47l1,4-1.47.52-.11-.14L135,105.5c.17-1,.35-2.07.53-3.1l.51,0Z"/><path class="cls-1" d="M121.05,108.11c-.35.8-.7,1.61-1,2.41l0,0-2-2,0-1.5c2.7.1.82-1.61,1-2.51,1-.87,1.63-.4,1.82.72A27.89,27.89,0,0,1,121.05,108.11Z"/><path class="cls-1" d="M119,104.5c-.18.9,1.7,2.61-1,2.51-.82-1.19-1.63-2.38-2.45-3.56v-1l2,0Z"/><path class="cls-1" d="M115.55,102.48c0,.32,0,.65,0,1-.53.73-1,1.47-1.57,2.2l-.54.28-1.87-2.75-.22.6-1.85-.29c1.13-2.69,2.69-4.88,6-5C115.5,99.81,115.52,101.15,115.55,102.48Z"/><path class="cls-2" d="M109.51,103.49l1.85.29.22-.6,1.87,2.75-1.72,3.21-1.19-.65c0-.62-.05-1.23-.07-1.85l-3-3.15,1-1Z"/><path class="cls-12" d="M99.51,99.49l-2,2-1,0c.5-1.28.54-2.38-1-3.06-.18-.08,0-.94,0-1.44l4.06,1Z"/><path class="cls-1" d="M99.55,98l-4-1-1-1.49,2-1H97c1.37.63,3.43.57,3,3Z"/><path class="cls-1" d="M100,97.5c.44-2.43-1.62-2.37-3-3l1.93-1"/><path class="cls-13" d="M100.7,96.26l2,.7"/><path class="cls-2" d="M105.52,101v-.5l2.76-.72c.08.93.16,1.83.24,2.73l-1,1-1.51,0Z"/><path class="cls-2" d="M99,93.51,97,94.5H96.5l-3.88-1.85,1.22-1.25-1.68,2.13-.52-.26L92,91.5c.47-.68,1-1.35,1.43-2l2.57-2,1,2c.8,1.28-.51,3.67,2.1,4Z"/><path class="cls-2" d="M99.08,93.48c-2.61-.33-1.3-2.72-2.1-4,1.89-2.17,2.33.82,3.56,1C100.42,91.66,101.78,93.56,99.08,93.48Z"/><path class="cls-2" d="M96,87.5l-2.57,2,3.07-5C96.35,85.5,96.18,86.5,96,87.5Z"/><path class="cls-3" d="M66.49,79,70,80l2,2.5c-1.75-.72-3.93.94-5.46-1-.26-.69-.54-1.37-.74-2.07C65.76,79.36,66.24,79.15,66.49,79Z"/><path class="cls-2" d="M60.06,93.48l1.36-1.85L60,91.49l-2.09-1.41c7.21-1.64,6.69-2.36,8.24,1.21l2.43-1.77.85.43c-1.13.76-2.28,1.49-3.38,2.3-.72.53-1.36,1.17-2,1.76l-1.5.47Z"/><path class="cls-1" d="M63,86l-3.49,0c.65-2.78,1.46-3,4.57-1.44L66.71,86Z"/><path class="cls-3" d="M62.54,94.48,64,94l1.83-.51c0,.89.1,1.71.15,2.53-.69.33-1.13,2.28-2.17.34L61,98H60c.18-.84.35-1.68.53-2.52Z"/><path class="cls-1" d="M71.5,101l2,1L73,104l-2-.94-2.53-3.61,0,0,1,.55,2,1Z"/><path class="cls-1" d="M72.47,99.57l-1,1.45h0l-1.44-1,.39-.09,1-.4Z"/><path class="cls-1" d="M70.08,100.05l1.44,1-2-1Z"/><path class="cls-1" d="M71.52,99.56l-1,.4Z"/><path class="cls-2" d="M63.51,101l1.7-1.11c1.31,1.45,2.21,0,3.24-.48.84,1.2,1.68,2.41,2.53,3.61-1.63.08-1,1.18-1,2l-4-1.59-1.51-1Z"/><path class="cls-3" d="M82.51,110.5,83,111c0,.47,0,1,0,1.42L79.55,114l-.6,0L76,112.49c-3.13-2.73-6.07-3.07-8.47-1l.43-1.59,5.44-1a4.54,4.54,0,0,0,.21-.45l1.45-1,1.12,2.4,1.78.18.39,1.49Z"/><path class="cls-1" d="M80,103.53l2.07,4.71-.62.42-2.86-1.18-1.59-2Z"/><path class="cls-2" d="M78,110.11l-1.78-.18c-.45-1-.79-1.68-1.12-2.4l-2-1.53,1-1,3.47,2.54Z"/><path class="cls-2" d="M77.53,107.49,74.06,105l-1-1,.45-2L75,103l2,2.52,1.59,2Z"/><path class="cls-1" d="M77,105.53,75,103a14.89,14.89,0,0,1,3.14-.46c.62,0,1.22.63,1.83,1Z"/><path class="cls-2" d="M92,91.5l-.38,1.77.52.26,1.68-2.13-1.22,1.25L96.5,94.5l-2,1,1,1.49c0,.5-.19,1.36,0,1.44,1.53.68,1.49,1.78,1,3.06H96c-.42-.77-.74-2.07-1.3-2.19a3.48,3.48,0,0,0-2.77.83A14.22,14.22,0,0,0,90,103.5c-.41,1.69-1.72,3.65,1.3,4.3.06.72.11,1.43.16,2.15l.14.08-1.84-1-.26,1.4c-1.38-.94-2.8-1.87-2.46-3.9.49-1.65,1.06-3.2-.51-4.75C86,101.24,86.15,100,86,99l3-5.49,2.45-2Z"/><path class="cls-2" d="M87.05,106.55c-.34,2,1.08,3,2.46,3.9l-1.58,2.86,2.26.39L90,116c-.75,0-1.87.24-2.18-.15-1.43-1.78-3.09-1.3-4.81-.85l.51-1c2.45-.89,2.5-1.33.48-4.48l1.49-1c.12.57.23,1.15.34,1.72l.75-.1L86,106Z"/><path class="cls-2" d="M84,109.5c2,3.15,2,3.59-.48,4.48l-.6-1.53c0-.47,0-1,0-1.42v-2.56l.4-.1Z"/><path class="cls-2" d="M86,106l.58,4.12-.75.1c-.11-.57-.22-1.15-.34-1.72-.37-.7-.74-1.39-1.24-2.3Z"/><path class="cls-2" d="M104,74.49c0-.13.05-.27.07-.41.25.62.79,1.29.68,1.83a39.73,39.73,0,0,1-1.32,4.32l-.76-.2Z"/><path class="cls-2" d="M114,105.65c.52-.73,1-1.47,1.57-2.2.82,1.18,1.63,2.37,2.45,3.56,0,.5,0,1,0,1.5-1-.16-.51-2.77-2.42-1.54l-.29-.63C114,107.66,114.08,106.51,114,105.65Z"/><path class="cls-3" d="M115.57,107c1.91-1.23,1.38,1.38,2.42,1.54l2,2c-1.33.54-2.59-1.74-4-.11Z"/><path class="cls-2" d="M83,115c1.72-.45,3.38-.93,4.81.85.31.39,1.43.12,2.18.15a10.51,10.51,0,0,1,1.47-1.51,5.23,5.23,0,0,1,1.57-.48c0,.15,0,.3,0,.46a21.15,21.15,0,0,0-1.84,3.09c-.22.52.17,1.3.29,2-.49.78-1,1.57-1.46,2.36l-.77,1-3.69-1.73-.39.64.8,2.72-3.42,1L79.51,124a2.38,2.38,0,0,0-.06-.37L81.58,119C82.06,117.69,82.54,116.35,83,115Z"/><path class="cls-2" d="M90.07,121.89l1.46-2.37,2.9-3.43,1.15.34.49,1.58-1.82,2.45h3.31l-4,3Z"/><path class="cls-1" d="M96,101.48h.5l1,0c-.88,2.07-1.73,4.14-2.63,6.2-.43,1-1,1.87-1.44,2.8l-.89,1c-.31-.5-.62-1-.94-1.5l-.14-.08c.84-1.65,1.68-3.31,2.53-5Z"/><path class="cls-2" d="M105.52,101l.49,2.46L102,106l-1.5,1.5-.14-.06c-.89.52-1.75,1.09-2.67,1.57-.72.37-1.5.63-2.25.94L103,103Z"/><path class="cls-2" d="M91.61,110c.32.5.63,1,.94,1.5l.51,2.49a5.23,5.23,0,0,0-1.57.48A10.51,10.51,0,0,0,90,116l.17-2.31-2.26-.39,1.58-2.86c.09-.46.17-.92.26-1.4Z"/><path class="cls-1" d="M94.43,116.09l-2.9,3.43c-.12-.65-.51-1.43-.29-2a21.15,21.15,0,0,1,1.84-3.09Z"/><path class="cls-3" d="M102,106l4-2.55,1.51,0,3,3.15c-1.2.94-2.36,1.12-3.45-.16C105.51,104.74,103.8,105,102,106Z"/><path class="cls-2" d="M59,112.46l2.51-1L67,112.5l2.64,4.92.33,1.19-1.61.33.78,1-1.94-1-.42,2.34L65,121l-2.51-3c.58-.86,1.22-1.73-.5-2C61.78,114.14,61.89,112,59,112.46Z"/><path class="cls-2" d="M70,118.61l-.33-1.19,2.58-2.66,1.79.75-.19,1.76,2.55,1,0,.58c-1.67,2.22-2.73.08-4-.64l-1,1.9Z"/><path class="cls-3" d="M71.43,120.14l1-1.9c1.29.72,2.35,2.86,4,.64-.3,1.21-.59,2.41-.89,3.62l-3-.65-.36.59Z"/><path class="cls-3" d="M66.1,122.49c-.53,1.74-1.84,1.91-4.09.52-.66-.68-1.31-1.37-2-2.05l5,.5Z"/><path class="cls-2" d="M75.52,122.5c.3-1.21.59-2.41.89-3.62l0-.58c.52,1,1.54,2.14,1.44,3.11-.17,1.54.65,1.81,1.63,2.22a2.38,2.38,0,0,1,.06.37C77.7,124.77,76.32,124.41,75.52,122.5Z"/><path class="cls-3" d="M65.06,121.46l-5-.5-.12-.42L62.52,118,65,121A1.6,1.6,0,0,0,65.06,121.46Z"/><path class="cls-1" d="M66,103.51l-4.44,3.1-.57-.1-.47-.52c-.17-.48-.33-1-.49-1.45l-1-4.06,1.06,0a30.39,30.39,0,0,0,2.58,3c1.26,1.14,1.88.58,1.87-1Z"/><path class="cls-1" d="M59,112.46c2.94-.49,2.83,1.68,3.07,3.54-1.23.79-2.33,1.33-3-.7-.13-.39-1-.54-1.53-.81l0-1.95.4-.13Z"/><path class="cls-2" d="M65.07,110.06l2.93-.15c-.15.53-.29,1.06-.44,1.59-.18.33-.36.67-.55,1l-5.55-1.07Z"/><path class="cls-2" d="M57.54,112.54c0,.65,0,1.3,0,1.95L56,115.54l-2.5-.59L57,112.49Z"/><path class="cls-2" d="M51,107.48l1.89-2.42L54,107.5C53,107.2,52,110.62,51,107.48Z"/><path class="cls-1" d="M60.05,104.54c.16.48.32,1,.49,1.45L60,106C60,105.49,60,105,60.05,104.54Z"/><path class="cls-2" d="M56,115.54l1.46-1.05c.53.27,1.4.42,1.53.81.66,2,1.76,1.49,3,.7,1.72.28,1.08,1.15.5,2l-2.59,2.53-3.41-1.06Z"/><path class="cls-2" d="M56.52,119.48l3.41,1.06.12.42c.65.68,1.3,1.37,2,2.05l-5-1.62-1,2.07L53.53,122Z"/><path class="cls-2" d="M62.54,94.48l-2,1-.52,0L55.8,95l-.18-.47,4.44-1Z"/><path class="cls-2" d="M73.1,106c-.94-.59-2.59,1.26-3.07-.9-.09-.87-.68-2,1-2l2,.94,1,1Z"/><path class="cls-2" d="M64.51,102.5c0,1.55-.61,2.11-1.87,1a30.39,30.39,0,0,1-2.58-3l3.45.52Z"/><path class="cls-2" d="M67,112.5c.19-.33.37-.67.55-1,2.41-2.08,5.35-1.74,8.47,1v3.16l-2-.14-1.79-.75-2.58,2.66Z"/><path class="cls-2" d="M74,115.51l2,.14v-3.16L79,114c.27.44.53.88.9,1.5l-2.2-.67c1.21,1.18-.3,4.72,3.14,3.67l.79.52-2.13,4.61c-1-.41-1.8-.68-1.63-2.22.1-1-.92-2.07-1.44-3.11l-2.55-1Z"/><path class="cls-2" d="M81.58,119l-.79-.52c-.42-1.51-.83-3-1.24-4.54l3.39-1.51.6,1.53L83,115C82.54,116.35,82.06,117.69,81.58,119Z"/><path class="cls-1" d="M79.55,114c.41,1.51.82,3,1.24,4.54-3.44,1-1.93-2.49-3.14-3.67l2.2.67c-.37-.62-.63-1.06-.9-1.5Z"/><path class="cls-3" d="M90,103.5c.23.88.45,1.77.68,2.65L94,105c-.85,1.65-1.69,3.31-2.53,5,0-.72-.1-1.43-.16-2.15C88.29,107.15,89.6,105.19,90,103.5Z"/></g></g></svg>