<svg id="Layer_1" data-name="Layer 1" xmlns="http://www.w3.org/2000/svg" xmlns:xlink="http://www.w3.org/1999/xlink" viewBox="0 0 1001.25 158.59"><defs><style>.cls-1{fill:none;}.cls-2{clip-path:url(#clip-path);}.cls-3{fill:#006837;}.cls-4{fill:#f2ca15;}.cls-5{fill:#39b54a;}</style><clipPath id="clip-path" transform="translate(-182 -304)"><rect class="cls-1" x="182" y="304" width="1001.24" height="158.6"/></clipPath></defs><title>HackathonLogoColored</title><g class="cls-2"><path class="cls-3" d="M182,404v-.18c0-17.58,13.29-32.47,32-32.47,10.81,0,17.46,3,23.83,8.52l-6.91,8.34c-4.78-4-9.48-6.64-17.37-6.64-11.42,0-20.11,10-20.11,22.07v.18c0,12.91,8.42,22.42,21.09,22.42a25.15,25.15,0,0,0,15-4.75V409.81H213.66v-9.69h26.41v26.37a39.31,39.31,0,0,1-25.88,9.78c-19.4,0-32.16-14-32.16-32.29" transform="translate(-182 -304)"/><path class="cls-3" d="M281.08,403.53c7.79,0,12.75-4.13,12.75-10.49v-.18c0-6.73-4.78-10.41-12.84-10.41H265.13v21.08Zm-26.8-31.12h27.65c7.79,0,13.9,2.33,17.89,6.27A19.12,19.12,0,0,1,305,392.23v.18c0,10.31-6.11,16.5-14.71,19L307,435.18H294.06L278.82,413.3H265.18v21.88h-10.9Z" transform="translate(-182 -304)"/></g><polygon class="cls-3" points="136.3 68.41 182.29 68.41 182.29 78.27 147.2 78.27 147.2 94.6 178.3 94.6 178.3 104.56 147.2 104.56 147.2 121.33 182.73 121.33 182.73 131.19 136.3 131.19 136.3 68.41"/><polygon class="cls-3" points="195.68 68.41 241.67 68.41 241.67 78.27 206.58 78.27 206.58 94.6 237.68 94.6 237.68 104.56 206.58 104.56 206.58 121.33 242.11 121.33 242.11 131.19 195.68 131.19 195.68 68.41"/><polygon class="cls-3" points="255.06 68.41 265.16 68.41 298.39 111.82 298.39 68.41 309.11 68.41 309.11 131.19 299.98 131.19 265.78 86.53 265.78 131.19 255.06 131.19 255.06 68.41"/><polygon class="cls-3" points="323.03 104.75 323.03 92.5 365.39 67.42 365.39 80.47 333.67 98.52 365.39 116.67 365.39 129.83 323.03 104.75"/><polygon class="cls-3" points="638.68 116.78 670.41 98.74 638.68 80.59 638.68 67.42 681.13 92.5 681.13 104.75 638.68 129.83 638.68 116.78"/><polygon class="cls-3" points="694.96 68.41 705.86 68.41 705.86 94.51 735.45 94.51 735.45 68.41 746.35 68.41 746.35 131.19 735.45 131.19 735.45 104.74 705.86 104.74 705.86 131.19 694.96 131.19 694.96 68.41"/><path class="cls-3" d="M981.88,410.26l-10.72-25.12-10.63,25.12ZM966.28,372h10.1l27.29,63.23H992.16L985.87,420H956.55l-6.39,15.16H939Z" transform="translate(-182 -304)"/><g class="cls-2"><path class="cls-3" d="M1007.68,404v-.18c0-17.85,13.21-32.47,31.9-32.47,11.52,0,18.43,4,24.37,9.78l-7,8.16c-5-4.66-10.28-7.72-17.45-7.72-11.7,0-20.38,9.78-20.38,22.07v.18c0,12.29,8.59,22.24,20.46,22.24,7.62,0,12.5-3,17.81-8.07l7,7.18c-6.47,6.81-13.55,11.12-25.16,11.12-18.17,0-31.55-14.26-31.55-32.29" transform="translate(-182 -304)"/></g><polygon class="cls-3" points="893.92 68.41 904.82 68.41 904.82 99.98 934.24 68.41 947.8 68.41 921.92 95.41 948.95 131.19 935.66 131.19 914.48 102.94 904.82 112.99 904.82 131.19 893.92 131.19 893.92 68.41"/><g class="cls-2"><path class="cls-3" d="M1135.22,426l6.56-7.89c5.94,5.2,12,8.16,19.58,8.16,6.73,0,11-3.23,11-7.89v-.18c0-4.49-2.49-6.9-14-9.6-13.21-3.23-20.65-7.17-20.65-18.74v-.18c0-10.77,8.86-18.21,21.18-18.21a34.13,34.13,0,0,1,22.5,7.89l-5.85,8.34c-5.58-4.21-11.16-6.45-16.83-6.45-6.38,0-10.1,3.32-10.1,7.44v.18c0,4.84,2.84,7,14.8,9.87,13.11,3.23,19.84,8,19.84,18.38v.18c0,11.7-9.13,18.7-22.16,18.7a37.92,37.92,0,0,1-25.87-10" transform="translate(-182 -304)"/></g><polygon class="cls-4" points="396.76 0 394.3 1.25 398.52 9.81 400.99 8.56 396.76 0"/><polygon class="cls-4" points="397.96 16.15 409.54 25.12 409.44 10.35 411.81 9.15 411.85 27.18 409.84 28.2 395.62 17.33 397.96 16.15"/><polygon class="cls-4" points="407.47 35.41 419.04 44.38 418.94 29.61 421.32 28.41 421.35 46.45 419.34 47.47 405.12 36.6 407.47 35.41"/><polygon class="cls-4" points="416.97 54.68 428.55 63.65 428.45 48.88 430.82 47.68 430.86 65.72 428.85 66.73 414.63 55.87 416.97 54.68"/><polygon class="cls-4" points="431.42 70.41 437.47 82.67 435.13 83.86 429.08 71.59 431.42 70.41"/><polygon class="cls-4" points="439.45 86.69 445.5 98.95 443.16 100.13 437.11 87.87 439.45 86.69"/><polygon class="cls-4" points="447.48 102.96 453.53 115.22 451.19 116.41 445.14 104.14 447.48 102.96"/><polygon class="cls-4" points="455.51 119.24 461.56 131.5 459.22 132.69 453.17 120.42 455.51 119.24"/><polygon class="cls-4" points="430.04 42.06 431.44 44.89 428.24 46.51 426.85 43.67 430.04 42.06"/><polygon class="cls-4" points="420.54 22.79 421.94 25.62 418.74 27.24 417.34 24.41 420.54 22.79"/><polygon class="cls-4" points="411.02 3.5 412.42 6.33 409.22 7.95 407.82 5.11 411.02 3.5"/><polygon class="cls-4" points="413.85 50.24 415.25 53.08 412.05 54.69 410.65 51.86 413.85 50.24"/><polygon class="cls-4" points="404.34 30.98 405.74 33.81 402.55 35.42 401.15 32.59 404.34 30.98"/><polygon class="cls-4" points="394.82 11.68 396.22 14.52 393.03 16.13 391.63 13.3 394.82 11.68"/><g class="cls-2"><path class="cls-5" d="M683.09,377.6s38.84-51.29,108.09-45.31c0,0-15.2,17.1-20.27,45.31,0,0-2.53,40.18-45.6,50.43,0,0,11,16.25,54.05,11.12,0,0,5.15,13.09-53.63,22.78-15.14,2.5-37.75-2.3-50.85-10.37-11.78-7.26-23.57-19.42-28.95-39.77,0,0-9.29-32.48-23.65-31.63l-8.44.86s16-25.65,37.16-15.39c0,0,6.75.86,18.57,15.39,0,0,2.89,7.84,13.52-3.42" transform="translate(-182 -304)"/></g></svg>