<svg id="Layer_1" data-name="Layer 1" xmlns="http://www.w3.org/2000/svg" viewBox="0 0 177.18 130.79"><defs><style>.cls-1{fill:#006837;}</style></defs><title>HackathonDove</title><path class="cls-1" d="M625.19,364.6s38.8-51.29,108-45.31c0,0-15.19,17.1-20.25,45.31,0,0-2.53,40.18-45.56,50.43,0,0,11,16.25,54,11.12,0,0,5.15,13.09-53.58,22.78-15.13,2.5-37.72-2.3-50.8-10.37-11.77-7.26-23.55-19.42-28.92-39.77,0,0-9.28-32.48-23.63-31.63L556,368s16-25.65,37.13-15.39c0,0,6.74.86,18.55,15.39,0,0,2.89,7.84,13.51-3.42" transform="translate(-556 -318.8)"/></svg>